<svg width="90" height="94" viewBox="0 0 90 94" fill="none" xmlns="http://www.w3.org/2000/svg">
<g clip-path="url(#clip0_1_13433)">
<path fill-rule="evenodd" clip-rule="evenodd" d="M37.1077 0C43.7052 25.1549 39.2887 29.421 32.8594 36.4408C38.4564 34.7638 40.9473 35.2949 43.9812 35.8053C50.9063 23.6118 43.056 17.5643 37.1077 0Z" fill="url(#paint0_linear_1_13433)"/>
<path fill-rule="evenodd" clip-rule="evenodd" d="M43.8594 12.9834C50.5292 24.4237 48.6921 32.4101 46.2897 35.7846C48.453 36.2039 51.8042 37.0806 53.4303 34.6799C55.0564 32.2791 52.8873 24.4164 43.8594 12.9908V12.9834Z" fill="url(#paint1_linear_1_13433)"/>
<path fill-rule="evenodd" clip-rule="evenodd" d="M17.8359 40.3847C26.61 37.3632 32.2838 36.1187 41.0328 37.2749C49.7818 38.4312 53.5609 40.4406 66.1391 38.1384C57.8432 41.5792 51.9406 41.9102 44.5079 41.3365C37.0752 40.7628 31.4132 37.7236 17.8359 40.3847Z" fill="url(#paint2_linear_1_13433)"/>
<path fill-rule="evenodd" clip-rule="evenodd" d="M27.0547 43.921C32.4156 41.9616 35.7506 41.0422 41.0982 41.7968C46.4459 42.5515 48.7538 43.849 56.4448 42.3558C51.3745 44.5874 47.7666 44.8007 43.2246 44.43C38.6826 44.0593 35.3536 42.1955 27.0576 43.921H27.0547Z" fill="url(#paint3_linear_1_13433)"/>
<path fill-rule="evenodd" clip-rule="evenodd" d="M18.3277 86.1489L19.3031 89.1543L22.4771 89.1484L19.9051 90.999L20.8923 93.9999L18.3277 92.139L15.763 93.9999L16.7502 90.999L14.1797 89.1484L17.3523 89.1543L18.3277 86.1489Z" fill="url(#paint4_linear_1_13433)"/>
<path fill-rule="evenodd" clip-rule="evenodd" d="M0.265625 68.0669H89.8436V69.2584H0.265625V68.0669Z" fill="url(#paint5_linear_1_13433)"/>
<path d="M10.1212 56.4132C11.9746 56.0278 14.2529 54.9274 14.2529 52.3119C14.2529 50.9879 13.6435 49.8332 12.6474 49.1727C11.6499 48.5387 10.3219 48.2356 8.22056 48.2356H0.483845V49.1182C2.53202 49.311 2.72532 49.4772 2.72532 51.8176V62.5563C2.72532 64.8688 2.50398 65.0571 0.289062 65.2277V66.1353H6.98841C9.25793 66.1353 11.2781 65.7779 12.6902 64.9791C14.2677 64.1259 15.2918 62.6946 15.2918 60.8499C15.2918 58.1784 13.161 56.9119 10.1167 56.5265V56.4161L10.1212 56.4132ZM5.91268 56.1381V50.8526C5.91268 50.1642 5.99679 49.7787 6.21813 49.586C6.41144 49.4198 6.9102 49.283 7.5462 49.283C9.48517 49.2801 10.8132 50.4672 10.8132 52.7517C10.8132 55.0363 9.59437 56.1352 6.77149 56.1352L5.91268 56.1381ZM5.91268 57.184H6.71542C9.9618 57.184 11.6986 58.4506 11.6986 61.122C11.6986 63.9023 9.84375 65.0321 8.04496 65.0585C6.43948 65.0865 5.91268 64.5084 5.91268 62.4989V57.184ZM55.5144 66.1324V65.2498C53.4102 65.0835 53.1888 64.8908 53.1888 62.3312V51.5396C53.1888 49.5022 53.4102 49.283 55.5144 49.1168V48.2342H40.981V49.1168C43.1413 49.2551 43.5559 49.586 43.5559 50.8526C43.5559 56.0278 42.7252 60.1864 41.5904 62.4739C40.8703 63.9611 40.1236 64.8423 38.7115 65.7234V66.328C39.2591 66.492 39.8278 66.5757 40.3996 66.5767C41.037 66.5767 41.673 66.1633 42.3386 65.1998C44.1373 62.6122 45.0227 57.109 45.0227 50.3598C45.0227 49.561 45.1053 49.3683 46.0188 49.3683H48.9538C49.9498 49.3683 49.9779 49.4507 49.9779 50.7997V62.3371C49.9779 64.8967 49.7565 65.0894 47.6523 65.2557V66.1383L55.5144 66.1324ZM70.9436 52.3384C70.8064 51.0144 70.6957 48.7873 70.6676 48.2356H58.2119V49.1182C60.232 49.2801 60.4534 49.4272 60.4534 51.8985V62.443C60.4534 64.8938 60.232 65.0909 58.1558 65.2527V66.1353H66.2968V65.2527C63.8606 65.0865 63.6673 64.8938 63.6673 62.443V50.3569C63.6673 49.3654 63.7233 49.3374 64.774 49.3374H66.4636C68.041 49.3374 68.6505 49.5022 69.0651 50.1362C69.4798 50.6864 69.6465 51.3748 70.0066 52.5046L70.9465 52.3384H70.9436ZM27.0732 47.8502C20.9567 47.8502 17.5244 52.4767 17.5244 57.2943C17.5244 62.5813 21.4274 66.5458 26.7692 66.5458C31.9177 66.5458 36.1808 62.9388 36.1808 56.9913C36.1808 51.5396 32.0283 47.8502 27.1012 47.8502H27.0732ZM26.5759 48.952C29.9241 48.952 32.443 52.1457 32.443 57.7636C32.443 62.8843 30.0908 65.4454 27.2945 65.4454C23.6128 65.4454 21.2607 61.5354 21.2607 56.6897C21.2607 51.7603 23.6689 48.952 26.5479 48.952H26.5759ZM89.8065 66.1324V65.2498C88.0358 65.0556 87.6757 64.7261 86.7623 62.3077C84.9635 57.5709 83.2208 52.6149 81.4751 47.8252L80.2577 48.1547L74.5603 62.3886C73.6204 64.757 73.2603 65.0365 71.4615 65.2527V66.1353H77.578V65.2527C75.5579 65.032 75.4192 64.6731 75.8899 63.1932C76.2219 62.0914 76.61 61.0176 76.9686 60.0261H82.4771C82.9759 61.35 83.4466 62.6416 83.7506 63.5566C84.1667 64.7334 83.9719 65.0159 82.3118 65.2645V66.1471L89.8065 66.1324ZM82.0285 58.6712H77.4068C78.1815 56.6118 78.9282 54.4582 79.759 52.3457H79.8151L82.0285 58.6712Z" fill="url(#paint6_linear_1_13433)"/>
<path fill-rule="evenodd" clip-rule="evenodd" d="M31.9932 86.149C32.3179 87.1512 32.643 88.153 32.9686 89.1543H36.1427L33.5707 90.999L34.5579 93.9999L31.9932 92.1391L29.4286 93.9999L30.4158 90.999L27.8438 89.1455H31.0178C31.3434 88.1442 31.6686 87.1424 31.9932 86.1401V86.149Z" fill="url(#paint7_linear_1_13433)"/>
<path fill-rule="evenodd" clip-rule="evenodd" d="M45.6499 86.149C45.9755 87.1512 46.3007 88.153 46.6253 89.1543H49.7994L47.2288 90.999C47.5564 91.9993 47.885 92.9996 48.2145 93.9999L45.6499 92.1391L43.0867 93.9999C43.4143 92.9996 43.7429 91.9993 44.0725 90.999L41.5078 89.1455H44.6819L45.6558 86.1401L45.6499 86.149Z" fill="url(#paint8_linear_1_13433)"/>
<path fill-rule="evenodd" clip-rule="evenodd" d="M59.3135 86.149C59.6382 87.1512 59.9633 88.153 60.2889 89.1543H63.463L60.891 90.999L61.8723 93.9999L59.3076 92.1391L56.7489 93.9999L57.7405 90.999L55.1641 89.1455H58.3381C58.6628 88.1442 58.9879 87.1424 59.3135 86.1401V86.149Z" fill="url(#paint9_linear_1_13433)"/>
<path fill-rule="evenodd" clip-rule="evenodd" d="M72.9776 86.1489L73.9515 89.1543L77.1256 89.1484L74.555 90.999L75.5408 93.9999L72.9776 92.139L70.4129 93.9999L71.3987 90.999L68.8281 89.1484L72.0022 89.1543L72.9776 86.1489Z" fill="url(#paint10_linear_1_13433)"/>
<path fill-rule="evenodd" clip-rule="evenodd" d="M0.265625 79.5999H89.8436V80.7914H0.265625V79.5999Z" fill="url(#paint11_linear_1_13433)"/>
<path d="M5.80807 77.2947H3.36296V77.0226C3.69645 76.9946 3.90008 76.9358 3.97387 76.8446C4.04765 76.7534 4.08454 76.5106 4.08454 76.1091V72.5226C4.0997 72.4032 4.07917 72.2819 4.02551 72.174C3.9206 72.1201 3.80163 72.0996 3.68464 72.1152H2.14851C1.95668 72.1152 1.84011 72.1358 1.80027 72.1784C1.7468 72.2848 1.72626 72.4046 1.74124 72.5226V76.1208C1.74124 76.518 1.77813 76.7607 1.85191 76.8563C1.92569 76.952 2.12638 77.0034 2.45397 77.0343V77.3065H0.0177075V77.0343C0.357102 77.0064 0.565165 76.9476 0.641898 76.8563C0.718631 76.7651 0.755521 76.5224 0.755521 76.1208V72.9242C0.764942 72.7299 0.746558 72.5353 0.700923 72.3461C0.687201 72.2976 0.663075 72.2526 0.63021 72.2142C0.597346 72.1759 0.556526 72.1451 0.510567 72.124C0.34545 72.0709 0.173447 72.0422 0 72.0387V71.7665H5.80807V72.0387C5.46868 72.0681 5.26061 72.1255 5.18388 72.2137C5.10715 72.302 5.06878 72.5432 5.06878 72.9404V76.1135C5.06073 76.311 5.07809 76.5087 5.12043 76.7019C5.13241 76.752 5.15526 76.799 5.18738 76.8394C5.21951 76.8798 5.26011 76.9127 5.30636 76.9358C5.46771 76.992 5.63715 77.0218 5.80807 77.024V77.2962V77.2947ZM6.3393 71.7665H8.60143C9.26448 71.7665 9.75636 71.8773 10.0771 72.099C10.2705 72.2413 10.4257 72.4292 10.5286 72.6458C10.6316 72.8625 10.6793 73.1011 10.6673 73.3405C10.6798 73.5683 10.6421 73.7959 10.557 74.0076C10.4718 74.2193 10.3413 74.4099 10.1745 74.5659C9.83332 74.8659 9.40554 75.0503 8.95263 75.0926C8.83115 75.1063 8.70892 75.1122 8.58668 75.1102L7.99643 74.9631V76.1958C7.99643 76.5533 8.03774 76.774 8.12333 76.8593C8.20892 76.9446 8.43764 77.0064 8.81097 77.0285V77.3006H6.28765V77.0285C6.61672 77.0005 6.82035 76.9431 6.90004 76.8549C6.97972 76.7666 7.01809 76.5474 7.01809 76.1958V72.8727C7.01809 72.5153 6.98267 72.2946 6.91184 72.2093C6.84101 72.124 6.65065 72.0622 6.3393 72.0387V71.7665ZM7.99495 72.4726V74.6424C8.15841 74.7118 8.33545 74.7434 8.5129 74.7351C8.62856 74.7348 8.74332 74.7149 8.85229 74.6763C8.97575 74.6288 9.09044 74.5611 9.19169 74.4762C9.32547 74.3625 9.4272 74.2159 9.48681 74.0511C9.56444 73.831 9.60143 73.5987 9.59601 73.3655C9.59601 72.9242 9.48829 72.5977 9.26989 72.3873C9.16111 72.2848 9.03291 72.2049 8.8928 72.1524C8.75268 72.0998 8.60346 72.0757 8.45387 72.0813C8.32225 72.0658 8.18947 72.0987 8.08054 72.174C8.01309 72.2609 7.98285 72.3709 7.99643 72.48L7.99495 72.4726ZM15.2919 75.856L15.5723 75.9075C15.5081 76.376 15.4094 76.8392 15.2772 77.2932H11.0303V77.0211C11.4037 76.9932 11.6339 76.9373 11.718 76.8519C11.8021 76.7666 11.8478 76.5504 11.8478 76.2003V72.8816C11.8478 72.5123 11.8109 72.2932 11.7386 72.2049C11.6663 72.1166 11.4671 72.0681 11.1484 72.0387V71.7665H15.0706C15.0706 71.7783 15.0986 72.198 15.1547 73.0257L14.8596 73.0684C14.8119 72.8027 14.7044 72.5512 14.5453 72.3329C14.4213 72.1858 14.1232 72.1034 13.6599 72.1034H13.1582C13.0655 72.0923 12.9715 72.1071 12.8867 72.146C12.8527 72.174 12.8365 72.2564 12.8365 72.3917V74.2585H13.4902C13.864 74.2585 14.1001 74.2246 14.1985 74.157C14.2974 74.0893 14.3756 73.9069 14.4316 73.6127H14.712V75.297H14.4316C14.3756 75.0028 14.2974 74.8131 14.1985 74.7483C14.0996 74.6836 13.8665 74.6498 13.499 74.6498H12.8306V76.165C12.8306 76.5548 12.8985 76.7887 13.0342 76.8622C13.17 76.9358 13.4253 76.9549 13.8488 76.9549C14.3416 76.9549 14.6692 76.8622 14.8345 76.6739C15.0309 76.4286 15.1854 76.1528 15.2919 75.8575V75.856ZM22.8442 77.2932H20.433V77.0138C20.7621 76.9843 20.9598 76.924 21.0233 76.8299C21.0867 76.7357 21.1221 76.4827 21.1162 76.0693L21.1 72.7271H21.0661L19.1182 77.23H18.9057L17.1143 72.8168H17.0892L16.9786 75.1058C16.9508 75.5702 16.9478 76.0357 16.9697 76.5003C16.9653 76.5722 16.9789 76.6439 17.0093 76.7092C17.0397 76.7744 17.0859 76.8311 17.1438 76.874C17.3328 76.9577 17.5363 77.0042 17.7429 77.0108V77.2903H15.7213V77.0108C15.9012 77.0054 16.0769 76.9548 16.2319 76.8637C16.2864 76.8201 16.3316 76.7662 16.365 76.7051C16.3985 76.644 16.4194 76.5769 16.4267 76.5077C16.5129 75.9837 16.5696 75.4552 16.5964 74.9249L16.7233 73.2067C16.7567 72.7016 16.7356 72.3883 16.6598 72.2667C16.5831 72.146 16.3647 72.0681 15.9929 72.0328V71.7606H17.616L19.3661 75.6736L21.1369 71.7606H22.7498V72.0328C22.3986 72.0681 22.1875 72.1284 22.1182 72.2167C22.0488 72.3049 22.0149 72.5373 22.0193 72.9183L22.1049 76.0649C22.1167 76.4783 22.1551 76.7313 22.223 76.821C22.2908 76.9108 22.4974 76.9681 22.8427 77.0093V77.2888L22.8442 77.2932ZM29.1746 77.2932H26.7384V77.0211C27.0778 76.9932 27.2858 76.9358 27.3626 76.8475C27.4393 76.7593 27.4762 76.5224 27.4762 76.137V74.0628C27.4762 73.5872 27.4905 73.0772 27.519 72.5329H27.4895L25.1285 76.8534C25.0757 76.9557 25.0493 77.0694 25.0517 77.1844V77.2947H23.2515V77.0226C23.585 76.9946 23.7901 76.9328 23.8668 76.8358C23.9435 76.7387 23.9819 76.493 23.9819 76.1002V72.9242C23.9819 72.5388 23.9435 72.302 23.8668 72.2137C23.7901 72.1255 23.585 72.0666 23.2515 72.0387V71.7665H25.6449V72.0387C25.3292 72.0681 25.1329 72.124 25.0547 72.2093C24.9765 72.2946 24.9455 72.5241 24.9455 72.8978V74.7616C24.9455 75.2941 24.9312 75.855 24.9027 76.4444H24.9189L27.2799 72.1578C27.3366 72.0697 27.3687 71.9682 27.3729 71.8636V71.7606H29.1643V72.0328C28.8367 72.0622 28.6331 72.1225 28.5534 72.2167C28.4737 72.3108 28.4339 72.5462 28.4339 72.9272V76.1326C28.4339 76.518 28.4722 76.7548 28.549 76.8431C28.6257 76.9314 28.8308 76.9902 29.1643 77.0167V77.2888L29.1746 77.2932ZM34.8514 71.765V72.046C34.6396 72.0555 34.4348 72.1249 34.2611 72.2461C34.0964 72.4403 33.9643 72.6599 33.8701 72.8963C33.7904 73.0728 33.5568 73.6034 33.1692 74.488C32.7816 75.3725 32.5302 75.9433 32.4151 76.2003C32.1761 76.7112 31.938 77.0598 31.7009 77.2462C31.4918 77.4226 31.2281 77.5218 30.9542 77.5271C30.797 77.5309 30.6424 77.4862 30.5116 77.3992C30.4536 77.3656 30.4045 77.3187 30.3683 77.2624C30.3321 77.2061 30.3099 77.1421 30.3035 77.0755C30.29 77.0031 30.298 76.9283 30.3266 76.8603C30.3552 76.7924 30.4031 76.7342 30.4643 76.6931C30.5331 76.6514 30.6129 76.6315 30.6933 76.636C30.7736 76.6405 30.8507 76.6691 30.9144 76.7181C31.0478 76.8227 31.2111 76.8824 31.3807 76.8887C31.4598 76.8836 31.5364 76.8592 31.6038 76.8176C31.6712 76.7761 31.7274 76.7186 31.7673 76.6504C31.8732 76.52 31.9343 76.3591 31.9414 76.1914C31.9202 75.9941 31.8595 75.803 31.7629 75.6295C31.1067 74.2565 30.6089 73.239 30.2696 72.5771C30.2053 72.4315 30.1095 72.3019 29.9892 72.1975C29.8234 72.1104 29.6407 72.0602 29.4535 72.0504V71.7695H31.6876V72.0504L31.4412 72.1019C31.3394 72.1299 31.2804 72.1725 31.2671 72.2299C31.2603 72.333 31.2855 72.4358 31.3394 72.5241L32.545 75.0764C33.0418 73.8789 33.3585 73.0905 33.4953 72.7109C33.5555 72.5721 33.5774 72.4197 33.5587 72.2696C33.5336 72.1872 33.4466 72.1343 33.3005 72.1122L33.0054 72.0519V71.7709L34.8514 71.765ZM42.082 77.2932H39.6693V77.0138C39.9984 76.9843 40.1961 76.924 40.2596 76.8299C40.323 76.7357 40.3584 76.4827 40.3525 76.0693L40.3363 72.7271H40.3023L38.3545 77.23H38.142L36.3506 72.8168H36.3255L36.2149 75.1058C36.1871 75.5702 36.1841 76.0357 36.206 76.5003C36.2016 76.5722 36.2152 76.6439 36.2456 76.7092C36.276 76.7744 36.3222 76.8311 36.3801 76.874C36.5691 76.9577 36.7725 77.0042 36.9792 77.0108V77.2903H34.9576V77.0108C35.1371 77.0054 35.3122 76.9548 35.4667 76.8637C35.5214 76.8202 35.5669 76.7664 35.6006 76.7053C35.6342 76.6442 35.6555 76.577 35.663 76.5077C35.7492 75.9837 35.8058 75.4552 35.8327 74.9249L35.9596 73.2067C35.993 72.7016 35.9719 72.3883 35.8961 72.2667C35.8194 72.146 35.601 72.0681 35.2291 72.0328V71.7606H36.8523L38.6009 75.6736L40.3717 71.7606H41.9846V72.0328C41.6334 72.0681 41.4224 72.1284 41.3515 72.2167C41.2807 72.3049 41.2482 72.5373 41.2541 72.9183L41.3397 76.0649C41.35 76.4783 41.3899 76.7313 41.4578 76.821C41.5256 76.9108 41.7322 76.9681 42.0775 77.0093V77.2888L42.082 77.2932ZM49.1281 75.7457L49.4085 75.856C49.2931 76.3182 49.134 76.7684 48.9333 77.2006C48.4185 77.328 47.8918 77.4019 47.3618 77.4212C46.8782 77.4295 46.3975 77.3461 45.9452 77.1756C45.569 77.0358 45.2313 76.8095 44.9594 76.5151C44.7226 76.2506 44.5356 75.9456 44.4075 75.6148C44.2839 75.2901 44.2209 74.9456 44.2216 74.5983C44.2077 74.1962 44.283 73.796 44.4422 73.4262C44.6014 73.0565 44.8405 72.7264 45.1424 72.4594C45.7563 71.9122 46.5585 71.6385 47.5492 71.6385C47.679 71.6385 47.8103 71.6385 47.9431 71.6547C48.076 71.6709 48.2043 71.6841 48.3253 71.7062L48.6323 71.765C48.7134 71.7827 48.8049 71.8018 48.9038 71.8254C49.0027 71.8489 49.0602 71.8621 49.0779 71.868C49.162 72.4005 49.2255 72.8521 49.2638 73.2199L48.9761 73.2802C48.7488 72.4182 48.2107 71.9872 47.3618 71.9872C47.0758 71.9755 46.7914 72.0345 46.534 72.159C46.2765 72.2835 46.0539 72.4696 45.8861 72.7006C45.5217 73.2042 45.3358 73.8144 45.3578 74.435C45.3578 75.2196 45.5546 75.8531 45.9481 76.3356C46.121 76.5672 46.3464 76.7546 46.606 76.8824C46.8656 77.0103 47.1519 77.0749 47.4414 77.0711C47.7894 77.0794 48.1292 76.9648 48.4006 76.7475C48.7115 76.4738 48.9605 76.1373 49.131 75.7604L49.1281 75.7457ZM55.5175 77.2932H53.071V77.0211C53.4044 76.9932 53.6081 76.9343 53.6819 76.8431C53.7556 76.7519 53.7925 76.5092 53.7925 76.1076V72.5226C53.8085 72.4031 53.7879 72.2816 53.7335 72.174C53.6291 72.1203 53.5106 72.0998 53.3941 72.1152H51.8565C51.6647 72.1152 51.5481 72.1358 51.5083 72.1784C51.4556 72.285 51.435 72.4046 51.4492 72.5226V76.1208C51.4492 76.518 51.4861 76.7607 51.5599 76.8563C51.6337 76.952 51.8344 77.0034 52.162 77.0343V77.3065H49.7257V77.0343C50.0651 77.0064 50.2732 76.9476 50.3499 76.8563C50.4266 76.7651 50.465 76.5224 50.465 76.1208V72.9242C50.4742 72.7298 50.4553 72.5351 50.4089 72.3461C50.3952 72.2976 50.3711 72.2526 50.3382 72.2142C50.3053 72.1759 50.2645 72.1451 50.2186 72.124C50.054 72.0709 49.8824 72.0422 49.7095 72.0387V71.7665H55.5161V72.0387C55.1767 72.0681 54.9686 72.1255 54.8919 72.2137C54.8152 72.302 54.7783 72.5432 54.7783 72.9404V76.1135C54.7699 76.3109 54.7868 76.5086 54.8284 76.7019C54.841 76.7515 54.8642 76.7977 54.8966 76.8373C54.929 76.877 54.9697 76.9091 55.0158 76.9314C55.1766 76.9878 55.3456 77.0176 55.5161 77.0196V77.2918L55.5175 77.2932ZM61.4747 77.2932H59.1712V77.0211C59.4265 76.9814 59.58 76.9299 59.6345 76.8637C59.6891 76.7975 59.6818 76.6754 59.6139 76.4945C59.5224 76.2218 59.3921 75.859 59.2228 75.4059H57.5333C57.3857 75.8251 57.2706 76.1517 57.2027 76.3841C57.1348 76.6166 57.1142 76.7651 57.1762 76.8475C57.2381 76.9299 57.4196 76.9946 57.7207 77.0211V77.2932H55.8437V77.0211C56.0509 77.013 56.2514 76.9451 56.4206 76.8255C56.5284 76.7298 56.6538 76.5004 56.794 76.137L58.5441 71.74L58.9203 71.64C59.9287 74.4232 60.4698 75.9144 60.5435 76.1135C60.6852 76.4871 60.8082 76.7249 60.9124 76.8269C61.0745 76.9516 61.2729 77.0202 61.4776 77.0226V77.2947L61.4747 77.2932ZM59.0886 74.9896L58.4098 73.0331H58.3921C58.2937 73.2871 58.1609 73.647 57.9937 74.1128C57.8264 74.5787 57.7187 74.8729 57.6705 74.9955L59.0886 74.9896ZM66.4564 71.6459H66.4652C66.8365 71.6409 67.205 71.711 67.5484 71.8519C67.8918 71.9928 68.2029 72.2016 68.4632 72.4657C68.7234 72.7298 68.9272 73.0437 69.0624 73.3885C69.1976 73.7333 69.2613 74.1018 69.2497 74.4718C69.2497 75.3613 68.9723 76.0757 68.4175 76.6151C68.1469 76.8801 67.8256 77.0881 67.4727 77.2268C67.1199 77.3656 66.7426 77.4322 66.3634 77.4227C65.987 77.4335 65.6125 77.3665 65.2633 77.226C64.9141 77.0855 64.5979 76.8745 64.3344 76.6063C64.0688 76.338 63.8604 76.019 63.7217 75.6683C63.583 75.3177 63.5168 74.9427 63.5273 74.5659C63.5177 73.8085 63.8015 73.0766 64.3197 72.5226C64.8499 71.944 65.5617 71.6547 66.4549 71.6547L66.4564 71.6459ZM66.3088 71.9872H66.2985C65.8391 71.9872 65.4539 72.201 65.1431 72.6286C64.8322 73.0561 64.6763 73.6392 64.6753 74.3776C64.6515 75.0559 64.8285 75.7261 65.1844 76.3047C65.5238 76.8235 65.9709 77.0829 66.5257 77.0829C66.7505 77.0819 66.9715 77.0251 67.1686 76.9174C67.3657 76.8098 67.5328 76.6548 67.6546 76.4665C67.9556 76.0546 68.1056 75.4691 68.1047 74.7101C68.1047 73.8657 67.9364 73.2008 67.6 72.7153C67.2635 72.2299 66.8297 71.9877 66.2985 71.9886L66.3088 71.9872ZM74.6668 73.1434L74.3879 73.1684C74.2905 72.7551 74.1783 72.4741 74.047 72.327C73.9694 72.2393 73.8662 72.1781 73.7519 72.1519C73.5574 72.115 73.3595 72.0997 73.1616 72.1063H72.7027V76.2003C72.7027 76.5518 72.7485 76.7696 72.8385 76.8549C72.9285 76.9402 73.1675 77.002 73.5527 77.024V77.2962H70.901V77.024C71.2743 76.9961 71.503 76.9402 71.5886 76.8549C71.6742 76.7696 71.7155 76.5518 71.7155 76.2003V72.1078H71.3422C71.1116 72.0985 70.8808 72.1168 70.6545 72.1622C70.5378 72.1919 70.4341 72.2592 70.3594 72.3535C70.2532 72.478 70.1459 72.7502 70.0377 73.1699H69.7426C69.7426 73.0404 69.7662 72.7801 69.7943 72.3917C69.8223 72.0034 69.8385 71.7253 69.8444 71.5547H70.0407C70.0843 71.6295 70.1489 71.6898 70.2266 71.7283C70.3217 71.7596 70.4218 71.7725 70.5217 71.7665H73.9157C74.0045 71.7681 74.0926 71.7499 74.1736 71.7133C74.2545 71.6766 74.3262 71.6224 74.3835 71.5547H74.5782C74.5782 71.9224 74.6063 72.4535 74.6623 73.1449L74.6668 73.1434ZM79.2235 75.856L79.5039 75.9075C79.4404 76.3761 79.3417 76.8393 79.2087 77.2932H74.9545V77.0211C75.3293 76.9932 75.558 76.9373 75.6422 76.8519C75.7263 76.7666 75.7705 76.5489 75.7705 76.1973V72.8816C75.7705 72.5123 75.7336 72.2932 75.6599 72.2049C75.5861 72.1166 75.3884 72.0681 75.0696 72.0387V71.7665H78.9889C78.9889 71.7783 79.0174 72.198 79.0745 73.0257L78.7793 73.0684C78.7329 72.8023 78.6254 72.5506 78.465 72.3329C78.3411 72.1799 78.046 72.1034 77.5797 72.1034H77.0794C76.9867 72.0921 76.8927 72.1069 76.8079 72.146C76.774 72.174 76.7563 72.2564 76.7563 72.3917V74.2585H77.41C77.7833 74.2585 78.0209 74.2246 78.1197 74.157C78.2186 74.0893 78.2953 73.9069 78.3529 73.6127H78.6333V75.297H78.3529C78.2953 75.0028 78.2186 74.8131 78.1197 74.7483C78.0209 74.6836 77.7862 74.6498 77.4188 74.6498H76.7563V76.165C76.7563 76.5548 76.8241 76.7887 76.9599 76.8622C77.0956 76.9358 77.3509 76.9549 77.7759 76.9549C78.2673 76.9549 78.5964 76.8622 78.7602 76.6739C78.9571 76.4288 79.1121 76.1529 79.2191 75.8575L79.2235 75.856ZM84.9593 77.2932H82.5422V77.0211C82.8698 76.9932 83.0705 76.9343 83.1442 76.8431C83.218 76.7519 83.2549 76.5121 83.2549 76.1208V72.5579C83.2665 72.4303 83.252 72.3017 83.2121 72.1799C83.1841 72.1372 83.0941 72.1152 82.9406 72.1152H82.0405C81.9519 72.1029 81.8618 72.1227 81.7867 72.1711C81.7427 72.2472 81.7246 72.3354 81.735 72.4226C81.735 74.6841 81.4606 76.212 80.9116 77.0064C80.7198 77.2903 80.5206 77.4315 80.3214 77.4315C80.1458 77.4327 79.9711 77.4069 79.8034 77.355V77.1682C80.191 76.9278 80.499 76.5788 80.6888 76.165C81.0902 75.3471 81.2909 74.1506 81.2909 72.5756C81.3011 72.5019 81.293 72.4269 81.2672 72.3571C81.2415 72.2874 81.1989 72.225 81.1433 72.1755C81.0444 72.1078 80.8319 72.0622 80.5029 72.0387V71.7665H84.9607V72.0387C84.6376 72.0681 84.4384 72.121 84.3616 72.2005C84.2849 72.2799 84.2465 72.4756 84.2465 72.7889V76.1238C84.2465 76.5151 84.2834 76.7548 84.3572 76.846C84.431 76.9373 84.6317 76.9931 84.9607 77.024V77.2962L84.9593 77.2932ZM87.1624 72.9316V73.9775C87.4914 73.9481 87.7851 73.9348 88.0478 73.9348C88.6705 73.9348 89.153 74.0707 89.4954 74.3423C89.6665 74.4812 89.8022 74.6585 89.8915 74.8597C89.9807 75.061 90.0209 75.2804 90.0089 75.5C90.0089 76.1581 89.7433 76.6396 89.212 76.9446C88.793 77.177 88.2125 77.2932 87.4708 77.2932H85.458V77.0211C85.793 76.9932 85.9966 76.9373 86.0704 76.8519C86.1442 76.7666 86.1796 76.5342 86.1796 76.1547V72.9183C86.1796 72.5388 86.1442 72.3049 86.0704 72.2167C85.9966 72.1284 85.7989 72.0696 85.4802 72.0416V71.7695H87.9002V72.0416C87.7659 72.0478 87.6323 72.0635 87.5003 72.0887C87.4168 72.1089 87.3413 72.1535 87.2834 72.2167C87.222 72.2864 87.1852 72.3742 87.1786 72.4667C87.1646 72.6227 87.1587 72.7794 87.1609 72.936L87.1624 72.9316ZM87.7733 76.9534H87.7822C87.9307 76.9545 88.0779 76.9257 88.2151 76.8689C88.3522 76.812 88.4765 76.7282 88.5805 76.6224C88.8057 76.4008 88.9189 76.0546 88.9199 75.5839C88.9199 74.7169 88.4954 74.2835 87.6464 74.2835C87.4845 74.2851 87.3229 74.2964 87.1624 74.3173V76.2003C87.1624 76.4945 87.2067 76.6945 87.2937 76.799C87.3573 76.8585 87.4332 76.9035 87.516 76.9306C87.5989 76.9578 87.6867 76.9666 87.7733 76.9564V76.9534Z" fill="url(#paint12_linear_1_13433)"/>
</g>
<defs>
<linearGradient id="paint0_linear_1_13433" x1="39.7744" y1="0" x2="39.7744" y2="36.4408" gradientUnits="userSpaceOnUse">
<stop stop-color="#BF9E77"/>
<stop offset="1" stop-color="#BD9D6F"/>
</linearGradient>
<linearGradient id="paint1_linear_1_13433" x1="48.8927" y1="12.9834" x2="48.8927" y2="36.2915" gradientUnits="userSpaceOnUse">
<stop stop-color="#BF9E77"/>
<stop offset="1" stop-color="#BD9D6F"/>
</linearGradient>
<linearGradient id="paint2_linear_1_13433" x1="41.9875" y1="36.8481" x2="41.9875" y2="41.5628" gradientUnits="userSpaceOnUse">
<stop stop-color="#BF9E77"/>
<stop offset="1" stop-color="#BD9D6F"/>
</linearGradient>
<linearGradient id="paint3_linear_1_13433" x1="41.7497" y1="41.5339" x2="41.7497" y2="44.5762" gradientUnits="userSpaceOnUse">
<stop stop-color="#BF9E77"/>
<stop offset="1" stop-color="#BD9D6F"/>
</linearGradient>
<linearGradient id="paint4_linear_1_13433" x1="18.3284" y1="86.1489" x2="18.3284" y2="93.9999" gradientUnits="userSpaceOnUse">
<stop stop-color="#BF9E77"/>
<stop offset="1" stop-color="#BD9D6F"/>
</linearGradient>
<linearGradient id="paint5_linear_1_13433" x1="45.0546" y1="68.0669" x2="45.0546" y2="69.2584" gradientUnits="userSpaceOnUse">
<stop stop-color="#BF9E77"/>
<stop offset="1" stop-color="#BD9D6F"/>
</linearGradient>
<linearGradient id="paint6_linear_1_13433" x1="45.0478" y1="47.8252" x2="45.0478" y2="66.5767" gradientUnits="userSpaceOnUse">
<stop stop-color="#BF9E77"/>
<stop offset="1" stop-color="#BD9D6F"/>
</linearGradient>
<linearGradient id="paint7_linear_1_13433" x1="31.9932" y1="86.1401" x2="31.9932" y2="93.9999" gradientUnits="userSpaceOnUse">
<stop stop-color="#BF9E77"/>
<stop offset="1" stop-color="#BD9D6F"/>
</linearGradient>
<linearGradient id="paint8_linear_1_13433" x1="45.6536" y1="86.1401" x2="45.6536" y2="93.9999" gradientUnits="userSpaceOnUse">
<stop stop-color="#BF9E77"/>
<stop offset="1" stop-color="#BD9D6F"/>
</linearGradient>
<linearGradient id="paint9_linear_1_13433" x1="59.3135" y1="86.1401" x2="59.3135" y2="93.9999" gradientUnits="userSpaceOnUse">
<stop stop-color="#BF9E77"/>
<stop offset="1" stop-color="#BD9D6F"/>
</linearGradient>
<linearGradient id="paint10_linear_1_13433" x1="72.9769" y1="86.1489" x2="72.9769" y2="93.9999" gradientUnits="userSpaceOnUse">
<stop stop-color="#BF9E77"/>
<stop offset="1" stop-color="#BD9D6F"/>
</linearGradient>
<linearGradient id="paint11_linear_1_13433" x1="45.0546" y1="79.5999" x2="45.0546" y2="80.7914" gradientUnits="userSpaceOnUse">
<stop stop-color="#BF9E77"/>
<stop offset="1" stop-color="#BD9D6F"/>
</linearGradient>
<linearGradient id="paint12_linear_1_13433" x1="45.0055" y1="71.5547" x2="45.0055" y2="77.5274" gradientUnits="userSpaceOnUse">
<stop stop-color="#BF9E77"/>
<stop offset="1" stop-color="#BD9D6F"/>
</linearGradient>
<clipPath id="clip0_1_13433">
<rect width="90" height="94" fill="white"/>
</clipPath>
</defs>
</svg>
