<svg width="67" height="71" viewBox="0 0 67 71" fill="none" xmlns="http://www.w3.org/2000/svg">
<g clip-path="url(#clip0_1_14272)">
<path fill-rule="evenodd" clip-rule="evenodd" d="M27.6314 0.5C32.5429 19.2324 29.255 22.4092 24.4688 27.6368C28.6354 26.388 30.4898 26.7834 32.7483 27.1635C37.9037 18.0833 32.0595 13.5798 27.6314 0.5Z" fill="url(#paint0_linear_1_14272)"/>
<path fill-rule="evenodd" clip-rule="evenodd" d="M32.6484 10.1685C37.6138 18.6879 36.2461 24.6351 34.4577 27.1481C36.0681 27.4603 38.5629 28.1132 39.7735 26.3254C40.984 24.5376 39.3692 18.6824 32.6484 10.1739V10.1685Z" fill="url(#paint1_linear_1_14272)"/>
<path fill-rule="evenodd" clip-rule="evenodd" d="M13.2812 30.5736C19.8131 28.3235 24.0369 27.3967 30.55 28.2578C37.0632 29.1188 39.8765 30.6152 49.2403 28.9008C43.0644 31.4631 38.6703 31.7096 33.137 31.2823C27.6038 30.8551 23.3888 28.5919 13.2812 30.5736Z" fill="url(#paint2_linear_1_14272)"/>
<path fill-rule="evenodd" clip-rule="evenodd" d="M20.1406 33.2073C24.1316 31.7482 26.6142 31.0635 30.5953 31.6255C34.5763 32.1874 36.2944 33.1536 42.0199 32.0417C38.2454 33.7036 35.5595 33.8624 32.1782 33.5863C28.797 33.3103 26.3187 31.9223 20.1428 33.2073H20.1406Z" fill="url(#paint3_linear_1_14272)"/>
<path fill-rule="evenodd" clip-rule="evenodd" d="M13.6426 64.6536L14.3688 66.8916L16.7317 66.8872L14.817 68.2653L15.5519 70.5L13.6426 69.1143L11.7334 70.5L12.4683 68.2653L10.5547 66.8872L12.9165 66.8916L13.6426 64.6536Z" fill="url(#paint4_linear_1_14272)"/>
<path fill-rule="evenodd" clip-rule="evenodd" d="M0.195557 51.188H66.8814V52.0753H0.195557V51.188Z" fill="url(#paint5_linear_1_14272)"/>
<path d="M7.53821 42.5101C8.91795 42.223 10.6141 41.4036 10.6141 39.4559C10.6141 38.47 10.1604 37.6101 9.41888 37.1182C8.67628 36.646 7.68761 36.4204 6.12331 36.4204H0.363755V37.0777C1.8885 37.2212 2.03241 37.345 2.03241 39.0878V47.0847C2.03241 48.8068 1.86763 48.947 0.21875 49.0741V49.75H5.20604C6.89557 49.75 8.39945 49.4838 9.45074 48.8889C10.6251 48.2536 11.3874 47.1877 11.3874 45.814C11.3874 43.8246 9.80116 42.8814 7.53491 42.5944V42.5122L7.53821 42.5101ZM4.40522 42.3052V38.3692C4.40522 37.8565 4.46784 37.5695 4.63261 37.426C4.77652 37.3022 5.14782 37.2003 5.62128 37.2003C7.06474 37.1982 8.05341 38.0822 8.05341 39.7834C8.05341 41.4847 7.14603 42.303 5.04456 42.303L4.40522 42.3052ZM4.40522 43.0841H5.00282C7.41957 43.0841 8.71253 44.0273 8.71253 46.0166C8.71253 48.087 7.33169 48.9284 5.99259 48.9481C4.79739 48.9689 4.40522 48.5384 4.40522 47.042V43.0841ZM41.331 49.7478V49.0905C39.7645 48.9667 39.5997 48.8232 39.5997 46.9171V38.8808C39.5997 37.3636 39.7645 37.2004 41.331 37.0766V36.4193H30.5116V37.0766C32.1199 37.1795 32.4285 37.426 32.4285 38.3692C32.4285 42.223 31.8101 45.3199 30.9653 47.0234C30.4292 48.1309 29.8734 48.787 28.8221 49.4432V49.8935C29.2298 50.0156 29.6531 50.0779 30.0788 50.0786C30.5534 50.0786 31.0268 49.7708 31.5223 49.0532C32.8614 47.1263 33.5205 43.0282 33.5205 38.0022C33.5205 37.4074 33.582 37.2639 34.262 37.2639H36.4469C37.1884 37.2639 37.2093 37.3252 37.2093 38.3298V46.9215C37.2093 48.8276 37.0445 48.9711 35.478 49.0949V49.7522L41.331 49.7478ZM52.8171 39.4756C52.715 38.4897 52.6326 36.8312 52.6117 36.4204H43.3391V37.0777C44.8429 37.1982 45.0077 37.3077 45.0077 39.1481V47.0004C45.0077 48.8254 44.8429 48.9722 43.2973 49.0927V49.75H49.3579V49.0927C47.5442 48.9689 47.4003 48.8254 47.4003 47.0004V38C47.4003 37.2617 47.442 37.2409 48.2242 37.2409H49.482C50.6563 37.2409 51.11 37.3636 51.4187 37.8357C51.7274 38.2454 51.8515 38.7581 52.1196 39.5994L52.8193 39.4756H52.8171ZM20.158 36.1334C15.6047 36.1334 13.0495 39.5786 13.0495 43.1662C13.0495 47.1033 15.9551 50.0556 19.9317 50.0556C23.7645 50.0556 26.9381 47.3695 26.9381 42.9406C26.9381 38.8808 23.8469 36.1334 20.1789 36.1334H20.158ZM19.7878 36.9539C22.2804 36.9539 24.1556 39.3321 24.1556 43.5157C24.1556 47.329 22.4045 49.2362 20.3228 49.2362C17.582 49.2362 15.831 46.3244 15.831 42.716C15.831 39.0451 17.6237 36.9539 19.767 36.9539H19.7878ZM66.8595 49.7478V49.0905C65.5413 48.9459 65.2733 48.7005 64.5933 46.8996C63.2542 43.3722 61.9568 39.6816 60.6573 36.1147L59.751 36.3601L55.5096 46.9598C54.8098 48.7235 54.5418 48.9316 53.2027 49.0927V49.75H57.7561V49.0927C56.2522 48.9284 56.1489 48.6611 56.4994 47.559C56.7465 46.7385 57.0354 45.9388 57.3024 45.2005H61.4032C61.7745 46.1864 62.1249 47.1482 62.3512 47.8296C62.661 48.706 62.516 48.9163 61.2801 49.1014V49.7587L66.8595 49.7478ZM61.0692 44.1916H57.6286C58.2054 42.6579 58.7612 41.0542 59.3797 39.4811H59.4214L61.0692 44.1916Z" fill="url(#paint6_linear_1_14272)"/>
<path fill-rule="evenodd" clip-rule="evenodd" d="M23.8156 64.6535C24.0573 65.3999 24.2993 66.1459 24.5417 66.8916H26.9047L24.9899 68.2653L25.7248 70.5L23.8156 69.1143L21.9064 70.5L22.6413 68.2653L20.7266 66.885H23.0895C23.3319 66.1394 23.5739 65.3933 23.8156 64.647V64.6535Z" fill="url(#paint7_linear_1_14272)"/>
<path fill-rule="evenodd" clip-rule="evenodd" d="M33.982 64.6535C34.2244 65.3999 34.4664 66.1459 34.7081 66.8916H37.071L35.1574 68.2653C35.4013 69.0102 35.6459 69.7551 35.8912 70.5L33.982 69.1143L32.0739 70.5C32.3177 69.7551 32.5623 69.0102 32.8077 68.2653L30.8984 66.885H33.2614L33.9864 64.647L33.982 64.6535Z" fill="url(#paint8_linear_1_14272)"/>
<path fill-rule="evenodd" clip-rule="evenodd" d="M44.1515 64.6535C44.3932 65.3999 44.6353 66.1459 44.8777 66.8916H47.2406L45.3259 68.2653L46.0564 70.5L44.1472 69.1143L42.2423 70.5L42.9805 68.2653L41.0625 66.885H43.4254C43.6671 66.1394 43.9091 65.3933 44.1515 64.647V64.6535Z" fill="url(#paint9_linear_1_14272)"/>
<path fill-rule="evenodd" clip-rule="evenodd" d="M54.3234 64.6533L55.0484 66.8913L57.4114 66.887L55.4977 68.2651L56.2316 70.4998L54.3234 69.114L52.4142 70.4998L53.148 68.2651L51.2344 66.887L53.5973 66.8913L54.3234 64.6533Z" fill="url(#paint10_linear_1_14272)"/>
<path fill-rule="evenodd" clip-rule="evenodd" d="M0.195557 59.7766H66.8814V60.6639H0.195557V59.7766Z" fill="url(#paint11_linear_1_14272)"/>
<path d="M4.32379 58.0599H2.50353V57.8572C2.7518 57.8364 2.9034 57.7926 2.95832 57.7247C3.01325 57.6568 3.04071 57.476 3.04071 57.1769V54.5062C3.052 54.4172 3.03671 54.3269 2.99677 54.2466C2.91867 54.2064 2.8301 54.1912 2.74301 54.2028H1.59945C1.45664 54.2028 1.36986 54.2181 1.3402 54.2499C1.3004 54.3291 1.2851 54.4183 1.29626 54.5062V57.1857C1.29626 57.4815 1.32372 57.6622 1.37865 57.7334C1.43357 57.8046 1.58297 57.843 1.82684 57.866V58.0687H0.0131823V57.866C0.265843 57.8452 0.420734 57.8014 0.477857 57.7334C0.534981 57.6655 0.562444 57.4848 0.562444 57.1857V54.8053C0.569457 54.6606 0.555771 54.5156 0.521798 54.3748C0.511583 54.3386 0.493622 54.3051 0.469157 54.2765C0.444691 54.248 0.414303 54.2251 0.380089 54.2093C0.257168 54.1698 0.129122 54.1484 0 54.1458V53.9431H4.32379V54.1458C4.07113 54.1677 3.91623 54.2104 3.85911 54.2762C3.80199 54.3419 3.77343 54.5215 3.77343 54.8173V57.1802C3.76743 57.3273 3.78035 57.4746 3.81187 57.6184C3.82079 57.6558 3.83781 57.6907 3.86172 57.7208C3.88563 57.7509 3.91586 57.7754 3.95029 57.7926C4.07041 57.8345 4.19654 57.8567 4.32379 57.8583V58.061V58.0599ZM4.71925 53.9431H6.40329C6.89689 53.9431 7.26307 54.0257 7.50181 54.1907C7.64584 54.2967 7.76133 54.4366 7.83799 54.598C7.91466 54.7593 7.95012 54.937 7.94122 55.1153C7.95049 55.2849 7.92246 55.4544 7.85907 55.6121C7.79569 55.7697 7.6985 55.9116 7.57432 56.0278C7.32036 56.2512 7.0019 56.3885 6.66474 56.42C6.5743 56.4302 6.4833 56.4346 6.3923 56.4331L5.9529 56.3236V57.2416C5.9529 57.5078 5.98365 57.6721 6.04737 57.7356C6.11108 57.7992 6.28135 57.8452 6.55928 57.8616V58.0643H4.68081V57.8616C4.92578 57.8408 5.07737 57.7981 5.13669 57.7323C5.19601 57.6666 5.22457 57.5034 5.22457 57.2416V54.7669C5.22457 54.5007 5.19821 54.3364 5.14548 54.2729C5.09275 54.2093 4.95104 54.1633 4.71925 54.1458V53.9431ZM5.9518 54.469V56.0848C6.07348 56.1364 6.20528 56.16 6.33738 56.1538C6.42348 56.1536 6.50891 56.1387 6.59004 56.11C6.68195 56.0746 6.76733 56.0243 6.8427 55.961C6.9423 55.8763 7.01802 55.7672 7.0624 55.6444C7.12019 55.4805 7.14773 55.3076 7.14369 55.1339C7.14369 54.8053 7.0635 54.5621 6.90092 54.4054C6.81994 54.3291 6.7245 54.2696 6.62019 54.2305C6.51588 54.1914 6.4048 54.1734 6.29344 54.1776C6.19545 54.166 6.0966 54.1905 6.01551 54.2466C5.9653 54.3113 5.94279 54.3932 5.9529 54.4744L5.9518 54.469ZM11.384 56.9885L11.5927 57.0269C11.5449 57.3757 11.4714 57.7206 11.373 58.0588H8.21146V57.8561C8.48938 57.8353 8.66075 57.7937 8.72337 57.7302C8.78599 57.6666 8.82004 57.5056 8.82004 57.2449V54.7735C8.82004 54.4985 8.79258 54.3353 8.73875 54.2696C8.68492 54.2039 8.53662 54.1677 8.29934 54.1458V53.9431H11.2192C11.2192 53.9519 11.2401 54.2645 11.2818 54.8809L11.0621 54.9126C11.0266 54.7148 10.9466 54.5275 10.8281 54.3649C10.7359 54.2554 10.514 54.194 10.169 54.194H9.79553C9.7265 54.1857 9.65653 54.1967 9.5934 54.2258C9.56813 54.2466 9.55605 54.3079 9.55605 54.4087V55.7989H10.0427C10.321 55.7989 10.4968 55.7737 10.57 55.7233C10.6436 55.6729 10.7018 55.537 10.7436 55.318H10.9523V56.5723H10.7436C10.7018 56.3532 10.6436 56.2118 10.57 56.1636C10.4964 56.1154 10.3228 56.0902 10.0493 56.0902H9.55166V57.2186C9.55166 57.5089 9.60219 57.6831 9.70325 57.7378C9.80432 57.7926 9.99436 57.8068 10.3096 57.8068C10.6765 57.8068 10.9204 57.7378 11.0435 57.5976C11.1896 57.4149 11.3047 57.2095 11.384 56.9896V56.9885ZM17.0062 58.0588H15.2112V57.8507C15.4562 57.8288 15.6034 57.7838 15.6507 57.7137C15.6979 57.6436 15.7243 57.4552 15.7199 57.1474L15.7078 54.6585H15.6825L14.2325 58.0117H14.0743L12.7407 54.7253H12.722L12.6396 56.4298C12.6189 56.7756 12.6167 57.1223 12.633 57.4683C12.6297 57.5218 12.6398 57.5753 12.6625 57.6238C12.6851 57.6724 12.7195 57.7146 12.7626 57.7466C12.9033 57.8089 13.0548 57.8435 13.2086 57.8485V58.0566H11.7037V57.8485C11.8376 57.8445 11.9683 57.8068 12.0838 57.7389C12.1243 57.7065 12.158 57.6663 12.1829 57.6208C12.2078 57.5753 12.2234 57.5254 12.2288 57.4738C12.2929 57.0836 12.3351 56.6901 12.3551 56.2951L12.4496 55.0156C12.4745 54.6395 12.4587 54.4062 12.4023 54.3156C12.3452 54.2258 12.1826 54.1677 11.9058 54.1414V53.9388H13.1142L14.417 56.8527L15.7352 53.9388H16.9359V54.1414C16.6745 54.1677 16.5174 54.2126 16.4658 54.2784C16.4141 54.3441 16.3889 54.5172 16.3922 54.8009L16.4559 57.1441C16.4647 57.4519 16.4932 57.6403 16.5438 57.7071C16.5943 57.774 16.7481 57.8167 17.0051 57.8474V58.0555L17.0062 58.0588ZM21.7189 58.0588H19.9052V57.8561C20.1579 57.8353 20.3128 57.7926 20.3699 57.7269C20.427 57.6611 20.4545 57.4848 20.4545 57.1978V55.6532C20.4545 55.299 20.4651 54.9192 20.4864 54.5139H20.4644L18.7067 57.7313C18.6674 57.8074 18.6478 57.8921 18.6496 57.9777V58.0599H17.3094V57.8572C17.5577 57.8364 17.7104 57.7904 17.7675 57.7181C17.8246 57.6458 17.8532 57.4629 17.8532 57.1704V54.8053C17.8532 54.5183 17.8246 54.3419 17.7675 54.2762C17.7104 54.2104 17.5577 54.1666 17.3094 54.1458V53.9431H19.0912V54.1458C18.8561 54.1677 18.71 54.2093 18.6518 54.2729C18.5936 54.3364 18.5705 54.5073 18.5705 54.7856V56.1735C18.5705 56.5701 18.5599 56.9878 18.5387 57.4267H18.5508L20.3084 54.2345C20.3506 54.1689 20.3745 54.0933 20.3776 54.0154V53.9388H21.7112V54.1414C21.4673 54.1633 21.3157 54.2082 21.2564 54.2784C21.1971 54.3485 21.1674 54.5237 21.1674 54.8075V57.1945C21.1674 57.4815 21.196 57.6579 21.2531 57.7236C21.3102 57.7893 21.4629 57.8331 21.7112 57.8528V58.0555L21.7189 58.0588ZM25.9449 53.9421V54.1513C25.7872 54.1584 25.6348 54.21 25.5055 54.3003C25.3829 54.4449 25.2846 54.6084 25.2144 54.7845C25.1551 54.9159 24.9811 55.311 24.6926 55.9697C24.4041 56.6285 24.2169 57.0535 24.1313 57.2449C23.9533 57.6254 23.7761 57.885 23.5996 58.0237C23.4439 58.1551 23.2476 58.229 23.0437 58.233C22.9266 58.2358 22.8116 58.2025 22.7142 58.1377C22.671 58.1127 22.6344 58.0778 22.6075 58.0358C22.5806 57.9939 22.564 57.9462 22.5593 57.8967C22.5492 57.8427 22.5552 57.787 22.5765 57.7364C22.5977 57.6858 22.6334 57.6425 22.679 57.6118C22.7302 57.5808 22.7896 57.566 22.8494 57.5694C22.9092 57.5727 22.9666 57.594 23.0141 57.6305C23.1134 57.7084 23.2349 57.7528 23.3612 57.7575C23.4201 57.7537 23.4771 57.7355 23.5273 57.7046C23.5775 57.6737 23.6193 57.6309 23.649 57.5801C23.7278 57.483 23.7733 57.3631 23.7786 57.2383C23.7628 57.0913 23.7176 56.949 23.6457 56.8198C23.1572 55.7974 22.7867 55.0397 22.534 54.5467C22.4861 54.4384 22.4149 54.3418 22.3253 54.2641C22.2019 54.1992 22.0658 54.1618 21.9265 54.1546V53.9453H23.5897V54.1546L23.4062 54.1929C23.3304 54.2137 23.2865 54.2455 23.2766 54.2882C23.2715 54.365 23.2903 54.4415 23.3304 54.5073L24.2279 56.4079C24.5978 55.5162 24.8336 54.9291 24.9354 54.6464C24.9802 54.543 24.9965 54.4296 24.9826 54.3178C24.9639 54.2564 24.8991 54.217 24.7904 54.2006L24.5707 54.1557V53.9464L25.9449 53.9421ZM31.3277 58.0588H29.5316V57.8507C29.7766 57.8288 29.9238 57.7838 29.971 57.7137C30.0182 57.6436 30.0446 57.4552 30.0402 57.1474L30.0281 54.6585H30.0029L28.5528 58.0117H28.3946L27.061 54.7253H27.0423L26.9599 56.4298C26.9393 56.7756 26.9371 57.1223 26.9534 57.4683C26.9501 57.5218 26.9602 57.5753 26.9828 57.6238C27.0054 57.6724 27.0399 57.7146 27.083 57.7466C27.2237 57.8089 27.3751 57.8435 27.529 57.8485V58.0566H26.024V57.8485C26.1576 57.8445 26.288 57.8068 26.403 57.7389C26.4437 57.7065 26.4776 57.6664 26.5026 57.6209C26.5277 57.5754 26.5435 57.5254 26.5491 57.4738C26.6133 57.0836 26.6555 56.6901 26.6754 56.2951L26.7699 55.0156C26.7948 54.6395 26.7791 54.4062 26.7227 54.3156C26.6655 54.2258 26.503 54.1677 26.2261 54.1414V53.9388H27.4345L28.7363 56.8527L30.0545 53.9388H31.2552V54.1414C30.9937 54.1677 30.8366 54.2126 30.7839 54.2784C30.7312 54.3441 30.707 54.5172 30.7114 54.8009L30.7751 57.1441C30.7828 57.4519 30.8125 57.6403 30.863 57.7071C30.9135 57.774 31.0673 57.8167 31.3244 57.8474V58.0555L31.3277 58.0588ZM36.5731 56.9064L36.7818 56.9885C36.6959 57.3327 36.5775 57.6679 36.4281 57.9898C36.0449 58.0847 35.6528 58.1397 35.2582 58.1541C34.8982 58.1602 34.5404 58.0982 34.2036 57.9712C33.9236 57.8671 33.6722 57.6986 33.4698 57.4793C33.2935 57.2823 33.1543 57.0552 33.0589 56.8089C32.9669 56.5671 32.92 56.3105 32.9205 56.0519C32.9102 55.7525 32.9663 55.4544 33.0848 55.1791C33.2032 54.9038 33.3812 54.6579 33.606 54.4591C34.063 54.0516 34.6602 53.8478 35.3977 53.8478C35.4944 53.8478 35.5921 53.8478 35.691 53.8599C35.7899 53.8719 35.8854 53.8818 35.9755 53.8982L36.204 53.9421C36.2644 53.9552 36.3325 53.9694 36.4061 53.987C36.4797 54.0045 36.5226 54.0143 36.5358 54.0187C36.5984 54.4153 36.6456 54.7516 36.6742 55.0255L36.46 55.0704C36.2908 54.4284 35.8902 54.1075 35.2582 54.1075C35.0453 54.0987 34.8336 54.1427 34.642 54.2354C34.4503 54.3281 34.2846 54.4667 34.1597 54.6388C33.8883 55.0138 33.75 55.4682 33.7664 55.9303C33.7664 56.5146 33.9129 56.9863 34.2058 57.3456C34.3345 57.5181 34.5023 57.6576 34.6956 57.7529C34.8888 57.8481 35.102 57.8962 35.3175 57.8934C35.5766 57.8995 35.8295 57.8142 36.0315 57.6524C36.263 57.4486 36.4484 57.198 36.5753 56.9173L36.5731 56.9064ZM41.3297 58.0588H39.5084V57.8561C39.7566 57.8353 39.9082 57.7915 39.9632 57.7236C40.0181 57.6557 40.0456 57.4749 40.0456 57.1759V54.5062C40.0574 54.4172 40.0421 54.3267 40.0016 54.2466C39.9239 54.2066 39.8357 54.1913 39.749 54.2028H38.6043C38.4615 54.2028 38.3747 54.2181 38.345 54.2499C38.3058 54.3293 38.2905 54.4183 38.3011 54.5062V57.1857C38.3011 57.4815 38.3286 57.6622 38.3835 57.7334C38.4384 57.8046 38.5878 57.843 38.8317 57.866V58.0687H37.018V57.866C37.2707 57.8452 37.4256 57.8014 37.4827 57.7334C37.5398 57.6655 37.5684 57.4848 37.5684 57.1857V54.8053C37.5752 54.6605 37.5611 54.5155 37.5266 54.3748C37.5164 54.3386 37.4985 54.3051 37.474 54.2765C37.4495 54.248 37.4191 54.2251 37.3849 54.2093C37.2624 54.1698 37.1347 54.1484 37.0059 54.1458V53.9431H41.3286V54.1458C41.076 54.1677 40.9211 54.2104 40.864 54.2762C40.8068 54.3419 40.7794 54.5215 40.7794 54.8173V57.1802C40.7732 57.3273 40.7857 57.4745 40.8167 57.6184C40.826 57.6553 40.8434 57.6898 40.8675 57.7193C40.8916 57.7488 40.9219 57.7727 40.9562 57.7893C41.0759 57.8313 41.2017 57.8536 41.3286 57.855V58.0577L41.3297 58.0588ZM45.7645 58.0588H44.0497V57.8561C44.2397 57.8266 44.354 57.7882 44.3946 57.7389C44.4352 57.6896 44.4298 57.5987 44.3792 57.464C44.3111 57.2609 44.2141 56.9907 44.0881 56.6533H42.8303C42.7205 56.9655 42.6348 57.2087 42.5842 57.3818C42.5337 57.5549 42.5183 57.6655 42.5645 57.7269C42.6106 57.7882 42.7457 57.8364 42.9698 57.8561V58.0588H41.5725V57.8561C41.7268 57.8501 41.876 57.7995 42.002 57.7104C42.0822 57.6392 42.1756 57.4683 42.2799 57.1978L43.5828 53.9234L43.8629 53.8489C44.6136 55.9215 45.0164 57.032 45.0713 57.1802C45.1768 57.4585 45.2683 57.6356 45.3459 57.7115C45.4666 57.8044 45.6143 57.8555 45.7667 57.8572V58.0599L45.7645 58.0588ZM43.9882 56.3433L43.4828 54.8863H43.4697C43.3964 55.0755 43.2975 55.3435 43.173 55.6904C43.0485 56.0373 42.9684 56.2564 42.9325 56.3477L43.9882 56.3433ZM49.4731 53.8533H49.4797C49.7561 53.8496 50.0304 53.9018 50.286 54.0068C50.5416 54.1117 50.7733 54.2672 50.967 54.4638C51.1607 54.6605 51.3125 54.8942 51.4131 55.151C51.5138 55.4077 51.5612 55.6822 51.5526 55.9577C51.5526 56.6201 51.3461 57.1521 50.933 57.5538C50.7315 57.7511 50.4924 57.906 50.2297 58.0093C49.967 58.1126 49.6862 58.1622 49.4039 58.1552C49.1237 58.1632 48.8448 58.1133 48.5849 58.0087C48.3249 57.9041 48.0895 57.747 47.8934 57.5472C47.6957 57.3474 47.5405 57.1099 47.4373 56.8487C47.334 56.5876 47.2848 56.3084 47.2925 56.0278C47.2854 55.4638 47.4967 54.9188 47.8824 54.5062C48.2771 54.0753 48.807 53.8599 49.472 53.8599L49.4731 53.8533ZM49.3632 54.1075H49.3555C49.0135 54.1075 48.7268 54.2667 48.4954 54.5851C48.264 54.9035 48.1479 55.3377 48.1472 55.8876C48.1294 56.3927 48.2612 56.8918 48.5261 57.3226C48.7788 57.709 49.1117 57.9021 49.5247 57.9021C49.692 57.9014 49.8565 57.8591 50.0033 57.7789C50.15 57.6988 50.2744 57.5834 50.3651 57.4431C50.5892 57.1364 50.7009 56.7004 50.7001 56.1352C50.7001 55.5064 50.5749 55.0112 50.3244 54.6497C50.074 54.2882 49.751 54.1078 49.3555 54.1086L49.3632 54.1075ZM55.5853 54.9685L55.3776 54.9871C55.3051 54.6793 55.2216 54.4701 55.1239 54.3605C55.0661 54.2952 54.9893 54.2496 54.9042 54.2302C54.7594 54.2026 54.612 54.1912 54.4648 54.1962H54.1231V57.2449C54.1231 57.5067 54.1572 57.6688 54.2242 57.7323C54.2912 57.7959 54.4692 57.8419 54.7559 57.8583V58.061H52.7818V57.8583C53.0598 57.8375 53.23 57.7959 53.2937 57.7323C53.3575 57.6688 53.3882 57.5067 53.3882 57.2449V54.1973H53.1103C52.9386 54.1904 52.7668 54.204 52.5984 54.2378C52.5114 54.26 52.4342 54.31 52.3787 54.3802C52.2996 54.473 52.2197 54.6756 52.1392 54.9882H51.9195C51.9195 54.8918 51.9371 54.6979 51.9579 54.4087C51.9788 54.1195 51.9909 53.9125 51.9953 53.7854H52.1414C52.1738 53.8411 52.222 53.886 52.2798 53.9147C52.3506 53.938 52.4251 53.9476 52.4995 53.9431H55.0261C55.0923 53.9443 55.1578 53.9308 55.2181 53.9035C55.2783 53.8762 55.3317 53.8359 55.3743 53.7854H55.5193C55.5193 54.0593 55.5402 54.4547 55.582 54.9696L55.5853 54.9685ZM58.9775 56.9885L59.1862 57.0269C59.1389 57.3758 59.0655 57.7208 58.9665 58.0588H55.7995V57.8561C56.0785 57.8353 56.2488 57.7937 56.3114 57.7302C56.374 57.6666 56.4069 57.5045 56.4069 57.2427V54.7735C56.4069 54.4985 56.3795 54.3353 56.3246 54.2696C56.2696 54.2039 56.1224 54.1677 55.8852 54.1458V53.9431H58.8028C58.8028 53.9519 58.8241 54.2645 58.8665 54.8809L58.6468 54.9126C58.6123 54.7145 58.5322 54.527 58.4129 54.3649C58.3206 54.251 58.1009 54.194 57.7537 54.194H57.3813C57.3123 54.1856 57.2423 54.1966 57.1792 54.2258C57.1539 54.2466 57.1408 54.3079 57.1408 54.4087V55.7989H57.6274C57.9053 55.7989 58.0822 55.7737 58.1558 55.7233C58.2294 55.6729 58.2865 55.537 58.3294 55.318H58.5381V56.5723H58.3294C58.2865 56.3532 58.2294 56.2118 58.1558 56.1636C58.0822 56.1154 57.9075 56.0902 57.634 56.0902H57.1408V57.2186C57.1408 57.5089 57.1913 57.6831 57.2924 57.7378C57.3934 57.7926 57.5835 57.8068 57.8998 57.8068C58.2657 57.8068 58.5106 57.7378 58.6326 57.5976C58.7791 57.415 58.8946 57.2096 58.9742 56.9896L58.9775 56.9885ZM63.2475 58.0588H61.4481V57.8561C61.6919 57.8353 61.8413 57.7915 61.8963 57.7236C61.9512 57.6557 61.9787 57.4771 61.9787 57.1857V54.5325C61.9873 54.4375 61.9765 54.3417 61.9468 54.251C61.9259 54.2192 61.8589 54.2028 61.7447 54.2028H61.0746C61.0086 54.1936 60.9416 54.2084 60.8856 54.2444C60.8529 54.3011 60.8394 54.3668 60.8472 54.4317C60.8472 56.1158 60.6429 57.2536 60.2342 57.8452C60.0914 58.0566 59.9431 58.1618 59.7948 58.1618C59.6641 58.1626 59.534 58.1434 59.4092 58.1048V57.9657C59.6978 57.7867 59.927 57.5268 60.0683 57.2186C60.3671 56.6095 60.5165 55.7185 60.5165 54.5456C60.5241 54.4908 60.5181 54.4349 60.4989 54.383C60.4798 54.331 60.4481 54.2846 60.4067 54.2477C60.3331 54.1973 60.1749 54.1633 59.9299 54.1458V53.9431H63.2485V54.1458C63.008 54.1677 62.8597 54.2072 62.8025 54.2663C62.7454 54.3255 62.7169 54.4712 62.7169 54.7045V57.1879C62.7169 57.4793 62.7443 57.6579 62.7993 57.7258C62.8542 57.7937 63.0036 57.8353 63.2485 57.8583V58.061L63.2475 58.0588ZM64.8875 54.8108V55.5896C65.1325 55.5677 65.3511 55.5579 65.5467 55.5579C66.0102 55.5579 66.3695 55.659 66.6243 55.8613C66.7517 55.9647 66.8528 56.0968 66.9192 56.2466C66.9856 56.3965 67.0156 56.5598 67.0066 56.7234C67.0066 57.2135 66.8089 57.572 66.4134 57.7992C66.1014 57.9723 65.6693 58.0588 65.1171 58.0588H63.6188V57.8561C63.8681 57.8353 64.0197 57.7937 64.0746 57.7302C64.1296 57.6666 64.1559 57.4935 64.1559 57.2109V54.8009C64.1559 54.5183 64.1296 54.3441 64.0746 54.2784C64.0197 54.2126 63.8725 54.1688 63.6352 54.148V53.9453H65.4368V54.148C65.3369 54.1526 65.2374 54.1643 65.1391 54.1831C65.077 54.1981 65.0208 54.2313 64.9776 54.2784C64.932 54.3303 64.9046 54.3957 64.8996 54.4646C64.8892 54.5808 64.8848 54.6974 64.8864 54.814L64.8875 54.8108ZM65.3423 57.8057H65.3489C65.4595 57.8065 65.5691 57.7851 65.6712 57.7428C65.7733 57.7004 65.8658 57.638 65.9432 57.5593C66.1109 57.3942 66.1952 57.1364 66.1959 56.7859C66.1959 56.1403 65.8799 55.8175 65.2479 55.8175C65.1274 55.8187 65.007 55.8271 64.8875 55.8427V57.2449C64.8875 57.464 64.9205 57.6129 64.9853 57.6907C65.0326 57.7351 65.0891 57.7685 65.1508 57.7888C65.2125 57.809 65.2779 57.8156 65.3423 57.8079V57.8057Z" fill="url(#paint12_linear_1_14272)"/>
</g>
<defs>
<linearGradient id="paint0_linear_1_14272" x1="29.6166" y1="0.5" x2="29.6166" y2="27.6368" gradientUnits="userSpaceOnUse">
<stop stop-color="#BF9E77"/>
<stop offset="1" stop-color="#BD9D6F"/>
</linearGradient>
<linearGradient id="paint1_linear_1_14272" x1="36.3955" y1="10.1685" x2="36.3955" y2="27.5256" gradientUnits="userSpaceOnUse">
<stop stop-color="#BF9E77"/>
<stop offset="1" stop-color="#BD9D6F"/>
</linearGradient>
<linearGradient id="paint2_linear_1_14272" x1="31.2608" y1="27.9399" x2="31.2608" y2="31.4509" gradientUnits="userSpaceOnUse">
<stop stop-color="#BF9E77"/>
<stop offset="1" stop-color="#BD9D6F"/>
</linearGradient>
<linearGradient id="paint3_linear_1_14272" x1="31.0803" y1="31.4297" x2="31.0803" y2="33.6952" gradientUnits="userSpaceOnUse">
<stop stop-color="#BF9E77"/>
<stop offset="1" stop-color="#BD9D6F"/>
</linearGradient>
<linearGradient id="paint4_linear_1_14272" x1="13.6432" y1="64.6536" x2="13.6432" y2="70.5" gradientUnits="userSpaceOnUse">
<stop stop-color="#BF9E77"/>
<stop offset="1" stop-color="#BD9D6F"/>
</linearGradient>
<linearGradient id="paint5_linear_1_14272" x1="33.5385" y1="51.188" x2="33.5385" y2="52.0753" gradientUnits="userSpaceOnUse">
<stop stop-color="#BF9E77"/>
<stop offset="1" stop-color="#BD9D6F"/>
</linearGradient>
<linearGradient id="paint6_linear_1_14272" x1="33.5391" y1="36.1147" x2="33.5391" y2="50.0786" gradientUnits="userSpaceOnUse">
<stop stop-color="#BF9E77"/>
<stop offset="1" stop-color="#BD9D6F"/>
</linearGradient>
<linearGradient id="paint7_linear_1_14272" x1="23.8156" y1="64.647" x2="23.8156" y2="70.5" gradientUnits="userSpaceOnUse">
<stop stop-color="#BF9E77"/>
<stop offset="1" stop-color="#BD9D6F"/>
</linearGradient>
<linearGradient id="paint8_linear_1_14272" x1="33.9847" y1="64.647" x2="33.9847" y2="70.5" gradientUnits="userSpaceOnUse">
<stop stop-color="#BF9E77"/>
<stop offset="1" stop-color="#BD9D6F"/>
</linearGradient>
<linearGradient id="paint9_linear_1_14272" x1="44.1515" y1="64.647" x2="44.1515" y2="70.5" gradientUnits="userSpaceOnUse">
<stop stop-color="#BF9E77"/>
<stop offset="1" stop-color="#BD9D6F"/>
</linearGradient>
<linearGradient id="paint10_linear_1_14272" x1="54.3229" y1="64.6533" x2="54.3229" y2="70.4998" gradientUnits="userSpaceOnUse">
<stop stop-color="#BF9E77"/>
<stop offset="1" stop-color="#BD9D6F"/>
</linearGradient>
<linearGradient id="paint11_linear_1_14272" x1="33.5385" y1="59.7766" x2="33.5385" y2="60.6639" gradientUnits="userSpaceOnUse">
<stop stop-color="#BF9E77"/>
<stop offset="1" stop-color="#BD9D6F"/>
</linearGradient>
<linearGradient id="paint12_linear_1_14272" x1="33.5041" y1="53.7854" x2="33.5041" y2="58.2331" gradientUnits="userSpaceOnUse">
<stop stop-color="#BF9E77"/>
<stop offset="1" stop-color="#BD9D6F"/>
</linearGradient>
<clipPath id="clip0_1_14272">
<rect width="67" height="70" fill="white" transform="translate(0 0.5)"/>
</clipPath>
</defs>
</svg>
