<svg width="102" height="107" viewBox="0 0 102 107" fill="none" xmlns="http://www.w3.org/2000/svg">
<g clip-path="url(#clip0_1_15598)">
<path fill-rule="evenodd" clip-rule="evenodd" d="M42.0648 0C49.542 28.5595 44.5366 33.4029 37.25 41.3728C43.5933 39.4689 46.4163 40.0718 49.8547 40.6513C57.7032 26.8075 48.8061 19.9415 42.0648 0Z" fill="url(#paint0_linear_1_15598)"/>
<path fill-rule="evenodd" clip-rule="evenodd" d="M49.7031 14.7402C57.2623 27.7289 55.1802 36.7962 52.4575 40.6275C54.9092 41.1035 58.7072 42.0989 60.5502 39.3732C62.3931 36.6475 59.9347 27.7206 49.7031 14.7486V14.7402Z" fill="url(#paint1_linear_1_15598)"/>
<path fill-rule="evenodd" clip-rule="evenodd" d="M20.2188 45.8512C30.1627 42.4207 36.593 41.0078 46.5085 42.3205C56.4241 43.6332 60.707 45.9147 74.9624 43.3009C65.5603 47.2073 58.8707 47.5831 50.447 46.9318C42.0232 46.2804 35.6063 42.8299 20.2188 45.8512Z" fill="url(#paint2_linear_1_15598)"/>
<path fill-rule="evenodd" clip-rule="evenodd" d="M30.6641 49.8664C36.7398 47.6418 40.5194 46.598 46.5801 47.4547C52.6408 48.3115 55.2564 49.7846 63.9728 48.0894C58.2265 50.623 54.1376 50.8652 48.99 50.4443C43.8424 50.0234 40.0695 47.9074 30.6674 49.8664H30.6641Z" fill="url(#paint3_linear_1_15598)"/>
<path fill-rule="evenodd" clip-rule="evenodd" d="M20.7636 97.8086L21.869 101.221L25.4663 101.214L22.5513 103.315L23.6701 106.722L20.7636 104.609L17.857 106.722L18.9758 103.315L16.0625 101.214L19.6581 101.221L20.7636 97.8086Z" fill="url(#paint4_linear_1_15598)"/>
<path fill-rule="evenodd" clip-rule="evenodd" d="M0.296875 77.2793H101.819V78.6321H0.296875V77.2793Z" fill="url(#paint5_linear_1_15598)"/>
<path d="M11.4712 64.0491C13.5717 63.6116 16.1538 62.3623 16.1538 59.3928C16.1538 57.8896 15.4631 56.5786 14.3343 55.8287C13.2038 55.1088 11.6986 54.7648 9.31716 54.7648H0.548879V55.7669C2.87014 55.9857 3.08922 56.1744 3.08922 58.8316V71.0237C3.08922 73.6491 2.83836 73.8629 0.328125 74.0566V75.0871H7.92072C10.4928 75.0871 12.7823 74.6813 14.3828 73.7744C16.1706 72.8057 17.3312 71.1806 17.3312 69.0863C17.3312 66.0533 14.9163 64.6153 11.4662 64.1777V64.0525L11.4712 64.0491ZM6.70156 63.7368V57.736C6.70156 56.9544 6.79688 56.5168 7.04774 56.298C7.26682 56.1093 7.83209 55.9539 8.55288 55.9539C10.7504 55.9506 12.2555 57.2984 12.2555 59.8921C12.2555 62.4859 10.8741 63.7335 7.67488 63.7335L6.70156 63.7368ZM6.70156 64.9243H7.61133C11.2906 64.9243 13.259 66.3623 13.259 69.3953C13.259 72.5518 11.1568 73.8345 9.11814 73.8646C7.2986 73.8963 6.70156 73.2399 6.70156 70.9585V64.9243ZM62.9169 75.0838V74.0817C60.5321 73.893 60.2812 73.6742 60.2812 70.7681V58.5159C60.2812 56.2028 60.5321 55.9539 62.9169 55.7652V54.7631H46.4456V55.7652C48.894 55.9222 49.3639 56.298 49.3639 57.736C49.3639 63.6116 48.4224 68.3331 47.1363 70.9301C46.3202 72.6186 45.474 73.6191 43.8735 74.6195V75.3059C44.4942 75.492 45.1386 75.5871 45.7867 75.5882C46.5092 75.5882 47.23 75.1189 47.9842 74.0249C50.0228 71.0871 51.0263 64.8391 51.0263 57.1765C51.0263 56.2696 51.1199 56.0508 52.1551 56.0508H55.4815C56.6103 56.0508 56.6421 56.1443 56.6421 57.6759V70.7748C56.6421 73.6809 56.3913 73.8996 54.0064 74.0884V75.0905L62.9169 75.0838ZM80.4033 59.4228C80.2477 57.9197 80.1223 55.3911 80.0905 54.7648H65.974V55.7669C68.2635 55.9506 68.5143 56.1176 68.5143 58.9235V70.8951C68.5143 73.6775 68.2635 73.9013 65.9104 74.085V75.0871H75.1369V74.085C72.3758 73.8963 72.1568 73.6775 72.1568 70.8951V57.1732C72.1568 56.0475 72.2203 56.0157 73.411 56.0157H75.3259C77.1137 56.0157 77.8044 56.2028 78.2743 56.9226C78.7443 57.5473 78.9332 58.3289 79.3413 59.6116L80.4066 59.4228H80.4033ZM30.6835 54.3272C23.7515 54.3272 19.8615 59.5798 19.8615 65.0496C19.8615 71.0521 24.2849 75.5531 30.339 75.5531C36.1739 75.5531 41.0054 71.4579 41.0054 64.7055C41.0054 58.5159 36.2993 54.3272 30.7152 54.3272H30.6835ZM30.1199 55.5782C33.9145 55.5782 36.7692 59.204 36.7692 65.5823C36.7692 71.3961 34.1035 74.3038 30.9343 74.3038C26.7617 74.3038 24.096 69.8646 24.096 64.3631C24.096 58.7665 26.8253 55.5782 30.0881 55.5782H30.1199ZM101.781 75.0838V74.0817C99.7744 73.8612 99.3664 73.4871 98.3312 70.7414C96.2925 65.3635 94.3174 59.7368 92.339 54.2988L90.9593 54.6729L84.5023 70.8333C83.437 73.5222 83.0289 73.8395 80.9903 74.085V75.0871H87.9223V74.085C85.6328 73.8345 85.4756 73.427 86.0091 71.7468C86.3854 70.4959 86.8252 69.2767 87.2316 68.151H93.4746C94.0398 69.6541 94.5733 71.1205 94.9178 72.1594C95.3894 73.4955 95.1687 73.8161 93.2873 74.0984V75.1005L101.781 75.0838ZM92.9662 66.6128H87.7283C88.6063 64.2746 89.4525 61.8295 90.394 59.4312H90.4576L92.9662 66.6128Z" fill="url(#paint6_linear_1_15598)"/>
<path fill-rule="evenodd" clip-rule="evenodd" d="M36.2496 97.8086C36.6175 98.9465 36.986 100.084 37.355 101.221H40.9523L38.0374 103.315L39.1562 106.722L36.2496 104.609L33.343 106.722L34.4618 103.315L31.5469 101.211H35.1442C35.5132 100.074 35.8817 98.9365 36.2496 97.7986V97.8086Z" fill="url(#paint7_linear_1_15598)"/>
<path fill-rule="evenodd" clip-rule="evenodd" d="M51.7412 97.8086C52.1103 98.9465 52.4788 100.084 52.8467 101.221H56.444L53.5307 103.315C53.902 104.451 54.2743 105.586 54.6478 106.722L51.7412 104.609L48.8363 106.722C49.2076 105.586 49.58 104.451 49.9535 103.315L47.0469 101.211H50.6442L51.7479 97.7986L51.7412 97.8086Z" fill="url(#paint8_linear_1_15598)"/>
<path fill-rule="evenodd" clip-rule="evenodd" d="M67.2184 97.8086C67.5863 98.9465 67.9548 100.084 68.3238 101.221H71.9211L69.0061 103.315L70.1183 106.722L67.2117 104.609L64.3118 106.722L65.4356 103.315L62.5156 101.211H66.1129C66.4808 100.074 66.8493 98.9365 67.2184 97.7986V97.8086Z" fill="url(#paint9_linear_1_15598)"/>
<path fill-rule="evenodd" clip-rule="evenodd" d="M82.7027 97.8086L83.8065 101.221L87.4038 101.214L84.4905 103.315L85.6076 106.722L82.7027 104.609L79.7961 106.722L80.9133 103.315L78 101.214L81.5973 101.221L82.7027 97.8086Z" fill="url(#paint10_linear_1_15598)"/>
<path fill-rule="evenodd" clip-rule="evenodd" d="M0.296875 90.3733H101.819V91.7261H0.296875V90.3733Z" fill="url(#paint11_linear_1_15598)"/>
<path d="M6.58248 87.7552H3.81135V87.4462C4.18931 87.4145 4.42009 87.3477 4.50371 87.2441C4.58733 87.1406 4.62914 86.865 4.62914 86.409V82.3372C4.64633 82.2016 4.62306 82.0639 4.56225 81.9414C4.44335 81.8802 4.30851 81.8569 4.17593 81.8746H2.43498C2.21757 81.8746 2.08546 81.898 2.0403 81.9464C1.97971 82.0672 1.95642 82.2032 1.97341 82.3372V86.4224C1.97341 86.8733 2.01522 87.1489 2.09883 87.2575C2.18245 87.366 2.4099 87.4245 2.78116 87.4596V87.7685H0.0200685V87.4596C0.404715 87.4278 0.640521 87.361 0.727484 87.2575C0.814448 87.1539 0.856258 86.8784 0.856258 86.4224V82.7932C0.866934 82.5726 0.846099 82.3516 0.79438 82.1368C0.778827 82.0817 0.751485 82.0306 0.714238 81.9871C0.676992 81.9435 0.630729 81.9086 0.578643 81.8846C0.39151 81.8244 0.196573 81.7918 0 81.7878V81.4788H6.58248V81.7878C6.19783 81.8212 5.96203 81.8863 5.87506 81.9865C5.7881 82.0867 5.74462 82.3606 5.74462 82.8116V86.4141C5.73549 86.6383 5.75516 86.8628 5.80315 87.0821C5.81673 87.1391 5.84263 87.1923 5.87903 87.2382C5.91544 87.2841 5.96146 87.3215 6.01387 87.3477C6.19674 87.4115 6.38877 87.4454 6.58248 87.4479V87.7569V87.7552ZM7.18454 81.4788H9.74829C10.4997 81.4788 11.0572 81.6046 11.4207 81.8562C11.6399 82.0179 11.8157 82.2312 11.9325 82.4771C12.0492 82.723 12.1032 82.994 12.0896 83.2658C12.1037 83.5244 12.0611 83.7829 11.9646 84.0232C11.8681 84.2635 11.7201 84.4799 11.531 84.6571C11.1444 84.9976 10.6596 85.207 10.1463 85.255C10.0086 85.2705 9.87011 85.2772 9.73157 85.275L9.06262 85.108V86.5076C9.06262 86.9134 9.10944 87.1639 9.20644 87.2608C9.30344 87.3577 9.56266 87.4278 9.98577 87.4529V87.7619H7.126V87.4529C7.49894 87.4212 7.72973 87.356 7.82004 87.2558C7.91035 87.1556 7.95383 86.9067 7.95383 86.5076V82.7347C7.95383 82.3289 7.91369 82.0784 7.83342 81.9815C7.75314 81.8846 7.53741 81.8145 7.18454 81.7878V81.4788ZM9.06094 82.2804V84.7439C9.24619 84.8226 9.44685 84.8586 9.64795 84.8491C9.77903 84.8488 9.90909 84.8262 10.0326 84.7823C10.1725 84.7284 10.3025 84.6516 10.4172 84.5552C10.5689 84.4261 10.6842 84.2597 10.7517 84.0725C10.8397 83.8227 10.8816 83.559 10.8755 83.2942C10.8755 82.7932 10.7534 82.4224 10.5059 82.1836C10.3826 82.0672 10.2373 81.9765 10.0785 81.9169C9.91971 81.8572 9.75059 81.8298 9.58105 81.8362C9.43188 81.8185 9.28139 81.8559 9.15794 81.9414C9.0815 82.0401 9.04723 82.165 9.06262 82.2888L9.06094 82.2804ZM17.3309 86.1218L17.6486 86.1802C17.5758 86.7121 17.464 87.238 17.3141 87.7535H12.501V87.4445C12.9241 87.4128 13.185 87.3493 13.2804 87.2525C13.3757 87.1556 13.4275 86.9101 13.4275 86.5126V82.7447C13.4275 82.3255 13.3857 82.0767 13.3038 81.9765C13.2218 81.8763 12.996 81.8212 12.6348 81.7878V81.4788H17.08C17.08 81.4921 17.1118 81.9687 17.1753 82.9084L16.8408 82.9569C16.7868 82.6552 16.665 82.3697 16.4846 82.1218C16.3442 81.9548 16.0063 81.8612 15.4812 81.8612H14.9126C14.8075 81.8486 14.701 81.8654 14.6049 81.9097C14.5664 81.9414 14.548 82.0349 14.548 82.1886V84.308H15.2889C15.7125 84.308 15.9801 84.2696 16.0916 84.1928C16.2037 84.1159 16.2923 83.9088 16.3559 83.5748H16.6736V85.4871H16.3559C16.2923 85.1531 16.2037 84.9376 16.0916 84.8642C15.9796 84.7907 15.7153 84.7523 15.2989 84.7523H14.5413V86.4725C14.5413 86.9151 14.6183 87.1807 14.7721 87.2642C14.926 87.3477 15.2153 87.3694 15.6953 87.3694C16.2538 87.3694 16.6251 87.2642 16.8124 87.0504C17.035 86.7719 17.2101 86.4587 17.3309 86.1234V86.1218ZM25.8901 87.7535H23.1574V87.4362C23.5304 87.4028 23.7545 87.3343 23.8264 87.2274C23.8983 87.1205 23.9384 86.8333 23.9317 86.3639L23.9133 82.5694H23.8749L21.6673 87.6817H21.4265L19.3962 82.6713H19.3678L19.2424 85.27C19.2109 85.7972 19.2075 86.3257 19.2323 86.8533C19.2273 86.9348 19.2427 87.0163 19.2772 87.0904C19.3116 87.1645 19.3641 87.2288 19.4297 87.2775C19.6439 87.3726 19.8744 87.4253 20.1087 87.4328V87.7502H17.8175V87.4328C18.0214 87.4267 18.2204 87.3693 18.3962 87.2658C18.4579 87.2164 18.5092 87.1552 18.5471 87.0858C18.5849 87.0164 18.6087 86.9403 18.6169 86.8617C18.7146 86.2667 18.7788 85.6667 18.8092 85.0646L18.9531 83.1139C18.991 82.5404 18.967 82.1847 18.8811 82.0466C18.7942 81.9097 18.5467 81.8212 18.1252 81.7811V81.4721H19.9648L21.9483 85.9147L23.9551 81.4721H25.7831V81.7811C25.385 81.8212 25.1459 81.8896 25.0673 81.9898C24.9887 82.0901 24.9502 82.3539 24.9552 82.7865L25.0522 86.3589C25.0656 86.8283 25.1091 87.1155 25.186 87.2174C25.2629 87.3193 25.4971 87.3844 25.8884 87.4312V87.7485L25.8901 87.7535ZM33.0646 87.7535H30.3035V87.4445C30.6881 87.4128 30.9239 87.3477 31.0109 87.2475C31.0979 87.1473 31.1397 86.8784 31.1397 86.4408V84.0859C31.1397 83.5459 31.1558 82.9669 31.1882 82.3489H31.1547L28.4789 87.2541C28.4191 87.3702 28.3892 87.4994 28.392 87.6299V87.7552H26.3517V87.4462C26.7296 87.4145 26.9621 87.3443 27.049 87.2341C27.136 87.1239 27.1795 86.845 27.1795 86.399V82.7932C27.1795 82.3556 27.136 82.0867 27.049 81.9865C26.9621 81.8863 26.7296 81.8195 26.3517 81.7878V81.4788H29.0643V81.7878C28.7064 81.8212 28.4839 81.8846 28.3953 81.9815C28.3067 82.0784 28.2715 82.3389 28.2715 82.7631V84.8792C28.2715 85.4838 28.2554 86.1207 28.2231 86.7898H28.2414L30.9173 81.923C30.9815 81.823 31.0179 81.7077 31.0226 81.589V81.4721H33.0529V81.7811C32.6816 81.8145 32.4508 81.883 32.3605 81.9898C32.2702 82.0967 32.2251 82.364 32.2251 82.7965V86.4358C32.2251 86.8733 32.2685 87.1422 32.3555 87.2424C32.4425 87.3427 32.6749 87.4095 33.0529 87.4395V87.7485L33.0646 87.7535ZM39.4982 81.4771V81.7961C39.2582 81.8069 39.0262 81.8857 38.8293 82.0232C38.6426 82.2438 38.4929 82.4931 38.3861 82.7615C38.2958 82.9619 38.031 83.5642 37.5917 84.5685C37.1524 85.5729 36.8676 86.2209 36.7371 86.5126C36.4662 87.0927 36.1964 87.4885 35.9277 87.7001C35.6907 87.9003 35.3919 88.013 35.0815 88.0191C34.9032 88.0233 34.728 87.9726 34.5798 87.8738C34.514 87.8356 34.4584 87.7824 34.4174 87.7185C34.3764 87.6546 34.3512 87.5819 34.344 87.5063C34.3287 87.4241 34.3378 87.3392 34.3702 87.262C34.4025 87.1849 34.4568 87.1189 34.5262 87.0721C34.6042 87.0248 34.6946 87.0023 34.7857 87.0073C34.8767 87.0124 34.9641 87.0449 35.0363 87.1005C35.1875 87.2192 35.3726 87.2871 35.5648 87.2942C35.6544 87.2884 35.7413 87.2607 35.8177 87.2135C35.8941 87.1663 35.9577 87.1011 36.003 87.0237C36.123 86.8756 36.1922 86.6929 36.2003 86.5026C36.1763 86.2785 36.1075 86.0616 35.9979 85.8646C35.2543 84.3058 34.6901 83.1506 34.3055 82.399C34.2326 82.2338 34.1241 82.0866 33.9877 81.9681C33.7999 81.8692 33.5928 81.8122 33.3807 81.8011V81.4821H35.9126V81.8011L35.6334 81.8596C35.518 81.8913 35.4511 81.9397 35.436 82.0049C35.4283 82.122 35.4569 82.2386 35.518 82.3389L36.8843 85.2366C37.4473 83.8771 37.8063 82.9819 37.9613 82.551C38.0296 82.3934 38.0544 82.2204 38.0332 82.05C38.0048 81.9564 37.9061 81.8963 37.7406 81.8713L37.4061 81.8028V81.4838L39.4982 81.4771ZM47.6929 87.7535H44.9585V87.4362C45.3315 87.4028 45.5556 87.3343 45.6275 87.2274C45.6994 87.1205 45.7395 86.8333 45.7329 86.3639L45.7145 82.5694H45.676L43.4685 87.6817H43.2276L41.1974 82.6713H41.1689L41.0435 85.27C41.012 85.7972 41.0087 86.3257 41.0335 86.8533C41.0284 86.9348 41.0438 87.0163 41.0783 87.0904C41.1128 87.1645 41.1652 87.2288 41.2308 87.2775C41.445 87.3726 41.6755 87.4253 41.9098 87.4328V87.7502H39.6186V87.4328C39.822 87.4267 40.0205 87.3693 40.1956 87.2658C40.2576 87.2165 40.3091 87.1553 40.3473 87.086C40.3855 87.0166 40.4095 86.9404 40.418 86.8617C40.5157 86.2667 40.58 85.6667 40.6104 85.0646L40.7542 83.1139C40.7921 82.5404 40.7681 82.1847 40.6823 82.0466C40.5953 81.9097 40.3478 81.8212 39.9263 81.7811V81.4721H41.766L43.7477 85.9147L45.7546 81.4721H47.5825V81.7811C47.1845 81.8212 46.9453 81.8896 46.8651 81.9898C46.7848 82.0901 46.748 82.3539 46.7547 82.7865L46.8517 86.3589C46.8634 86.8283 46.9085 87.1155 46.9855 87.2174C47.0624 87.3193 47.2965 87.3844 47.6879 87.4312V87.7485L47.6929 87.7535ZM55.6785 85.9965L55.9962 86.1218C55.8655 86.6465 55.6851 87.1576 55.4577 87.6483C54.8743 87.793 54.2774 87.8769 53.6766 87.8988C53.1286 87.9082 52.5838 87.8135 52.0712 87.6199C51.6449 87.4612 51.2621 87.2043 50.954 86.87C50.6856 86.5697 50.4737 86.2234 50.3285 85.8479C50.1884 85.4792 50.117 85.0881 50.1178 84.6938C50.1021 84.2373 50.1874 83.7829 50.3678 83.3631C50.5482 82.9434 50.8192 82.5685 51.1614 82.2654C51.8571 81.6441 52.7663 81.3335 53.889 81.3335C54.0362 81.3335 54.185 81.3335 54.3356 81.3518C54.4861 81.3702 54.6316 81.3853 54.7687 81.4103L55.1166 81.4771C55.2085 81.4972 55.3122 81.5189 55.4243 81.5456C55.5363 81.5723 55.6016 81.5873 55.6216 81.594C55.7169 82.1986 55.7889 82.7113 55.8323 83.1289L55.5062 83.1974C55.2487 82.2187 54.6388 81.7293 53.6766 81.7293C53.3526 81.716 53.0303 81.783 52.7385 81.9244C52.4467 82.0657 52.1944 82.277 52.0043 82.5393C51.5912 83.111 51.3806 83.8039 51.4056 84.5084C51.4056 85.3992 51.6285 86.1184 52.0745 86.6662C52.2704 86.9291 52.526 87.1419 52.8202 87.2871C53.1144 87.4322 53.4388 87.5057 53.767 87.5013C54.1614 87.5107 54.5464 87.3806 54.854 87.1339C55.2064 86.8231 55.4885 86.4411 55.6818 86.0132L55.6785 85.9965ZM62.9199 87.7535H60.1471V87.4445C60.525 87.4128 60.7558 87.346 60.8394 87.2424C60.9231 87.1389 60.9649 86.8633 60.9649 86.4074V82.3372C60.983 82.2016 60.9597 82.0636 60.898 81.9414C60.7796 81.8804 60.6454 81.8571 60.5133 81.8746H58.7707C58.5533 81.8746 58.4212 81.898 58.376 81.9464C58.3163 82.0675 58.293 82.2032 58.3091 82.3372V86.4224C58.3091 86.8733 58.3509 87.1489 58.4346 87.2575C58.5182 87.366 58.7456 87.4245 59.1169 87.4596V87.7685H56.3558V87.4596C56.7404 87.4278 56.9762 87.361 57.0632 87.2575C57.1502 87.1539 57.1937 86.8784 57.1937 86.4224V82.7932C57.204 82.5725 57.1826 82.3514 57.1301 82.1368C57.1146 82.0817 57.0872 82.0306 57.05 81.9871C57.0127 81.9435 56.9665 81.9086 56.9144 81.8846C56.7278 81.8244 56.5334 81.7917 56.3374 81.7878V81.4788H62.9182V81.7878C62.5336 81.8212 62.2978 81.8863 62.2108 81.9865C62.1238 82.0867 62.082 82.3606 62.082 82.8116V86.4141C62.0726 86.6382 62.0917 86.8627 62.1389 87.0821C62.1531 87.1384 62.1795 87.1909 62.2162 87.2359C62.2528 87.2809 62.299 87.3173 62.3513 87.3427C62.5335 87.4067 62.725 87.4406 62.9182 87.4429V87.7518L62.9199 87.7535ZM69.6713 87.7535H67.0607V87.4445C67.35 87.3994 67.5239 87.341 67.5858 87.2658C67.6477 87.1907 67.6393 87.0521 67.5624 86.8466C67.4587 86.5371 67.311 86.1251 67.1192 85.6107H65.2044C65.0371 86.0867 64.9067 86.4575 64.8297 86.7214C64.7528 86.9852 64.7294 87.1539 64.7996 87.2475C64.8699 87.341 65.0756 87.4145 65.4167 87.4445V87.7535H63.2895V87.4445C63.5244 87.4354 63.7516 87.3582 63.9434 87.2224C64.0655 87.1138 64.2076 86.8533 64.3665 86.4408L66.3499 81.4487L66.7764 81.3351C67.9192 84.4951 68.5324 86.188 68.616 86.4141C68.7766 86.8383 68.9159 87.1083 69.0341 87.2241C69.2178 87.3656 69.4426 87.4436 69.6746 87.4462V87.7552L69.6713 87.7535ZM66.967 85.1381L66.1977 82.9168H66.1777C66.0662 83.2052 65.9157 83.6138 65.7261 84.1427C65.5366 84.6715 65.4145 85.0056 65.3599 85.1447L66.967 85.1381ZM75.3172 81.3418H75.3273C75.7481 81.3362 76.1656 81.4158 76.5548 81.5758C76.944 81.7357 77.2967 81.9728 77.5916 82.2726C77.8865 82.5724 78.1175 82.9288 78.2707 83.3203C78.424 83.7117 78.4962 84.1301 78.483 84.5502C78.483 85.5601 78.1686 86.3712 77.5398 86.9836C77.2331 87.2844 76.869 87.5206 76.4691 87.6781C76.0692 87.8356 75.6416 87.9112 75.2119 87.9005C74.7853 87.9127 74.3608 87.8367 73.965 87.6772C73.5693 87.5176 73.2109 87.2781 72.9123 86.9736C72.6113 86.669 72.3751 86.3068 72.2179 85.9087C72.0607 85.5106 71.9857 85.0848 71.9976 84.6571C71.9867 83.7972 72.3084 82.9662 72.8956 82.3372C73.4966 81.6803 74.3032 81.3518 75.3155 81.3518L75.3172 81.3418ZM75.15 81.7293H75.1383C74.6176 81.7293 74.1811 81.972 73.8288 82.4575C73.4765 82.9429 73.2998 83.6049 73.2987 84.4433C73.2717 85.2133 73.4723 85.9743 73.8756 86.6312C74.2603 87.2202 74.767 87.5147 75.3958 87.5147C75.6505 87.5136 75.901 87.449 76.1244 87.3268C76.3478 87.2046 76.5371 87.0287 76.6752 86.8149C77.0164 86.3472 77.1864 85.6825 77.1853 84.8207C77.1853 83.8621 76.9946 83.1072 76.6133 82.556C76.232 82.0049 75.7403 81.7299 75.1383 81.731L75.15 81.7293ZM84.6223 83.042L84.3063 83.0704C84.1959 82.6011 84.0688 82.2821 83.9199 82.1151C83.832 82.0156 83.715 81.946 83.5855 81.9164C83.3651 81.8744 83.1407 81.857 82.9165 81.8646H82.3964V86.5126C82.3964 86.9118 82.4482 87.1589 82.5503 87.2558C82.6523 87.3527 82.9232 87.4228 83.3597 87.4479V87.7569H80.3544V87.4479C80.7775 87.4161 81.0368 87.3527 81.1338 87.2558C81.2308 87.1589 81.2776 86.9118 81.2776 86.5126V81.8663H80.8545C80.5931 81.8557 80.3315 81.8765 80.0751 81.928C79.9428 81.9618 79.8253 82.0381 79.7407 82.1452C79.6202 82.2866 79.4987 82.5955 79.3761 83.0721H79.0416C79.0416 82.9251 79.0684 82.6295 79.1001 82.1886C79.1319 81.7477 79.1503 81.432 79.157 81.2383H79.3794C79.4288 81.3232 79.5021 81.3917 79.5901 81.4354C79.6979 81.4709 79.8114 81.4856 79.9246 81.4788H83.7711C83.8718 81.4806 83.9716 81.4599 84.0634 81.4183C84.1551 81.3767 84.2363 81.3152 84.3012 81.2383H84.522C84.522 81.6558 84.5538 82.2587 84.6173 83.0437L84.6223 83.042ZM89.7866 86.1218L90.1044 86.1802C90.0324 86.7123 89.9206 87.2382 89.7699 87.7535H84.9484V87.4445C85.3732 87.4128 85.6324 87.3493 85.7278 87.2525C85.8231 87.1556 85.8733 86.9084 85.8733 86.5093V82.7447C85.8733 82.3255 85.8315 82.0767 85.7478 81.9765C85.6642 81.8763 85.4401 81.8212 85.0789 81.7878V81.4788H89.5207C89.5207 81.4921 89.5531 81.9687 89.6177 82.9084L89.2832 82.9569C89.2307 82.6548 89.1087 82.3689 88.927 82.1218C88.7865 81.9481 88.4521 81.8612 87.9236 81.8612H87.3567C87.2516 81.8485 87.145 81.8652 87.0489 81.9097C87.0105 81.9414 86.9904 82.0349 86.9904 82.1886V84.308H87.7313C88.1544 84.308 88.4236 84.2696 88.5357 84.1928C88.6477 84.1159 88.7347 83.9088 88.7999 83.5748H89.1177V85.4871H88.7999C88.7347 85.1531 88.6477 84.9376 88.5357 84.8642C88.4236 84.7907 88.1577 84.7523 87.7413 84.7523H86.9904V86.4725C86.9904 86.9151 87.0673 87.1807 87.2212 87.2642C87.3751 87.3477 87.6644 87.3694 88.146 87.3694C88.7029 87.3694 89.0759 87.2642 89.2615 87.0504C89.4847 86.772 89.6604 86.4589 89.7816 86.1234L89.7866 86.1218ZM96.2872 87.7535H93.5478V87.4445C93.9191 87.4128 94.1465 87.346 94.2301 87.2424C94.3138 87.1389 94.3556 86.8667 94.3556 86.4224V82.3773C94.3687 82.2324 94.3522 82.0864 94.3071 81.9481C94.2753 81.8997 94.1733 81.8746 93.9994 81.8746H92.9792C92.8788 81.8607 92.7767 81.8832 92.6916 81.9381C92.6417 82.0245 92.6212 82.1247 92.633 82.2237C92.633 84.7912 92.322 86.526 91.6998 87.4278C91.4824 87.7502 91.2567 87.9105 91.0309 87.9105C90.8319 87.9118 90.6339 87.8825 90.4439 87.8237V87.6116C90.8832 87.3386 91.2322 86.9424 91.4473 86.4725C91.9022 85.5439 92.1296 84.1855 92.1296 82.3974C92.1412 82.3137 92.132 82.2286 92.1029 82.1493C92.0737 82.0701 92.0254 81.9993 91.9624 81.9431C91.8503 81.8663 91.6095 81.8145 91.2366 81.7878V81.4788H96.2888V81.7878C95.9226 81.8212 95.6968 81.8813 95.6098 81.9715C95.5229 82.0617 95.4794 82.2838 95.4794 82.6395V86.4257C95.4794 86.87 95.5212 87.1422 95.6048 87.2458C95.6885 87.3493 95.9159 87.4128 96.2888 87.4479V87.7569L96.2872 87.7535ZM98.784 82.8015V83.989C99.157 83.9556 99.4898 83.9406 99.7875 83.9406C100.493 83.9406 101.04 84.0948 101.428 84.4032C101.622 84.5609 101.776 84.7622 101.877 84.9907C101.978 85.2191 102.024 85.4682 102.01 85.7176C102.01 86.4647 101.709 87.0114 101.107 87.3577C100.632 87.6216 99.9742 87.7535 99.1335 87.7535H96.8524V87.4445C97.2321 87.4128 97.4628 87.3493 97.5465 87.2525C97.6301 87.1556 97.6702 86.8917 97.6702 86.4608V82.7865C97.6702 82.3556 97.6301 82.0901 97.5465 81.9898C97.4628 81.8896 97.2387 81.8228 96.8775 81.7911V81.4821H99.6202V81.7911C99.4681 81.7981 99.3166 81.816 99.167 81.8445C99.0724 81.8675 98.9868 81.9181 98.9212 81.9898C98.8516 82.069 98.8099 82.1687 98.8024 82.2738C98.7865 82.4509 98.7798 82.6287 98.7823 82.8065L98.784 82.8015ZM99.4764 87.3677H99.4864C99.6548 87.3689 99.8216 87.3363 99.9771 87.2717C100.132 87.2071 100.273 87.112 100.391 86.9919C100.646 86.7403 100.775 86.3472 100.776 85.8128C100.776 84.8285 100.295 84.3364 99.3326 84.3364C99.1491 84.3383 98.9659 84.3511 98.784 84.3748V86.5126C98.784 86.8466 98.8342 87.0738 98.9329 87.1923C99.0049 87.2599 99.0909 87.311 99.1848 87.3418C99.2787 87.3727 99.3782 87.3827 99.4764 87.3711V87.3677Z" fill="url(#paint12_linear_1_15598)"/>
</g>
<defs>
<linearGradient id="paint0_linear_1_15598" x1="45.087" y1="0" x2="45.087" y2="41.3728" gradientUnits="userSpaceOnUse">
<stop stop-color="#BF9E77"/>
<stop offset="1" stop-color="#BD9D6F"/>
</linearGradient>
<linearGradient id="paint1_linear_1_15598" x1="55.4076" y1="14.7402" x2="55.4076" y2="41.203" gradientUnits="userSpaceOnUse">
<stop stop-color="#BF9E77"/>
<stop offset="1" stop-color="#BD9D6F"/>
</linearGradient>
<linearGradient id="paint2_linear_1_15598" x1="47.5906" y1="41.8359" x2="47.5906" y2="47.1887" gradientUnits="userSpaceOnUse">
<stop stop-color="#BF9E77"/>
<stop offset="1" stop-color="#BD9D6F"/>
</linearGradient>
<linearGradient id="paint3_linear_1_15598" x1="47.3184" y1="47.1562" x2="47.3184" y2="50.6103" gradientUnits="userSpaceOnUse">
<stop stop-color="#BF9E77"/>
<stop offset="1" stop-color="#BD9D6F"/>
</linearGradient>
<linearGradient id="paint4_linear_1_15598" x1="20.7644" y1="97.8086" x2="20.7644" y2="106.722" gradientUnits="userSpaceOnUse">
<stop stop-color="#BF9E77"/>
<stop offset="1" stop-color="#BD9D6F"/>
</linearGradient>
<linearGradient id="paint5_linear_1_15598" x1="51.0577" y1="77.2793" x2="51.0577" y2="78.6321" gradientUnits="userSpaceOnUse">
<stop stop-color="#BF9E77"/>
<stop offset="1" stop-color="#BD9D6F"/>
</linearGradient>
<linearGradient id="paint6_linear_1_15598" x1="51.0547" y1="54.2988" x2="51.0547" y2="75.5882" gradientUnits="userSpaceOnUse">
<stop stop-color="#BF9E77"/>
<stop offset="1" stop-color="#BD9D6F"/>
</linearGradient>
<linearGradient id="paint7_linear_1_15598" x1="36.2496" y1="97.7986" x2="36.2496" y2="106.722" gradientUnits="userSpaceOnUse">
<stop stop-color="#BF9E77"/>
<stop offset="1" stop-color="#BD9D6F"/>
</linearGradient>
<linearGradient id="paint8_linear_1_15598" x1="51.7454" y1="97.7986" x2="51.7454" y2="106.722" gradientUnits="userSpaceOnUse">
<stop stop-color="#BF9E77"/>
<stop offset="1" stop-color="#BD9D6F"/>
</linearGradient>
<linearGradient id="paint9_linear_1_15598" x1="67.2184" y1="97.7986" x2="67.2184" y2="106.722" gradientUnits="userSpaceOnUse">
<stop stop-color="#BF9E77"/>
<stop offset="1" stop-color="#BD9D6F"/>
</linearGradient>
<linearGradient id="paint10_linear_1_15598" x1="82.7019" y1="97.8086" x2="82.7019" y2="106.722" gradientUnits="userSpaceOnUse">
<stop stop-color="#BF9E77"/>
<stop offset="1" stop-color="#BD9D6F"/>
</linearGradient>
<linearGradient id="paint11_linear_1_15598" x1="51.0577" y1="90.3733" x2="51.0577" y2="91.7261" gradientUnits="userSpaceOnUse">
<stop stop-color="#BF9E77"/>
<stop offset="1" stop-color="#BD9D6F"/>
</linearGradient>
<linearGradient id="paint12_linear_1_15598" x1="51.0062" y1="81.2383" x2="51.0062" y2="88.0193" gradientUnits="userSpaceOnUse">
<stop stop-color="#BF9E77"/>
<stop offset="1" stop-color="#BD9D6F"/>
</linearGradient>
<clipPath id="clip0_1_15598">
<rect width="102" height="106.722" fill="white"/>
</clipPath>
</defs>
</svg>
