<svg width="40" height="37" viewBox="0 0 40 37" fill="none" xmlns="http://www.w3.org/2000/svg">
<path fill-rule="evenodd" clip-rule="evenodd" d="M15.9634 0C21.4268 20.8309 17.7694 24.3636 12.4453 30.1767C17.0802 28.788 19.1429 29.2278 21.6553 29.6505C27.39 19.553 20.8891 14.5451 15.9634 0Z" fill="url(#paint0_linear_1_9212)"/>
<path fill-rule="evenodd" clip-rule="evenodd" d="M21.543 10.7517C27.0663 20.2255 25.5449 26.839 23.5556 29.6335C25.347 29.9807 28.1221 30.7067 29.4687 28.7186C30.8153 26.7306 29.019 20.2194 21.543 10.7578V10.7517Z" fill="url(#paint1_linear_1_9212)"/>
<path fill-rule="evenodd" clip-rule="evenodd" d="M0 33.4426C7.26584 30.9404 11.9643 29.9099 19.2094 30.8673C26.4545 31.8248 29.5839 33.4889 40 31.5824C33.1301 34.4317 28.2422 34.7058 22.0871 34.2307C15.9321 33.7557 11.2434 31.2389 0 33.4426Z" fill="url(#paint2_linear_1_9212)"/>
<path fill-rule="evenodd" clip-rule="evenodd" d="M7.63281 36.3711C12.0722 34.7484 14.8339 33.9871 19.2623 34.612C23.6907 35.2369 25.6019 36.3114 31.9708 35.0749C27.7721 36.9229 24.7844 37.0995 21.0232 36.7925C17.2619 36.4856 14.5052 34.9421 7.63526 36.3711H7.63281Z" fill="url(#paint3_linear_1_9212)"/>
<defs>
<linearGradient id="paint0_linear_1_9212" x1="18.1716" y1="0" x2="18.1716" y2="30.1767" gradientUnits="userSpaceOnUse">
<stop stop-color="#BF9E77"/>
<stop offset="1" stop-color="#BD9D6F"/>
</linearGradient>
<linearGradient id="paint1_linear_1_9212" x1="25.7111" y1="10.7517" x2="25.7111" y2="30.0532" gradientUnits="userSpaceOnUse">
<stop stop-color="#BF9E77"/>
<stop offset="1" stop-color="#BD9D6F"/>
</linearGradient>
<linearGradient id="paint2_linear_1_9212" x1="20" y1="30.5139" x2="20" y2="34.4182" gradientUnits="userSpaceOnUse">
<stop stop-color="#BF9E77"/>
<stop offset="1" stop-color="#BD9D6F"/>
</linearGradient>
<linearGradient id="paint3_linear_1_9212" x1="19.8018" y1="34.3943" x2="19.8018" y2="36.9136" gradientUnits="userSpaceOnUse">
<stop stop-color="#BF9E77"/>
<stop offset="1" stop-color="#BD9D6F"/>
</linearGradient>
</defs>
</svg>
