<svg width="60" height="51" viewBox="0 0 60 51" fill="none" xmlns="http://www.w3.org/2000/svg">
<g opacity="0.5">
<path d="M36.0606 11.024C35.7952 10.7981 35.5157 10.5861 35.2549 10.3464C34.9615 10.0744 34.7193 9.71485 34.3001 9.65953C33.6155 9.56273 33.1405 10.1435 32.7027 10.5953C32.0366 9.96377 31.366 9.32764 30.7139 8.68228C30.2622 8.23515 29.6427 7.32704 28.9674 7.20258C27.859 6.99976 26.6154 8.38726 25.8051 9.15247C25.684 9.05105 25.5768 8.93581 25.4604 8.83901C23.63 7.31321 22.4471 7.95856 20.8216 9.5489C19.0239 11.3006 19.1915 12.3885 20.817 14.2461C22.1024 15.712 23.4624 17.1226 24.8317 18.5239C23.2668 20.3493 21.2501 21.9581 19.5548 23.6729C18.1017 25.148 16.6346 26.6185 15.2188 28.1305C13.8169 26.789 12.4011 25.4615 10.9293 24.1984C9.07102 22.5989 7.96256 22.4145 6.18343 24.203C4.93525 25.4384 3.77555 26.8259 5.03305 28.3932C5.25661 28.6698 5.48948 28.9371 5.727 29.1999C4.96319 29.9835 3.67775 31.1267 3.79884 32.1409C3.95253 33.4362 6.16014 35.0957 7.01245 35.9484C7.04039 35.9761 7.07299 36.0084 7.10094 36.036C6.72834 36.3679 6.28123 36.7644 6.11357 37.17C5.81084 37.9122 6.90067 38.6036 7.35244 39.0415C7.82283 39.4979 8.39104 40.3922 9.09896 39.9404C9.44827 39.7145 9.77428 39.4195 10.0724 39.1061C11.1622 40.1847 12.3126 41.1942 13.5095 41.8995C15.0092 42.7846 16.1456 41.6414 17.2867 40.5581C17.4497 40.701 17.608 40.8577 17.7757 40.996C19.4198 42.3651 20.3466 41.6414 21.7112 40.3368C22.5775 39.5071 24.2169 38.4745 23.8583 37.1331C23.644 36.3403 22.7079 35.5336 22.163 34.9574C20.9893 33.722 19.7644 32.5281 18.5442 31.3388C18.4464 31.242 18.3486 31.1452 18.2554 31.053C21.4085 27.8585 24.7851 24.8299 27.7984 21.5156C28.865 22.5989 29.9501 23.6729 31.0493 24.7331C31.7619 25.4108 32.5396 26.411 33.4292 26.849C34.9568 27.5957 36.0467 26.0192 37.0434 25.0051C38.1658 23.8573 39.1858 22.9953 38.1378 21.4326C37.9236 21.1099 37.6674 20.8011 37.3927 20.5015C38.4359 19.432 39.591 18.2796 38.7526 16.8414C38.0866 15.7028 37.0713 14.6518 36.0048 13.6515C36.382 13.315 36.7779 12.8863 36.9223 12.4576C37.1225 11.8537 36.4891 11.3835 36.0793 11.0332L36.0606 11.024ZM8.71705 39.1014C8.39569 38.8479 8.10228 38.493 7.82283 38.2164C7.65051 38.0458 7.46887 37.8753 7.29655 37.7047C7.24997 37.6586 7.07765 37.4051 6.99382 37.442C7.07765 37.3037 7.33846 37.0916 7.4223 36.9994C7.52942 36.8934 7.63188 36.792 7.739 36.686C8.28857 37.2576 8.85678 37.8661 9.43895 38.4607C9.22471 38.6912 8.96855 38.9263 8.7124 39.0968L8.71705 39.1014ZM13.5607 40.7517C12.9506 40.3875 12.4104 39.7606 11.8794 39.2812C10.4356 37.9905 9.02444 36.6675 7.65517 35.2939C6.85409 34.4918 5.79687 33.6206 5.20072 32.6525C4.49745 31.5139 5.50345 30.7303 6.35575 29.8499C7.84146 31.3757 9.53676 32.7678 11.0038 34.2751C12.8063 36.1328 14.6506 38.1519 16.5974 39.9312C15.5588 40.9223 14.9952 41.5999 13.5654 40.7471L13.5607 40.7517ZM21.958 36.0729C22.6147 36.8151 23.1923 37.2391 22.6194 38.1473C22.3027 38.6451 21.5854 39.1798 21.1709 39.5809C20.3745 40.3507 19.2754 40.7471 18.2275 40.1525C17.4683 39.7238 16.7604 38.6543 16.1316 38.0504C14.6273 36.5892 13.1136 35.1464 11.6559 33.639C10.6871 32.6433 9.68113 31.7029 8.67514 30.7441C7.88338 29.9881 7.1708 29.1538 6.38835 28.3886C5.0936 27.1348 5.6618 25.9916 6.83546 24.8299C7.40367 24.2676 8.43761 23.8342 9.27128 24.014C9.75565 24.1247 10.3891 24.9267 10.771 25.2679C11.572 25.987 12.3498 26.7199 13.1323 27.4574C14.6319 28.8588 16.127 30.2739 17.608 31.7029C19.0751 33.1273 20.6074 34.5333 21.9627 36.0683L21.958 36.0729ZM17.5801 30.4122C17.0165 29.8545 16.439 29.3013 15.8662 28.7528C17.2774 27.2454 18.7444 25.7749 20.1929 24.3044C21.8835 22.5942 23.9002 20.9855 25.4604 19.1647C26.0193 19.727 26.5782 20.2986 27.1371 20.861C24.1237 24.1846 20.7378 27.2131 17.5801 30.4122ZM27.4351 12.0012C28.3946 12.9969 29.354 13.9926 30.36 14.9514C31.7851 16.3067 33.1591 17.7034 34.5377 19.1047C36.0606 20.649 38.5244 22.1563 36.3727 24.3505C36.0141 24.7147 35.4738 25.5168 34.9755 25.7058C33.5643 26.2451 32.9868 25.3232 32.1764 24.5487C30.7745 23.2166 29.3959 21.8521 28.0406 20.4738C26.6294 19.0402 25.2369 17.5881 23.8443 16.1269C22.3446 14.5504 19.2195 12.37 21.4644 10.185C22.7964 8.88511 23.7372 8.81135 25.3486 9.97299C26.1264 10.5308 26.7878 11.3236 27.4398 12.0058L27.4351 12.0012ZM36.2423 15.3893C36.6801 15.8503 37.2762 16.3481 37.6069 16.8967C38.4173 18.2519 37.6768 18.865 36.7266 19.8423C36.0234 19.1739 35.2596 18.5377 34.6262 17.8924C33.4385 16.6801 32.2369 15.4815 31.0074 14.3107C29.4611 12.8356 28.0406 11.2176 26.4804 9.75634C26.8949 9.37373 27.3187 8.92659 27.7891 8.66384C28.7113 8.14756 28.7951 8.20288 29.6893 8.94042C30.7978 9.85314 31.7898 10.9733 32.8191 11.9644C33.9788 13.0845 35.1338 14.2093 36.2423 15.3801L36.2423 15.3893ZM35.2875 12.9969C34.6541 12.4253 34.0254 11.8676 33.4711 11.3282C33.4339 11.2914 33.4013 11.2591 33.364 11.2222C33.513 11.0747 33.6621 10.9272 33.8158 10.7843C34.044 10.5769 34.0021 10.5261 34.2349 10.6276C34.4212 10.7105 34.6075 10.9963 34.7612 11.13C34.9568 11.3052 35.1664 11.4573 35.3667 11.6279C35.5297 11.7615 35.6834 11.9044 35.8324 12.0519C35.8464 12.0658 35.9256 12.1718 35.9815 12.2179C35.9675 12.2502 35.9535 12.2824 35.9349 12.3009C35.7113 12.5221 35.5064 12.7618 35.2875 12.9877L35.2875 12.9969Z" fill="url(#paint0_linear_1_15729)"/>
</g>
<defs>
<linearGradient id="paint0_linear_1_15729" x1="13.437" y1="16.8574" x2="29.3313" y2="32.9162" gradientUnits="userSpaceOnUse">
<stop stop-color="#BF9E77"/>
<stop offset="1" stop-color="#BD9D6F"/>
</linearGradient>
</defs>
</svg>
