<svg width="60" height="51" viewBox="0 0 60 51" fill="none" xmlns="http://www.w3.org/2000/svg">
<g opacity="0.5">
<path d="M20.7577 28.1007C20.4949 28.1007 20.2812 27.8832 20.2812 27.6146V11.0738C20.2812 9.19593 21.7758 7.66846 23.6131 7.66846C25.4505 7.66846 26.945 9.19593 26.945 11.0738C26.945 11.3425 26.7322 11.5608 26.4685 11.5608C26.2048 11.5608 25.9929 11.3434 25.9929 11.0738C25.9929 9.73234 24.9248 8.64155 23.6122 8.64155C22.2997 8.64155 21.2325 9.73234 21.2325 11.0738V27.6146C21.2325 27.8841 21.0197 28.1007 20.7569 28.1007H20.7577Z" fill="url(#paint0_linear_1_15708)"/>
<path d="M31.2412 28.1007C30.9784 28.1007 30.7656 27.8832 30.7656 27.6146V11.0738C30.7656 9.19593 32.2601 7.66846 34.0975 7.66846C35.9349 7.66846 37.4294 9.19593 37.4294 11.0738C37.4294 11.3425 37.2166 11.5608 36.9538 11.5608C36.6909 11.5608 36.4773 11.3434 36.4773 11.0738C36.4773 9.73234 35.41 8.64155 34.0975 8.64155C32.785 8.64155 31.7168 9.73234 31.7168 11.0738V27.6146C31.7168 27.8841 31.5041 28.1007 31.2412 28.1007Z" fill="url(#paint1_linear_1_15708)"/>
<path d="M26.4698 39.7765C21.5696 39.7765 16.955 38.8492 13.4764 37.1654C9.88427 35.4259 7.90625 33.0709 7.90625 30.5335C7.90625 27.9961 9.88427 25.6402 13.4764 23.9015C16.955 22.2168 21.5696 21.2896 26.4698 21.2896C31.37 21.2896 35.9845 22.2168 39.4632 23.9015C43.0553 25.6402 45.0333 27.9952 45.0333 30.5335C45.0333 33.0718 43.0553 35.4259 39.4632 37.1654C35.9845 38.8492 31.37 39.7765 26.4698 39.7765ZM26.4698 22.2635C21.7076 22.2635 17.2372 23.1576 13.8834 24.7812C10.643 26.3509 8.85834 28.3932 8.85834 30.5335C8.85834 32.6737 10.643 34.7169 13.8834 36.2857C17.2372 37.9103 21.7067 38.8043 26.4698 38.8043C31.2329 38.8043 35.7023 37.9103 39.057 36.2857C42.2975 34.7169 44.0821 32.6737 44.0821 30.5335C44.0821 28.3932 42.2975 26.35 39.057 24.7812C35.7023 23.1576 31.2329 22.2635 26.4698 22.2635Z" fill="url(#paint2_linear_1_15708)"/>
<path d="M26.4726 43.6689C20.5491 43.6689 14.9728 42.4406 10.7715 40.2096C6.4708 37.9256 4.10156 34.8535 4.10156 31.5569C4.10156 31.2882 4.31431 31.0708 4.57805 31.0708C4.84178 31.0708 5.05365 31.2882 5.05365 31.5569C5.05365 34.4717 7.24003 37.2382 11.2101 39.3452C15.2796 41.5052 20.7003 42.6949 26.4735 42.6949C32.2466 42.6949 37.6673 41.5052 41.7368 39.3452C45.7069 37.2382 47.8933 34.4717 47.8933 31.5569C47.8933 31.2882 48.106 31.0708 48.3689 31.0708C48.6317 31.0708 48.8445 31.2882 48.8445 31.5569C48.8445 34.8526 46.4761 37.9256 42.1746 40.2096C37.9724 42.4406 32.3961 43.6689 26.4726 43.6689Z" fill="url(#paint3_linear_1_15708)"/>
<path d="M31.229 14.4785H20.7577C20.4949 14.4785 20.2812 14.2611 20.2812 13.9924C20.2812 13.7238 20.494 13.5063 20.7577 13.5063H31.229C31.4927 13.5063 31.7054 13.7238 31.7054 13.9924C31.7054 14.2611 31.4927 14.4785 31.229 14.4785Z" fill="url(#paint4_linear_1_15708)"/>
<path d="M31.229 18.3701H20.7577C20.4949 18.3701 20.2812 18.1526 20.2812 17.8831C20.2812 17.6135 20.494 17.397 20.7577 17.397H31.229C31.4927 17.397 31.7054 17.6144 31.7054 17.8831C31.7054 18.1517 31.4927 18.3701 31.229 18.3701Z" fill="url(#paint5_linear_1_15708)"/>
<path d="M26.4782 30.0468C26.3701 30.0468 26.2611 30.0091 26.1714 29.9318C26.1371 29.9031 22.7121 26.9982 20.8026 28.6532C18.8035 30.3874 16.6101 29.6263 15.7301 28.9821C15.5165 28.8257 15.4672 28.522 15.6202 28.3037C15.7732 28.0863 16.0694 28.035 16.2831 28.1905C16.3675 28.2507 18.2664 29.5778 20.1872 27.9119C22.7086 25.725 26.6207 29.045 26.7851 29.1878C26.9864 29.3613 27.0119 29.6685 26.8422 29.8734C26.7481 29.9875 26.6136 30.0468 26.4782 30.0468Z" fill="url(#paint6_linear_1_15708)"/>
<path d="M26.4762 30.0468C26.3408 30.0468 26.2063 29.9884 26.1123 29.8734C25.9426 29.6676 25.9681 29.3604 26.1694 29.1878C26.3347 29.045 30.2468 25.725 32.7681 27.9119C34.7066 29.5931 36.6521 28.2049 36.6714 28.1914C36.8841 28.0359 37.1822 28.0854 37.3351 28.3037C37.4881 28.522 37.4398 28.8257 37.2261 28.9821C36.3452 29.6263 34.1518 30.3874 32.1536 28.6532C30.238 26.9937 26.8182 29.9013 26.7839 29.9318C26.6943 30.0091 26.5861 30.0468 26.4771 30.0468H26.4762Z" fill="url(#paint7_linear_1_15708)"/>
<path d="M26.4783 33.9387C26.3772 33.9387 26.2761 33.9063 26.1899 33.838C26.1556 33.8111 22.7271 31.1802 20.8027 32.8497C18.7842 34.6 16.582 33.6152 15.6994 32.8497C15.4989 32.6754 15.4743 32.3681 15.644 32.1641C15.8136 31.9593 16.1125 31.935 16.313 32.1066C16.393 32.1749 18.2857 33.7563 20.1864 32.1066C22.6936 29.9322 26.6022 32.935 26.7666 33.0644C26.9758 33.228 27.0154 33.5334 26.8563 33.7464C26.7631 33.8713 26.6216 33.9378 26.4774 33.9378L26.4783 33.9387Z" fill="url(#paint8_linear_1_15708)"/>
<path d="M26.4762 33.9393C26.3329 33.9393 26.1905 33.8729 26.0973 33.748C25.9381 33.5341 25.9786 33.2295 26.1869 33.066C26.3522 32.9366 30.2608 29.9347 32.7672 32.1082C34.6678 33.7569 36.5614 32.1756 36.6406 32.1082C36.8419 31.9357 37.1425 31.9626 37.3105 32.1675C37.4793 32.3732 37.4546 32.6778 37.2551 32.8512C36.3724 33.6168 34.1694 34.6015 32.1509 32.8512C30.2274 31.1827 26.7988 33.8127 26.7636 33.8405C26.6775 33.9079 26.5764 33.9402 26.4753 33.9402L26.4762 33.9393Z" fill="url(#paint9_linear_1_15708)"/>
<path d="M44.6336 15.0005H34.3664C34.1639 15.0005 34 14.777 34 14.501C34 14.2249 34.1639 14.0005 34.3664 14.0005H44.6336C44.8361 14.0005 45 14.2239 45 14.501C45 14.778 44.8361 15.0005 44.6336 15.0005Z" fill="url(#paint10_linear_1_15708)"/>
<path d="M17.6336 16.0005H7.36638C7.16389 16.0005 7 15.777 7 15.501C7 15.2249 7.16389 15.0005 7.36638 15.0005H17.6336C17.8361 15.0005 18 15.2239 18 15.501C18 15.778 17.8361 16.0005 17.6336 16.0005Z" fill="url(#paint11_linear_1_15708)"/>
<path d="M37.5326 18.2441H34.1566C34.0013 18.2441 33.875 18.026 33.875 17.7556C33.875 17.4853 34.0007 17.2681 34.1566 17.2681H37.5326C37.6885 17.2681 37.8142 17.4862 37.8142 17.7556C37.8142 18.0251 37.6885 18.2441 37.5326 18.2441Z" fill="url(#paint12_linear_1_15708)"/>
<path d="M17.6576 19.2441H14.2816C14.1263 19.2441 14 19.026 14 18.7556C14 18.4853 14.1257 18.2681 14.2816 18.2681H17.6576C17.8135 18.2681 17.9392 18.4862 17.9392 18.7556C17.9392 19.0251 17.8135 19.2441 17.6576 19.2441Z" fill="url(#paint13_linear_1_15708)"/>
</g>
<defs>
<linearGradient id="paint0_linear_1_15708" x1="23.6131" y1="7.66846" x2="23.6131" y2="28.1007" gradientUnits="userSpaceOnUse">
<stop stop-color="#BF9E77"/>
<stop offset="1" stop-color="#BD9D6F"/>
</linearGradient>
<linearGradient id="paint1_linear_1_15708" x1="34.0975" y1="7.66846" x2="34.0975" y2="28.1007" gradientUnits="userSpaceOnUse">
<stop stop-color="#BF9E77"/>
<stop offset="1" stop-color="#BD9D6F"/>
</linearGradient>
<linearGradient id="paint2_linear_1_15708" x1="26.4698" y1="21.2896" x2="26.4698" y2="39.7765" gradientUnits="userSpaceOnUse">
<stop stop-color="#BF9E77"/>
<stop offset="1" stop-color="#BD9D6F"/>
</linearGradient>
<linearGradient id="paint3_linear_1_15708" x1="26.473" y1="31.0708" x2="26.473" y2="43.6689" gradientUnits="userSpaceOnUse">
<stop stop-color="#BF9E77"/>
<stop offset="1" stop-color="#BD9D6F"/>
</linearGradient>
<linearGradient id="paint4_linear_1_15708" x1="25.9933" y1="13.5063" x2="25.9933" y2="14.4785" gradientUnits="userSpaceOnUse">
<stop stop-color="#BF9E77"/>
<stop offset="1" stop-color="#BD9D6F"/>
</linearGradient>
<linearGradient id="paint5_linear_1_15708" x1="25.9933" y1="17.397" x2="25.9933" y2="18.3701" gradientUnits="userSpaceOnUse">
<stop stop-color="#BF9E77"/>
<stop offset="1" stop-color="#BD9D6F"/>
</linearGradient>
<linearGradient id="paint6_linear_1_15708" x1="21.2429" y1="27.1685" x2="21.2429" y2="30.0468" gradientUnits="userSpaceOnUse">
<stop stop-color="#BF9E77"/>
<stop offset="1" stop-color="#BD9D6F"/>
</linearGradient>
<linearGradient id="paint7_linear_1_15708" x1="31.7122" y1="27.1685" x2="31.7122" y2="30.0468" gradientUnits="userSpaceOnUse">
<stop stop-color="#BF9E77"/>
<stop offset="1" stop-color="#BD9D6F"/>
</linearGradient>
<linearGradient id="paint8_linear_1_15708" x1="21.2425" y1="31.3188" x2="21.2425" y2="33.9387" gradientUnits="userSpaceOnUse">
<stop stop-color="#BF9E77"/>
<stop offset="1" stop-color="#BD9D6F"/>
</linearGradient>
<linearGradient id="paint9_linear_1_15708" x1="31.7113" y1="31.3208" x2="31.7113" y2="33.9402" gradientUnits="userSpaceOnUse">
<stop stop-color="#BF9E77"/>
<stop offset="1" stop-color="#BD9D6F"/>
</linearGradient>
<linearGradient id="paint10_linear_1_15708" x1="39.5" y1="14.0005" x2="39.5" y2="15.0005" gradientUnits="userSpaceOnUse">
<stop stop-color="#BF9E77"/>
<stop offset="1" stop-color="#BD9D6F"/>
</linearGradient>
<linearGradient id="paint11_linear_1_15708" x1="12.5" y1="15.0005" x2="12.5" y2="16.0005" gradientUnits="userSpaceOnUse">
<stop stop-color="#BF9E77"/>
<stop offset="1" stop-color="#BD9D6F"/>
</linearGradient>
<linearGradient id="paint12_linear_1_15708" x1="35.8446" y1="17.2681" x2="35.8446" y2="18.2441" gradientUnits="userSpaceOnUse">
<stop stop-color="#BF9E77"/>
<stop offset="1" stop-color="#BD9D6F"/>
</linearGradient>
<linearGradient id="paint13_linear_1_15708" x1="15.9696" y1="18.2681" x2="15.9696" y2="19.2441" gradientUnits="userSpaceOnUse">
<stop stop-color="#BF9E77"/>
<stop offset="1" stop-color="#BD9D6F"/>
</linearGradient>
</defs>
</svg>
