<svg width="36" height="51" viewBox="0 0 36 51" fill="none" xmlns="http://www.w3.org/2000/svg">
<g opacity="0.5">
<path d="M12.2811 27.4625C12.0872 27.4625 11.9297 27.3022 11.9297 27.104V14.9044C11.9297 13.5194 13.032 12.3928 14.3871 12.3928C15.7422 12.3928 16.8445 13.5194 16.8445 14.9044C16.8445 15.1026 16.6876 15.2636 16.4931 15.2636C16.2986 15.2636 16.1423 15.1033 16.1423 14.9044C16.1423 13.915 15.3545 13.1105 14.3865 13.1105C13.4184 13.1105 12.6313 13.915 12.6313 14.9044V27.104C12.6313 27.3028 12.4743 27.4625 12.2805 27.4625H12.2811Z" fill="url(#paint0_linear_1_14452)"/>
<path d="M20.0148 27.4625C19.821 27.4625 19.6641 27.3022 19.6641 27.104V14.9044C19.6641 13.5194 20.7663 12.3928 22.1215 12.3928C23.4766 12.3928 24.5789 13.5194 24.5789 14.9044C24.5789 15.1026 24.422 15.2636 24.2281 15.2636C24.0342 15.2636 23.8767 15.1033 23.8767 14.9044C23.8767 13.915 23.0895 13.1105 22.1215 13.1105C21.1534 13.1105 20.3656 13.915 20.3656 14.9044V27.104C20.3656 27.3028 20.2087 27.4625 20.0148 27.4625Z" fill="url(#paint1_linear_1_14452)"/>
<path d="M16.4962 36.0739C12.882 36.0739 9.4786 35.39 6.91291 34.1481C4.26357 32.8652 2.80469 31.1282 2.80469 29.2568C2.80469 27.3853 4.26357 25.6477 6.91291 24.3654C9.4786 23.1229 12.882 22.439 16.4962 22.439C20.1103 22.439 23.5137 23.1229 26.0794 24.3654C28.7288 25.6477 30.1876 27.3847 30.1876 29.2568C30.1876 31.1289 28.7288 32.8652 26.0794 34.1481C23.5137 35.39 20.1103 36.0739 16.4962 36.0739ZM16.4962 23.1573C12.9838 23.1573 9.68674 23.8167 7.21312 25.0142C4.82314 26.1719 3.5069 27.6782 3.5069 29.2568C3.5069 30.8353 4.82314 32.3423 7.21312 33.4994C9.68674 34.6975 12.9832 35.3569 16.4962 35.3569C20.0092 35.3569 23.3056 34.6975 25.7799 33.4994C28.1698 32.3423 29.4861 30.8353 29.4861 29.2568C29.4861 27.6782 28.1698 26.1713 25.7799 25.0142C23.3056 23.8167 20.0092 23.1573 16.4962 23.1573Z" fill="url(#paint2_linear_1_14452)"/>
<path d="M16.4997 38.9447C12.1308 38.9447 8.01804 38.0388 4.91936 36.3934C1.74742 34.7088 0 32.443 0 30.0116C0 29.8135 0.156911 29.6531 0.351429 29.6531C0.545947 29.6531 0.702211 29.8135 0.702211 30.0116C0.702211 32.1614 2.31476 34.2018 5.24291 35.7558C8.24433 37.349 12.2423 38.2264 16.5003 38.2264C20.7583 38.2264 24.7563 37.349 27.7577 35.7558C30.6859 34.2018 32.2984 32.1614 32.2984 30.0116C32.2984 29.8135 32.4554 29.6531 32.6492 29.6531C32.8431 29.6531 33 29.8135 33 30.0116C33 32.4424 31.2532 34.7088 28.0806 36.3934C24.9813 38.0388 20.8686 38.9447 16.4997 38.9447Z" fill="url(#paint3_linear_1_14452)"/>
<path d="M20.0041 17.4155H12.2811C12.0872 17.4155 11.9297 17.2552 11.9297 17.057C11.9297 16.8589 12.0866 16.6985 12.2811 16.6985H20.0041C20.1987 16.6985 20.3556 16.8589 20.3556 17.057C20.3556 17.2552 20.1987 17.4155 20.0041 17.4155Z" fill="url(#paint4_linear_1_14452)"/>
<path d="M20.0041 20.2856H12.2811C12.0872 20.2856 11.9297 20.1252 11.9297 19.9264C11.9297 19.7276 12.0866 19.5679 12.2811 19.5679H20.0041C20.1987 19.5679 20.3556 19.7282 20.3556 19.9264C20.3556 20.1245 20.1987 20.2856 20.0041 20.2856Z" fill="url(#paint5_linear_1_14452)"/>
<path d="M16.5036 28.8978C16.4239 28.8978 16.3435 28.87 16.2773 28.813C16.252 28.7918 13.7259 26.6493 12.3176 27.87C10.8431 29.149 9.22539 28.5877 8.57635 28.1125C8.41879 27.9972 8.38248 27.7732 8.4953 27.6122C8.60812 27.4518 8.82663 27.4141 8.98419 27.5287C9.04643 27.5731 10.447 28.5519 11.8637 27.3233C13.7233 25.7103 16.6086 28.1589 16.7299 28.2643C16.8784 28.3922 16.8972 28.6188 16.772 28.7699C16.7027 28.8541 16.6035 28.8978 16.5036 28.8978Z" fill="url(#paint6_linear_1_14452)"/>
<path d="M16.4997 28.8978C16.3998 28.8978 16.3006 28.8548 16.2312 28.7699C16.1061 28.6182 16.1249 28.3915 16.2734 28.2643C16.3953 28.1589 19.2806 25.7103 21.1402 27.3233C22.5699 28.5632 24.0048 27.5393 24.0191 27.5294C24.176 27.4147 24.3958 27.4512 24.5086 27.6122C24.6215 27.7732 24.5858 27.9972 24.4282 28.1125C23.7785 28.5877 22.1608 29.149 20.687 27.87C19.2742 26.646 16.7519 28.7905 16.7266 28.813C16.6605 28.87 16.5807 28.8978 16.5003 28.8978H16.4997Z" fill="url(#paint7_linear_1_14452)"/>
<path d="M16.5036 31.7682C16.4291 31.7682 16.3545 31.7443 16.291 31.694C16.2657 31.6741 13.7369 29.7337 12.3176 30.965C10.8289 32.2559 9.20466 31.5296 8.55367 30.965C8.40584 30.8364 8.38768 30.6098 8.51282 30.4594C8.63796 30.3083 8.85842 30.2904 9.00625 30.4169C9.06525 30.4673 10.4612 31.6337 11.8631 30.4169C13.7123 28.8132 16.595 31.028 16.7163 31.1234C16.8706 31.244 16.8998 31.4693 16.7824 31.6264C16.7137 31.7185 16.6093 31.7675 16.503 31.7675L16.5036 31.7682Z" fill="url(#paint8_linear_1_14452)"/>
<path d="M16.4996 31.7687C16.3939 31.7687 16.2889 31.7197 16.2202 31.6276C16.1028 31.4698 16.1326 31.2452 16.2863 31.1246C16.4082 31.0291 19.291 28.8151 21.1395 30.4181C22.5414 31.6342 23.938 30.4678 23.9964 30.4181C24.1448 30.2909 24.3666 30.3108 24.4904 30.4619C24.6149 30.6136 24.5968 30.8383 24.4496 30.9662C23.7986 31.5308 22.1737 32.2571 20.685 30.9662C19.2663 29.7355 16.7376 31.6753 16.7117 31.6958C16.6481 31.7455 16.5735 31.7694 16.499 31.7694L16.4996 31.7687Z" fill="url(#paint9_linear_1_14452)"/>
<path d="M29.8975 17.8005H22.3249C22.1756 17.8005 22.0547 17.6357 22.0547 17.4321C22.0547 17.2285 22.1756 17.063 22.3249 17.063H29.8975C30.0468 17.063 30.1677 17.2278 30.1677 17.4321C30.1677 17.6364 30.0468 17.8005 29.8975 17.8005Z" fill="url(#paint10_linear_1_14452)"/>
<path d="M9.98343 18.5381H2.41084C2.2615 18.5381 2.14062 18.3733 2.14062 18.1697C2.14062 17.966 2.2615 17.8005 2.41084 17.8005H9.98343C10.1328 17.8005 10.2536 17.9653 10.2536 18.1697C10.2536 18.374 10.1328 18.5381 9.98343 18.5381Z" fill="url(#paint11_linear_1_14452)"/>
<path d="M24.6586 20.1928H22.1687C22.0541 20.1928 21.9609 20.0319 21.9609 19.8325C21.9609 19.6331 22.0537 19.4729 22.1687 19.4729H24.6586C24.7736 19.4729 24.8663 19.6338 24.8663 19.8325C24.8663 20.0312 24.7736 20.1928 24.6586 20.1928Z" fill="url(#paint12_linear_1_14452)"/>
<path d="M9.99453 20.9303H7.50459C7.39 20.9303 7.29688 20.7695 7.29688 20.57C7.29688 20.3706 7.38962 20.2104 7.50459 20.2104H9.99453C10.1095 20.2104 10.2023 20.3713 10.2023 20.57C10.2023 20.7688 10.1095 20.9303 9.99453 20.9303Z" fill="url(#paint13_linear_1_14452)"/>
</g>
<defs>
<linearGradient id="paint0_linear_1_14452" x1="14.3871" y1="12.3928" x2="14.3871" y2="27.4625" gradientUnits="userSpaceOnUse">
<stop stop-color="#BF9E77"/>
<stop offset="1" stop-color="#BD9D6F"/>
</linearGradient>
<linearGradient id="paint1_linear_1_14452" x1="22.1215" y1="12.3928" x2="22.1215" y2="27.4625" gradientUnits="userSpaceOnUse">
<stop stop-color="#BF9E77"/>
<stop offset="1" stop-color="#BD9D6F"/>
</linearGradient>
<linearGradient id="paint2_linear_1_14452" x1="16.4962" y1="22.439" x2="16.4962" y2="36.0739" gradientUnits="userSpaceOnUse">
<stop stop-color="#BF9E77"/>
<stop offset="1" stop-color="#BD9D6F"/>
</linearGradient>
<linearGradient id="paint3_linear_1_14452" x1="16.5" y1="29.6531" x2="16.5" y2="38.9447" gradientUnits="userSpaceOnUse">
<stop stop-color="#BF9E77"/>
<stop offset="1" stop-color="#BD9D6F"/>
</linearGradient>
<linearGradient id="paint4_linear_1_14452" x1="16.1426" y1="16.6985" x2="16.1426" y2="17.4155" gradientUnits="userSpaceOnUse">
<stop stop-color="#BF9E77"/>
<stop offset="1" stop-color="#BD9D6F"/>
</linearGradient>
<linearGradient id="paint5_linear_1_14452" x1="16.1426" y1="19.5679" x2="16.1426" y2="20.2856" gradientUnits="userSpaceOnUse">
<stop stop-color="#BF9E77"/>
<stop offset="1" stop-color="#BD9D6F"/>
</linearGradient>
<linearGradient id="paint6_linear_1_14452" x1="12.6423" y1="26.7749" x2="12.6423" y2="28.8978" gradientUnits="userSpaceOnUse">
<stop stop-color="#BF9E77"/>
<stop offset="1" stop-color="#BD9D6F"/>
</linearGradient>
<linearGradient id="paint7_linear_1_14452" x1="20.3615" y1="26.7749" x2="20.3615" y2="28.8978" gradientUnits="userSpaceOnUse">
<stop stop-color="#BF9E77"/>
<stop offset="1" stop-color="#BD9D6F"/>
</linearGradient>
<linearGradient id="paint8_linear_1_14452" x1="12.642" y1="29.8359" x2="12.642" y2="31.7682" gradientUnits="userSpaceOnUse">
<stop stop-color="#BF9E77"/>
<stop offset="1" stop-color="#BD9D6F"/>
</linearGradient>
<linearGradient id="paint9_linear_1_14452" x1="20.3608" y1="29.8374" x2="20.3608" y2="31.7694" gradientUnits="userSpaceOnUse">
<stop stop-color="#BF9E77"/>
<stop offset="1" stop-color="#BD9D6F"/>
</linearGradient>
<linearGradient id="paint10_linear_1_14452" x1="26.1112" y1="17.063" x2="26.1112" y2="17.8005" gradientUnits="userSpaceOnUse">
<stop stop-color="#BF9E77"/>
<stop offset="1" stop-color="#BD9D6F"/>
</linearGradient>
<linearGradient id="paint11_linear_1_14452" x1="6.19713" y1="17.8005" x2="6.19713" y2="18.5381" gradientUnits="userSpaceOnUse">
<stop stop-color="#BF9E77"/>
<stop offset="1" stop-color="#BD9D6F"/>
</linearGradient>
<linearGradient id="paint12_linear_1_14452" x1="23.4136" y1="19.4729" x2="23.4136" y2="20.1928" gradientUnits="userSpaceOnUse">
<stop stop-color="#BF9E77"/>
<stop offset="1" stop-color="#BD9D6F"/>
</linearGradient>
<linearGradient id="paint13_linear_1_14452" x1="8.74957" y1="20.2104" x2="8.74957" y2="20.9303" gradientUnits="userSpaceOnUse">
<stop stop-color="#BF9E77"/>
<stop offset="1" stop-color="#BD9D6F"/>
</linearGradient>
</defs>
</svg>
