<svg width="28" height="26" viewBox="0 0 28 26" fill="none" xmlns="http://www.w3.org/2000/svg">
<g opacity="0.6">
<path d="M24.7663 2.95702C24.5768 2.79389 24.3775 2.64075 24.1914 2.46763C23.982 2.27121 23.8092 2.01153 23.5102 1.97158C23.0217 1.90167 22.6827 2.32115 22.3704 2.64741C21.8952 2.19131 21.4167 1.73188 20.9514 1.26579C20.6291 0.942858 20.1871 0.287005 19.7053 0.197117C18.9144 0.0506323 18.0272 1.05272 17.449 1.60537C17.3626 1.53212 17.2861 1.44889 17.2031 1.37898C15.8971 0.277015 15.0531 0.743104 13.8933 1.89168C12.6107 3.15677 12.7303 3.94247 13.89 5.28414C14.8072 6.34282 15.7775 7.36156 16.7545 8.37364C15.6379 9.692 14.1991 10.8539 12.9895 12.0924C11.9527 13.1577 10.9059 14.2197 9.89575 15.3117C8.89552 14.3429 7.88533 13.3841 6.83525 12.4719C5.50937 11.3166 4.71849 11.1835 3.4491 12.4752C2.55853 13.3674 1.7311 14.3695 2.62831 15.5015C2.78782 15.7012 2.95397 15.8943 3.12344 16.0841C2.57847 16.65 1.66131 17.4757 1.74771 18.2081C1.85737 19.1436 3.43248 20.3421 4.04059 20.958C4.06053 20.978 4.08379 21.0013 4.10373 21.0213C3.83789 21.261 3.51888 21.5473 3.39925 21.8403C3.18326 22.3763 3.96084 22.8756 4.28317 23.1919C4.6188 23.5215 5.02421 24.1674 5.52931 23.8411C5.77853 23.678 6.01114 23.4649 6.22382 23.2385C7.0014 24.0176 7.82219 24.7466 8.6762 25.256C9.74621 25.8952 10.557 25.0696 11.3712 24.2872C11.4875 24.3904 11.6005 24.5036 11.7201 24.6035C12.8931 25.5923 13.5544 25.0696 14.528 24.1274C15.1461 23.5282 16.3158 22.7824 16.0599 21.8136C15.9071 21.241 15.2392 20.6584 14.8504 20.2422C14.013 19.35 13.139 18.4877 12.2684 17.6288C12.1986 17.5589 12.1288 17.489 12.0624 17.4224C14.312 15.1153 16.7212 12.928 18.8712 10.5343C19.6322 11.3166 20.4065 12.0924 21.1907 12.8581C21.6991 13.3475 22.254 14.0699 22.8887 14.3862C23.9787 14.9255 24.7563 13.7869 25.4674 13.0545C26.2683 12.2255 26.996 11.603 26.2483 10.4744C26.0955 10.2413 25.9127 10.0183 25.7166 9.80186C26.461 9.02949 27.2851 8.19719 26.687 7.15848C26.2118 6.33616 25.4873 5.57711 24.7264 4.85467C24.9955 4.61164 25.278 4.30202 25.381 3.99241C25.5239 3.55628 25.072 3.2167 24.7795 2.96369L24.7663 2.95702ZM5.25682 23.2352C5.02753 23.0521 4.81818 22.7957 4.6188 22.596C4.49585 22.4728 4.36625 22.3496 4.2433 22.2264C4.21007 22.1931 4.08712 22.01 4.0273 22.0367C4.08712 21.9368 4.27321 21.7837 4.33302 21.7171C4.40945 21.6405 4.48256 21.5673 4.55899 21.4907C4.9511 21.9035 5.35651 22.343 5.77189 22.7724C5.61903 22.9389 5.43626 23.1087 5.2535 23.2319L5.25682 23.2352ZM8.71276 24.427C8.27744 24.164 7.89197 23.7113 7.51315 23.365C6.48301 22.4329 5.47614 21.4774 4.49917 20.4853C3.92761 19.906 3.17329 19.2768 2.74794 18.5776C2.24617 17.7553 2.96394 17.1894 3.57205 16.5535C4.63209 17.6554 5.84167 18.6609 6.88842 19.7495C8.17443 21.0912 9.49034 22.5494 10.8794 23.8344C10.1383 24.5502 9.73625 25.0396 8.71608 24.4237L8.71276 24.427ZM14.7042 21.0479C15.1727 21.5839 15.5848 21.8902 15.176 22.546C14.9501 22.9056 14.4383 23.2918 14.1426 23.5814C13.5743 24.1374 12.7901 24.4237 12.0424 23.9942C11.5008 23.6846 10.9957 22.9123 10.5471 22.4761C9.47373 21.4208 8.39375 20.3787 7.35364 19.2901C6.66246 18.571 5.94468 17.8918 5.22691 17.1993C4.662 16.6534 4.15358 16.0508 3.59531 15.4981C2.67151 14.5926 3.07692 13.7669 3.91432 12.928C4.31973 12.5218 5.05744 12.2089 5.65226 12.3387C5.99785 12.4186 6.44978 12.9979 6.72227 13.2443C7.29383 13.7636 7.84877 14.293 8.40704 14.8256C9.47705 15.8377 10.5437 16.8598 11.6005 17.8918C12.6472 18.9205 13.7405 19.936 14.7075 21.0446L14.7042 21.0479ZM11.5805 16.9596C11.1784 16.5568 10.7664 16.1573 10.3577 15.7611C11.3645 14.6725 12.4113 13.6105 13.4447 12.5485C14.651 11.3133 16.0899 10.1514 17.2031 8.83639C17.6018 9.24255 18.0006 9.65538 18.3994 10.0615C16.2494 12.4619 13.8335 14.6492 11.5805 16.9596ZM18.612 3.66281C19.2966 4.38192 19.9811 5.10103 20.6989 5.79351C21.7157 6.77229 22.696 7.78104 23.6796 8.79311C24.7663 9.90839 26.5241 10.997 24.9889 12.5817C24.733 12.8448 24.3476 13.424 23.992 13.5605C22.9851 13.95 22.5731 13.2842 21.9949 12.7249C20.9946 11.7628 20.011 10.7773 19.044 9.78189C18.0371 8.74651 17.0436 7.69781 16.05 6.64245C14.98 5.50386 12.7502 3.92915 14.3519 2.35111C15.3023 1.41227 15.9735 1.35901 17.1233 2.19797C17.6783 2.6008 18.1501 3.17342 18.6153 3.66614L18.612 3.66281ZM24.8959 6.10977C25.2082 6.4427 25.6336 6.80225 25.8695 7.19842C26.4477 8.17721 25.9193 8.62 25.2414 9.32579C24.7397 8.84305 24.1947 8.38362 23.7428 7.91754C22.8954 7.04196 22.0381 6.17636 21.1608 5.33075C20.0575 4.2654 19.044 3.09685 17.9308 2.0415C18.2266 1.76517 18.529 1.44224 18.8646 1.25247C19.5225 0.8796 19.5823 0.919554 20.2204 1.45223C21.0112 2.11141 21.719 2.9204 22.4534 3.63618C23.2809 4.44518 24.105 5.2575 24.8958 6.10312L24.8959 6.10977ZM24.2146 4.38192C23.7627 3.9691 23.3141 3.56627 22.9187 3.17675C22.8921 3.15012 22.8688 3.12681 22.8422 3.10018C22.9486 2.99365 23.0549 2.88711 23.1646 2.7839C23.3274 2.63409 23.2975 2.59747 23.4636 2.67071C23.5966 2.73064 23.7295 2.93705 23.8391 3.03359C23.9787 3.1601 24.1282 3.26997 24.2711 3.39315C24.3874 3.48969 24.4971 3.5929 24.6034 3.69944C24.6134 3.70942 24.6699 3.786 24.7098 3.81929C24.6998 3.84259 24.6898 3.8659 24.6765 3.87921C24.517 4.03902 24.3708 4.21213 24.2146 4.37526L24.2146 4.38192Z" fill="url(#paint0_linear_1_15470)"/>
</g>
<defs>
<linearGradient id="paint0_linear_1_15470" x1="8.62448" y1="7.17002" x2="20.1043" y2="18.6285" gradientUnits="userSpaceOnUse">
<stop stop-color="#BF9E77"/>
<stop offset="1" stop-color="#BD9D6F"/>
</linearGradient>
</defs>
</svg>
