<svg width="36" height="50" viewBox="0 0 36 50" fill="none" xmlns="http://www.w3.org/2000/svg">
<path opacity="0.5" d="M22.1084 38.1309C22.3845 38.1309 22.6084 38.3548 22.6084 38.6309C22.6084 38.907 22.3845 39.1308 22.1084 39.1309H1.125C0.848858 39.1309 0.625 38.907 0.625 38.6309C0.62501 38.3547 0.848864 38.1309 1.125 38.1309H22.1084ZM23.1084 20.334C24.1054 20.3967 25.3142 20.6458 26.3428 21.1699C27.5575 21.789 28.6054 22.8432 28.6055 24.4756C28.6055 26.1077 27.5583 27.1629 26.3438 27.7832C25.3151 28.3085 24.1058 28.558 23.1084 28.6211V30.6348C23.1084 32.5677 21.5413 34.1347 19.6084 34.1348H3.625C1.75228 34.1348 0.223433 32.6639 0.129883 30.8145L0.125 30.6348V16.6465H23.1084V20.334ZM1.125 30.6348L1.1377 30.8906C1.26583 32.1511 2.33067 33.1348 3.625 33.1348H19.6084C20.989 33.1347 22.1084 32.0154 22.1084 30.6348V17.6465H1.125V30.6348ZM23.1084 27.6182C23.9834 27.5556 25.0257 27.3333 25.8887 26.8926C26.916 26.3679 27.6055 25.5913 27.6055 24.4756C27.6054 23.3601 26.9159 22.5841 25.8887 22.0605C25.0258 21.6209 23.9836 21.3991 23.1084 21.3369V27.6182ZM8.45312 3.22266C8.60631 2.99296 8.91675 2.93084 9.14648 3.08398C9.37614 3.23716 9.43825 3.54762 9.28516 3.77734C9.0034 4.2 8.67709 4.86362 8.58496 5.47559C8.53955 5.77761 8.55591 6.0334 8.63184 6.2334C8.70277 6.42006 8.83629 6.58855 9.09277 6.7168C9.58837 6.96464 9.88045 7.35466 9.96484 7.8291C10.0432 8.27031 9.93178 8.72482 9.76562 9.12109C9.43231 9.9159 8.78624 10.702 8.30664 11.1816C8.11138 11.3769 7.79487 11.3769 7.59961 11.1816C7.40436 10.9864 7.40436 10.6699 7.59961 10.4746C8.03583 10.0384 8.58067 9.35921 8.84277 8.73438C8.97427 8.42075 9.0109 8.17527 8.98047 8.00391C8.9559 7.86619 8.8821 7.72966 8.64551 7.61133C8.16922 7.37317 7.85914 7.01479 7.69727 6.58887C7.54054 6.17643 7.53436 5.73371 7.5957 5.32617C7.71733 4.51836 8.12425 3.71599 8.45312 3.22266ZM12.1172 3.22266C12.2704 2.99296 12.5808 2.93084 12.8105 3.08398C13.0402 3.23716 13.1023 3.54762 12.9492 3.77734C12.6675 4.2 12.3411 4.86362 12.249 5.47559C12.2036 5.77761 12.22 6.0334 12.2959 6.2334C12.3668 6.42006 12.5004 6.58855 12.7568 6.7168C13.2524 6.96464 13.5445 7.35466 13.6289 7.8291C13.7073 8.27031 13.5958 8.72482 13.4297 9.12109C13.0964 9.9159 12.4503 10.702 11.9707 11.1816C11.7754 11.3769 11.4589 11.3769 11.2637 11.1816C11.0684 10.9864 11.0684 10.6699 11.2637 10.4746C11.6999 10.0384 12.2447 9.35921 12.5068 8.73438C12.6383 8.42075 12.675 8.17527 12.6445 8.00391C12.62 7.86619 12.5462 7.72966 12.3096 7.61133C11.8333 7.37317 11.5232 7.01479 11.3613 6.58887C11.2046 6.17643 11.1984 5.73371 11.2598 5.32617C11.3814 4.51836 11.7883 3.71599 12.1172 3.22266ZM15.7812 3.22266C15.9344 2.99296 16.2449 2.93084 16.4746 3.08398C16.7043 3.23716 16.7664 3.54762 16.6133 3.77734C16.3315 4.2 16.0052 4.86362 15.9131 5.47559C15.8677 5.77761 15.884 6.0334 15.96 6.2334C16.0309 6.42006 16.1644 6.58855 16.4209 6.7168C16.9165 6.96464 17.2086 7.35466 17.293 7.8291C17.3713 8.27031 17.2599 8.72482 17.0938 9.12109C16.7604 9.9159 16.1144 10.702 15.6348 11.1816C15.4395 11.3769 15.123 11.3769 14.9277 11.1816C14.7325 10.9864 14.7325 10.6699 14.9277 10.4746C15.3639 10.0384 15.9088 9.35921 16.1709 8.73438C16.3024 8.42075 16.339 8.17527 16.3086 8.00391C16.284 7.86619 16.2102 7.72966 15.9736 7.61133C15.4973 7.37317 15.1873 7.01479 15.0254 6.58887C14.8687 6.17643 14.8625 5.73371 14.9238 5.32617C15.0455 4.51836 15.4524 3.71599 15.7812 3.22266Z" fill="url(#paint0_linear_1_14482)"/>
<defs>
<linearGradient id="paint0_linear_1_14482" x1="14.3652" y1="3" x2="14.3652" y2="39.1309" gradientUnits="userSpaceOnUse">
<stop stop-color="#BF9E77"/>
<stop offset="1" stop-color="#BD9D6F"/>
</linearGradient>
</defs>
</svg>
