<svg width="60" height="50" viewBox="0 0 60 50" fill="none" xmlns="http://www.w3.org/2000/svg">
<path opacity="0.5" d="M26.1084 34.8809C26.4535 34.8809 26.7334 35.1607 26.7334 35.5059C26.7334 35.851 26.4535 36.1308 26.1084 36.1309H5.375C5.02982 36.1309 4.75 35.851 4.75 35.5059C4.75 35.1607 5.02982 34.8809 5.375 34.8809H26.1084ZM27.3584 17.2188C28.3456 17.2941 29.5179 17.5457 30.5244 18.0586C31.7626 18.6896 32.8554 19.7785 32.8555 21.4756C32.8555 23.1724 31.7634 24.2622 30.5254 24.8945C29.5188 25.4086 28.346 25.6606 27.3584 25.7363V27.6348C27.3584 29.6367 25.7354 31.2597 23.7334 31.2598H7.75C5.74798 31.2598 4.12501 29.6368 4.125 27.6348V13.5215H27.3584V17.2188ZM5.375 27.6348C5.37501 28.9464 6.43833 30.0098 7.75 30.0098H23.7334C25.045 30.0097 26.1084 28.9464 26.1084 27.6348V14.7715H5.375V27.6348ZM27.3584 24.4824C28.1908 24.4082 29.1551 24.1908 29.957 23.7812C30.9608 23.2685 31.6055 22.5266 31.6055 21.4756C31.6054 20.4247 30.9608 19.6844 29.957 19.1729C29.1551 18.7642 28.191 18.5466 27.3584 18.4727V24.4824ZM12.5781 0.222656C12.7313 -0.0070514 13.0417 -0.0691705 13.2715 0.0839844C13.5011 0.237168 13.5633 0.547617 13.4102 0.777344C13.1284 1.2 12.8021 1.86361 12.71 2.47559C12.6645 2.77762 12.6809 3.0334 12.7568 3.2334C12.8278 3.42006 12.9613 3.58855 13.2178 3.7168C13.7134 3.96464 14.0055 4.35465 14.0898 4.8291C14.1682 5.27032 14.0568 5.72481 13.8906 6.12109C13.5573 6.91591 12.9112 7.702 12.4316 8.18164C12.2364 8.37689 11.9199 8.37689 11.7246 8.18164C11.5293 7.98639 11.5294 7.66988 11.7246 7.47461C12.1608 7.03835 12.7057 6.35922 12.9678 5.73438C13.0993 5.42075 13.1359 5.17528 13.1055 5.00391C13.0809 4.86618 13.0071 4.72967 12.7705 4.61133C12.2942 4.37317 11.9841 4.01479 11.8223 3.58887C11.6655 3.17643 11.6594 2.73371 11.7207 2.32617C11.8423 1.51835 12.2492 0.715994 12.5781 0.222656ZM16.2422 0.222656C16.3954 -0.0070514 16.7058 -0.0691705 16.9355 0.0839844C17.1652 0.237168 17.2273 0.547617 17.0742 0.777344C16.7925 1.2 16.4661 1.86361 16.374 2.47559C16.3286 2.77762 16.345 3.0334 16.4209 3.2334C16.4918 3.42006 16.6253 3.58855 16.8818 3.7168C17.3774 3.96464 17.6695 4.35465 17.7539 4.8291C17.8323 5.27032 17.7209 5.72481 17.5547 6.12109C17.2214 6.91591 16.5753 7.702 16.0957 8.18164C15.9004 8.37689 15.5839 8.37689 15.3887 8.18164C15.1934 7.98639 15.1934 7.66988 15.3887 7.47461C15.8249 7.03835 16.3697 6.35922 16.6318 5.73438C16.7633 5.42075 16.8 5.17528 16.7695 5.00391C16.745 4.86618 16.6712 4.72967 16.4346 4.61133C15.9583 4.37317 15.6482 4.01479 15.4863 3.58887C15.3296 3.17643 15.3234 2.73371 15.3848 2.32617C15.5064 1.51835 15.9133 0.715994 16.2422 0.222656ZM19.9062 0.222656C20.0594 -0.0070514 20.3699 -0.0691705 20.5996 0.0839844C20.8293 0.237168 20.8914 0.547617 20.7383 0.777344C20.4565 1.2 20.1302 1.86361 20.0381 2.47559C19.9927 2.77762 20.009 3.0334 20.085 3.2334C20.1559 3.42006 20.2894 3.58855 20.5459 3.7168C21.0415 3.96464 21.3336 4.35465 21.418 4.8291C21.4963 5.27032 21.3849 5.72481 21.2188 6.12109C20.8854 6.91591 20.2394 7.702 19.7598 8.18164C19.5645 8.37689 19.248 8.37689 19.0527 8.18164C18.8575 7.98639 18.8575 7.66988 19.0527 7.47461C19.489 7.03835 20.0338 6.35922 20.2959 5.73438C20.4274 5.42075 20.464 5.17528 20.4336 5.00391C20.409 4.86618 20.3352 4.72967 20.0986 4.61133C19.6223 4.37317 19.3123 4.01479 19.1504 3.58887C18.9937 3.17643 18.9875 2.73371 19.0488 2.32617C19.1704 1.51835 19.5774 0.715994 19.9062 0.222656Z" fill="url(#paint0_linear_1_15738)"/>
<defs>
<linearGradient id="paint0_linear_1_15738" x1="18.4902" y1="0" x2="18.4902" y2="36.1309" gradientUnits="userSpaceOnUse">
<stop stop-color="#BF9E77"/>
<stop offset="1" stop-color="#BD9D6F"/>
</linearGradient>
</defs>
</svg>
