<svg width="28" height="26" viewBox="0 0 28 26" fill="none" xmlns="http://www.w3.org/2000/svg">
<g opacity="0.5">
<path d="M10.4154 14.6213C10.2509 14.6213 10.1172 14.4764 10.1172 14.2973V3.27022C10.1172 2.0183 11.0524 1 12.2023 1C13.3521 1 14.2873 2.0183 14.2873 3.27022C14.2873 3.44932 14.1542 3.59488 13.9892 3.59488C13.8241 3.59488 13.6915 3.44992 13.6915 3.27022C13.6915 2.37591 13.0231 1.64872 12.2017 1.64872C11.3803 1.64872 10.7125 2.37591 10.7125 3.27022V14.2973C10.7125 14.477 10.5793 14.6213 10.4148 14.6213H10.4154Z" fill="url(#paint0_linear_1_15449)"/>
<path d="M16.9851 14.6213C16.8206 14.6213 16.6875 14.4764 16.6875 14.2973V3.27022C16.6875 2.0183 17.6228 1 18.7726 1C19.9224 1 20.8577 2.0183 20.8577 3.27022C20.8577 3.44932 20.7245 3.59488 20.56 3.59488C20.3955 3.59488 20.2618 3.44992 20.2618 3.27022C20.2618 2.37591 19.594 1.64872 18.7726 1.64872C17.9512 1.64872 17.2828 2.37591 17.2828 3.27022V14.2973C17.2828 14.477 17.1496 14.6213 16.9851 14.6213Z" fill="url(#paint1_linear_1_15449)"/>
<path d="M13.9998 22.405C10.9333 22.405 8.04553 21.7869 5.86858 20.6643C3.62066 19.5047 2.38281 17.9347 2.38281 16.2431C2.38281 14.5515 3.62066 12.9809 5.86858 11.8219C8.04553 10.6987 10.9333 10.0806 13.9998 10.0806C17.0664 10.0806 19.9541 10.6987 22.1311 11.8219C24.379 12.9809 25.6168 14.5509 25.6168 16.2431C25.6168 17.9353 24.379 19.5047 22.1311 20.6643C19.9541 21.7869 17.0664 22.405 13.9998 22.405ZM13.9998 10.7299C11.0197 10.7299 8.22213 11.3259 6.1233 12.4083C4.09544 13.4547 2.97863 14.8163 2.97863 16.2431C2.97863 17.6699 4.09544 19.0321 6.1233 20.0779C8.22213 21.1609 11.0191 21.7569 13.9998 21.7569C16.9805 21.7569 19.7775 21.1609 21.8769 20.0779C23.9048 19.0321 25.0216 17.6699 25.0216 16.2431C25.0216 14.8163 23.9048 13.4541 21.8769 12.4083C19.7775 11.3259 16.9805 10.7299 13.9998 10.7299Z" fill="url(#paint2_linear_1_15449)"/>
<path d="M13.9997 24.9997C10.2928 24.9997 6.80318 24.1809 4.17401 22.6935C1.48266 21.1709 0 19.1229 0 16.9251C0 16.746 0.133137 16.6011 0.298182 16.6011C0.463228 16.6011 0.595815 16.746 0.595815 16.9251C0.595815 18.8683 1.96404 20.7126 4.44853 22.1173C6.99519 23.5573 10.3874 24.3504 14.0003 24.3504C17.6131 24.3504 21.0054 23.5573 23.552 22.1173C26.0365 20.7126 27.4047 18.8683 27.4047 16.9251C27.4047 16.746 27.5379 16.6011 27.7024 16.6011C27.8669 16.6011 28 16.746 28 16.9251C28 19.1223 26.5179 21.1709 23.826 22.6935C21.1963 24.1809 17.7067 24.9997 13.9997 24.9997Z" fill="url(#paint3_linear_1_15449)"/>
<path d="M16.9682 5.53972H10.4154C10.2509 5.53972 10.1172 5.39476 10.1172 5.21566C10.1172 5.03656 10.2503 4.8916 10.4154 4.8916H16.9682C17.1333 4.8916 17.2664 5.03656 17.2664 5.21566C17.2664 5.39476 17.1333 5.53972 16.9682 5.53972Z" fill="url(#paint4_linear_1_15449)"/>
<path d="M16.9682 8.13407H10.4154C10.2509 8.13407 10.1172 7.98911 10.1172 7.80941C10.1172 7.62971 10.2503 7.48535 10.4154 7.48535H16.9682C17.1333 7.48535 17.2664 7.63031 17.2664 7.80941C17.2664 7.98851 17.1333 8.13407 16.9682 8.13407Z" fill="url(#paint5_linear_1_15449)"/>
<path d="M14.0068 15.9189C13.9392 15.9189 13.871 15.8937 13.8148 15.8422C13.7934 15.823 11.65 13.8865 10.4551 14.9898C9.20402 16.1459 7.83139 15.6386 7.28069 15.2091C7.147 15.1048 7.11619 14.9024 7.21192 14.7568C7.30764 14.6119 7.49305 14.5777 7.62673 14.6813C7.67955 14.7215 8.86788 15.6062 10.07 14.4957C11.6478 13.0377 14.096 15.251 14.1989 15.3462C14.3248 15.4618 14.3408 15.6667 14.2346 15.8033C14.1757 15.8794 14.0916 15.9189 14.0068 15.9189Z" fill="url(#paint6_linear_1_15449)"/>
<path d="M14.0011 15.9189C13.9164 15.9189 13.8323 15.8799 13.7734 15.8033C13.6672 15.6661 13.6832 15.4612 13.8091 15.3462C13.9126 15.251 16.3608 13.0377 17.9386 14.4957C19.1517 15.6164 20.3692 14.6909 20.3813 14.6819C20.5144 14.5783 20.7009 14.6113 20.7966 14.7568C20.8924 14.9024 20.8621 15.1048 20.7284 15.2091C20.1772 15.6386 18.8045 16.1459 17.554 14.9898C16.3553 13.8835 14.2152 15.8218 14.1937 15.8422C14.1376 15.8937 14.0699 15.9189 14.0017 15.9189H14.0011Z" fill="url(#paint7_linear_1_15449)"/>
<path d="M14.0069 18.5131C13.9436 18.5131 13.8803 18.4916 13.8264 18.446C13.805 18.4281 11.6594 16.6742 10.4551 17.7871C9.19193 18.954 7.8138 18.2975 7.26145 17.7871C7.13601 17.6709 7.12061 17.4661 7.22679 17.3301C7.33297 17.1935 7.52002 17.1774 7.64545 17.2918C7.69552 17.3373 8.88 18.3915 10.0694 17.2918C11.6385 15.8422 14.0844 17.844 14.1873 17.9303C14.3183 18.0393 14.343 18.243 14.2434 18.3849C14.1851 18.4682 14.0965 18.5125 14.0063 18.5125L14.0069 18.5131Z" fill="url(#paint8_linear_1_15449)"/>
<path d="M14.0011 18.5137C13.9114 18.5137 13.8223 18.4694 13.764 18.3862C13.6644 18.2436 13.6897 18.0405 13.8201 17.9315C13.9235 17.8453 16.3695 15.844 17.938 17.293C19.1274 18.3921 20.3125 17.3379 20.362 17.293C20.488 17.178 20.6761 17.1959 20.7812 17.3325C20.8868 17.4697 20.8714 17.6727 20.7465 17.7884C20.1942 18.2987 18.8155 18.9552 17.5523 17.7884C16.3486 16.676 14.203 18.4293 14.181 18.4479C14.1271 18.4928 14.0638 18.5143 14.0006 18.5143L14.0011 18.5137Z" fill="url(#paint9_linear_1_15449)"/>
<path d="M25.3654 5.88834H18.9402C18.8135 5.88834 18.7109 5.73937 18.7109 5.55532C18.7109 5.37126 18.8135 5.22168 18.9402 5.22168H25.3654C25.4922 5.22168 25.5947 5.37065 25.5947 5.55532C25.5947 5.73999 25.4922 5.88834 25.3654 5.88834Z" fill="url(#paint10_linear_1_15449)"/>
<path d="M8.467 6.55435H2.04178C1.91506 6.55435 1.8125 6.40539 1.8125 6.22133C1.8125 6.03728 1.91506 5.8877 2.04178 5.8877H8.467C8.59372 5.8877 8.69627 6.03666 8.69627 6.22133C8.69627 6.406 8.59372 6.55435 8.467 6.55435Z" fill="url(#paint11_linear_1_15449)"/>
<path d="M20.9217 8.05009H18.8091C18.7118 8.05009 18.6328 7.90469 18.6328 7.72445C18.6328 7.54421 18.7115 7.39941 18.8091 7.39941H20.9217C21.0193 7.39941 21.098 7.54481 21.098 7.72445C21.098 7.90409 21.0193 8.05009 20.9217 8.05009Z" fill="url(#paint12_linear_1_15449)"/>
<path d="M8.48424 8.71708H6.37156C6.27433 8.71708 6.19531 8.57168 6.19531 8.39144C6.19531 8.2112 6.274 8.06641 6.37156 8.06641H8.48424C8.58179 8.06641 8.66048 8.2118 8.66048 8.39144C8.66048 8.57108 8.58179 8.71708 8.48424 8.71708Z" fill="url(#paint13_linear_1_15449)"/>
</g>
<defs>
<linearGradient id="paint0_linear_1_15449" x1="12.2023" y1="1" x2="12.2023" y2="14.6213" gradientUnits="userSpaceOnUse">
<stop stop-color="#BF9E77"/>
<stop offset="1" stop-color="#BD9D6F"/>
</linearGradient>
<linearGradient id="paint1_linear_1_15449" x1="18.7726" y1="1" x2="18.7726" y2="14.6213" gradientUnits="userSpaceOnUse">
<stop stop-color="#BF9E77"/>
<stop offset="1" stop-color="#BD9D6F"/>
</linearGradient>
<linearGradient id="paint2_linear_1_15449" x1="13.9998" y1="10.0806" x2="13.9998" y2="22.405" gradientUnits="userSpaceOnUse">
<stop stop-color="#BF9E77"/>
<stop offset="1" stop-color="#BD9D6F"/>
</linearGradient>
<linearGradient id="paint3_linear_1_15449" x1="14" y1="16.6011" x2="14" y2="24.9997" gradientUnits="userSpaceOnUse">
<stop stop-color="#BF9E77"/>
<stop offset="1" stop-color="#BD9D6F"/>
</linearGradient>
<linearGradient id="paint4_linear_1_15449" x1="13.6918" y1="4.8916" x2="13.6918" y2="5.53972" gradientUnits="userSpaceOnUse">
<stop stop-color="#BF9E77"/>
<stop offset="1" stop-color="#BD9D6F"/>
</linearGradient>
<linearGradient id="paint5_linear_1_15449" x1="13.6918" y1="7.48535" x2="13.6918" y2="8.13407" gradientUnits="userSpaceOnUse">
<stop stop-color="#BF9E77"/>
<stop offset="1" stop-color="#BD9D6F"/>
</linearGradient>
<linearGradient id="paint6_linear_1_15449" x1="10.7306" y1="14" x2="10.7306" y2="15.9189" gradientUnits="userSpaceOnUse">
<stop stop-color="#BF9E77"/>
<stop offset="1" stop-color="#BD9D6F"/>
</linearGradient>
<linearGradient id="paint7_linear_1_15449" x1="17.2778" y1="14" x2="17.2778" y2="15.9189" gradientUnits="userSpaceOnUse">
<stop stop-color="#BF9E77"/>
<stop offset="1" stop-color="#BD9D6F"/>
</linearGradient>
<linearGradient id="paint8_linear_1_15449" x1="10.7304" y1="16.7666" x2="10.7304" y2="18.5131" gradientUnits="userSpaceOnUse">
<stop stop-color="#BF9E77"/>
<stop offset="1" stop-color="#BD9D6F"/>
</linearGradient>
<linearGradient id="paint9_linear_1_15449" x1="17.2772" y1="16.7681" x2="17.2772" y2="18.5143" gradientUnits="userSpaceOnUse">
<stop stop-color="#BF9E77"/>
<stop offset="1" stop-color="#BD9D6F"/>
</linearGradient>
<linearGradient id="paint10_linear_1_15449" x1="22.1528" y1="5.22168" x2="22.1528" y2="5.88834" gradientUnits="userSpaceOnUse">
<stop stop-color="#BF9E77"/>
<stop offset="1" stop-color="#BD9D6F"/>
</linearGradient>
<linearGradient id="paint11_linear_1_15449" x1="5.25439" y1="5.8877" x2="5.25439" y2="6.55435" gradientUnits="userSpaceOnUse">
<stop stop-color="#BF9E77"/>
<stop offset="1" stop-color="#BD9D6F"/>
</linearGradient>
<linearGradient id="paint12_linear_1_15449" x1="19.8654" y1="7.39941" x2="19.8654" y2="8.05009" gradientUnits="userSpaceOnUse">
<stop stop-color="#BF9E77"/>
<stop offset="1" stop-color="#BD9D6F"/>
</linearGradient>
<linearGradient id="paint13_linear_1_15449" x1="7.4279" y1="8.06641" x2="7.4279" y2="8.71708" gradientUnits="userSpaceOnUse">
<stop stop-color="#BF9E77"/>
<stop offset="1" stop-color="#BD9D6F"/>
</linearGradient>
</defs>
</svg>
