<svg width="28" height="26" viewBox="0 0 28 26" fill="none" xmlns="http://www.w3.org/2000/svg">
<g opacity="0.5">
<path d="M12.1329 5.53466C12.1257 3.91143 12.1853 2.30334 14.0449 2.1499C15.918 2.17514 16.0472 3.92758 16.0418 5.53466C21.2852 6.69252 24.7704 11.3351 24.7523 17.3677C25.3496 17.3758 25.9477 17.3667 26.5441 17.3657C27.2362 17.3657 27.8868 17.1729 27.8895 18.2298C27.8995 21.5257 26.9832 22.3171 24.0999 22.3131H14.1081H3.92298C3.46938 22.3131 2.98144 22.3515 2.53417 22.2646C1.31795 22.0284 0.404439 20.7999 0.305949 19.4492C0.278842 19.0727 0.209272 17.7553 0.425228 17.4999C0.637569 17.2496 1.39565 17.3627 1.66944 17.3637L3.53263 17.3657C3.49106 11.5743 6.92375 6.50476 12.132 5.53264L12.1329 5.53466ZM14.0449 3.15634C12.9344 3.38549 13.0048 4.33844 13.0121 5.37416H14.2608C14.5617 5.38324 14.8626 5.39738 15.1635 5.37416C15.1671 4.5373 15.2132 3.03723 14.0458 3.15634H14.0449ZM13.5262 6.34022C8.12553 6.9247 4.41 11.1201 4.4353 17.3677H23.827C23.9824 14.7915 23.0147 11.9862 21.5093 10.0591C19.4799 7.46174 16.5767 6.21505 13.5262 6.33921V6.34022ZM15.3524 18.3792H1.18603C1.1779 20.9059 1.85378 21.3097 4.01243 21.3097H12.9154H24.1532C26.2278 21.3117 26.9986 21.0412 26.9877 18.5033V18.3792H15.3524Z" fill="url(#paint0_linear_1_15440)"/>
<path d="M10.1708 9.92069C9.78222 9.99842 9.50302 9.47854 9.7488 9.12118C10.0262 8.71942 11.3951 8.25001 11.8632 8.17127C12.3375 8.12282 12.6285 8.84359 12.155 9.10807C11.7529 9.33217 10.7084 9.67034 10.1708 9.92069Z" fill="url(#paint1_linear_1_15440)"/>
<path d="M6.80489 14.0769C5.16489 14.3929 7.75818 10.2783 8.69429 9.9209C8.98162 9.9209 9.31864 10.1692 9.22015 10.5336C9.19847 10.6134 7.844 12.1821 7.54853 12.7424C7.31902 13.1785 7.23138 13.8366 6.80489 14.0769Z" fill="url(#paint2_linear_1_15440)"/>
</g>
<defs>
<linearGradient id="paint0_linear_1_15440" x1="14.0815" y1="2.1499" x2="14.0815" y2="22.3215" gradientUnits="userSpaceOnUse">
<stop stop-color="#BF9E77"/>
<stop offset="1" stop-color="#BD9D6F"/>
</linearGradient>
<linearGradient id="paint1_linear_1_15440" x1="11.0263" y1="8.16895" x2="11.0263" y2="9.9285" gradientUnits="userSpaceOnUse">
<stop stop-color="#BF9E77"/>
<stop offset="1" stop-color="#BD9D6F"/>
</linearGradient>
<linearGradient id="paint2_linear_1_15440" x1="7.75554" y1="9.9209" x2="7.75554" y2="14.0942" gradientUnits="userSpaceOnUse">
<stop stop-color="#BF9E77"/>
<stop offset="1" stop-color="#BD9D6F"/>
</linearGradient>
</defs>
</svg>
