<svg width="28" height="26" viewBox="0 0 28 26" fill="none" xmlns="http://www.w3.org/2000/svg">
<path opacity="0.5" d="M15.7666 25.0991C16.0151 25.0991 16.2167 25.3009 16.2168 25.5493C16.2167 25.7978 16.0151 25.9995 15.7666 25.9995H0.90332C0.654825 25.9995 0.453179 25.7978 0.453125 25.5493C0.453231 25.3009 0.654857 25.0991 0.90332 25.0991H15.7666ZM16.667 12.436C17.3734 12.4909 18.2105 12.6721 18.9297 13.0386C19.8179 13.4913 20.6016 14.2728 20.6016 15.4907C20.6015 16.7081 19.8186 17.4903 18.9307 17.9438C18.2115 18.3111 17.3737 18.4913 16.667 18.5464V19.0581C16.667 20.9635 15.1221 22.5083 13.2168 22.5083H3.45312C1.54774 22.5083 0.00292969 20.9635 0.00292969 19.0581V9.78467H16.667V12.436ZM0.90332 19.0581C0.90332 20.4664 2.0448 21.6079 3.45312 21.6079H13.2168C14.6251 21.6079 15.7666 20.4664 15.7666 19.0581V10.6851H0.90332V19.0581ZM16.667 17.645C17.2616 17.5909 17.9486 17.4342 18.5205 17.1421C19.24 16.7746 19.7021 16.2435 19.7021 15.4907C19.7021 14.7381 19.2409 14.207 18.5215 13.8403C17.9494 13.5488 17.262 13.3919 16.667 13.3384V17.645ZM5.98535 0.199707C6.12326 -0.00689669 6.40266 -0.0621197 6.60938 0.0756836C6.81604 0.213575 6.87219 0.492969 6.73438 0.699707C6.53672 0.996288 6.30947 1.45868 6.24609 1.87939C6.21493 2.08653 6.22824 2.25337 6.27539 2.37744C6.31795 2.48937 6.39775 2.59243 6.56152 2.67432C6.9406 2.86394 7.17043 3.16747 7.23633 3.53857C7.29671 3.87935 7.2091 4.22362 7.08691 4.51514C6.84139 5.10063 6.36936 5.67504 6.02148 6.02295C5.84578 6.19855 5.56048 6.19855 5.38477 6.02295C5.20905 5.84725 5.20912 5.56198 5.38477 5.38623C5.69365 5.07733 6.07543 4.60005 6.25684 4.16748C6.34789 3.95031 6.36698 3.79402 6.34961 3.6958C6.33752 3.62772 6.30441 3.5531 6.1582 3.47998C5.7967 3.29917 5.55895 3.02399 5.43457 2.69678C5.31488 2.38169 5.31103 2.04738 5.35645 1.74561C5.44635 1.14846 5.74522 0.55994 5.98535 0.199707ZM8.61035 0.199707C8.74826 -0.00689669 9.02766 -0.0621197 9.23438 0.0756836C9.44104 0.213575 9.49719 0.492969 9.35938 0.699707C9.16172 0.996288 8.93447 1.45868 8.87109 1.87939C8.83993 2.08653 8.85324 2.25337 8.90039 2.37744C8.94295 2.48937 9.02275 2.59243 9.18652 2.67432C9.56559 2.86394 9.79543 3.16747 9.86133 3.53857C9.92171 3.87935 9.8341 4.22362 9.71191 4.51514C9.46639 5.10063 8.99436 5.67504 8.64648 6.02295C8.47078 6.19855 8.18548 6.19855 8.00977 6.02295C7.83405 5.84725 7.83412 5.56198 8.00977 5.38623C8.31864 5.07733 8.70043 4.60005 8.88184 4.16748C8.97289 3.95031 8.99198 3.79402 8.97461 3.6958C8.96252 3.62772 8.92941 3.5531 8.7832 3.47998C8.4217 3.29917 8.18395 3.02399 8.05957 2.69678C7.93988 2.38169 7.93603 2.04738 7.98145 1.74561C8.07135 1.14846 8.37022 0.55994 8.61035 0.199707ZM11.2354 0.199707C11.3733 -0.00689669 11.6527 -0.0621197 11.8594 0.0756836C12.066 0.213575 12.1222 0.492969 11.9844 0.699707C11.7867 0.996288 11.5595 1.45868 11.4961 1.87939C11.4649 2.08653 11.4782 2.25337 11.5254 2.37744C11.568 2.48937 11.6478 2.59243 11.8115 2.67432C12.1906 2.86394 12.4204 3.16747 12.4863 3.53857C12.5467 3.87935 12.4591 4.22362 12.3369 4.51514C12.0914 5.10063 11.6194 5.67504 11.2715 6.02295C11.0958 6.19855 10.8105 6.19855 10.6348 6.02295C10.4591 5.84725 10.4591 5.56198 10.6348 5.38623C10.9436 5.07733 11.3254 4.60005 11.5068 4.16748C11.5979 3.95031 11.617 3.79402 11.5996 3.6958C11.5875 3.62772 11.5544 3.5531 11.4082 3.47998C11.0467 3.29917 10.8089 3.02399 10.6846 2.69678C10.5649 2.38169 10.561 2.04738 10.6064 1.74561C10.6963 1.14846 10.9952 0.55994 11.2354 0.199707Z" fill="url(#paint0_linear_1_15479)"/>
<defs>
<linearGradient id="paint0_linear_1_15479" x1="10.3022" y1="-0.000488281" x2="10.3022" y2="25.999" gradientUnits="userSpaceOnUse">
<stop stop-color="#BF9E77"/>
<stop offset="1" stop-color="#BD9D6F"/>
</linearGradient>
</defs>
</svg>
