<svg width="60" height="50" viewBox="0 0 60 50" fill="none" xmlns="http://www.w3.org/2000/svg">
<g opacity="0.5">
<path d="M21.5609 13.9429C21.5502 11.8619 21.6378 9.80023 24.3681 9.60352C27.1183 9.63587 27.308 11.8826 27.3 13.9429C34.9986 15.4274 40.1156 21.3793 40.0891 29.1134C40.966 29.1238 41.8442 29.1121 42.7198 29.1108C43.736 29.1108 44.6913 28.8636 44.6952 30.2187C44.7098 34.4442 43.3646 35.4588 39.1312 35.4536H24.461H9.50681C8.84083 35.4536 8.12441 35.5028 7.46771 35.3915C5.68202 35.0887 4.34078 33.5137 4.19617 31.782C4.15637 31.2993 4.05423 29.6104 4.3713 29.283C4.68307 28.962 5.79611 29.107 6.19809 29.1082L8.93368 29.1108C8.87266 21.6861 13.9126 15.1866 21.5595 13.9403L21.5609 13.9429ZM24.3681 10.8938C22.7376 11.1876 22.8411 12.4093 22.8517 13.7372H24.6852C25.1269 13.7488 25.5687 13.7669 26.0105 13.7372C26.0158 12.6643 26.0835 10.7411 24.3694 10.8938H24.3681ZM23.6066 14.9757C15.6771 15.725 10.2219 21.1037 10.259 29.1134H38.7306C38.9587 25.8106 37.5379 22.2141 35.3276 19.7435C32.348 16.4135 28.0854 14.8152 23.6066 14.9744V14.9757ZM26.2878 30.4102H5.48834C5.4764 33.6495 6.46875 34.1672 9.63815 34.1672H22.7098H39.2095C42.2555 34.1698 43.3871 33.823 43.3712 30.5694V30.4102H26.2878Z" fill="url(#paint0_linear_1_15699)"/>
<path d="M18.6773 19.5661C18.1068 19.6658 17.6969 18.9993 18.0578 18.5411C18.465 18.026 20.4749 17.4242 21.1621 17.3233C21.8586 17.2612 22.2858 18.1852 21.5906 18.5243C21.0003 18.8116 19.4667 19.2452 18.6773 19.5661Z" fill="url(#paint1_linear_1_15699)"/>
<path d="M13.7412 24.8946C11.3333 25.2997 15.1409 20.0245 16.5153 19.5664C16.9372 19.5664 17.432 19.8848 17.2874 20.352C17.2556 20.4542 15.2669 22.4654 14.8331 23.1837C14.4961 23.7428 14.3674 24.5866 13.7412 24.8946Z" fill="url(#paint2_linear_1_15699)"/>
</g>
<defs>
<linearGradient id="paint0_linear_1_15699" x1="24.4219" y1="9.60352" x2="24.4219" y2="35.4645" gradientUnits="userSpaceOnUse">
<stop stop-color="#BF9E77"/>
<stop offset="1" stop-color="#BD9D6F"/>
</linearGradient>
<linearGradient id="paint1_linear_1_15699" x1="19.9334" y1="17.3203" x2="19.9334" y2="19.5761" gradientUnits="userSpaceOnUse">
<stop stop-color="#BF9E77"/>
<stop offset="1" stop-color="#BD9D6F"/>
</linearGradient>
<linearGradient id="paint2_linear_1_15699" x1="15.137" y1="19.5664" x2="15.137" y2="24.9167" gradientUnits="userSpaceOnUse">
<stop stop-color="#BF9E77"/>
<stop offset="1" stop-color="#BD9D6F"/>
</linearGradient>
</defs>
</svg>
