<svg width="36" height="50" viewBox="0 0 36 50" fill="none" xmlns="http://www.w3.org/2000/svg">
<g opacity="0.5">
<path d="M13.3126 15.9656C13.3045 14.3746 13.3714 12.7983 15.4589 12.6479C17.5615 12.6727 17.7065 14.3904 17.7004 15.9656C23.5864 17.1006 27.4986 21.6511 27.4783 27.5642C28.1487 27.5721 28.8202 27.5632 29.4896 27.5622C30.2666 27.5622 30.9969 27.3732 30.9999 28.4092C31.0111 31.6398 29.9826 32.4155 26.7459 32.4116H15.5299H4.09672C3.58755 32.4116 3.03982 32.4492 2.53774 32.3641C1.1725 32.1325 0.147053 30.9284 0.0364951 29.6045C0.00606622 29.2354 -0.0720276 27.9441 0.170389 27.6938C0.408749 27.4484 1.25972 27.5592 1.56705 27.5602L3.65854 27.5622C3.61188 21.8856 7.46519 16.9165 13.3116 15.9637L13.3126 15.9656ZM15.4589 13.6344C14.2123 13.8591 14.2914 14.7931 14.2995 15.8083H15.7013C16.039 15.8172 16.3768 15.8311 16.7146 15.8083C16.7186 14.988 16.7704 13.5177 15.4599 13.6344H15.4589ZM14.8767 16.7552C8.81422 17.3281 4.64342 21.4404 4.67182 27.5642H26.4396C26.6141 25.0391 25.5278 22.2893 23.838 20.4004C21.5598 17.8545 18.3009 16.6325 14.8767 16.7542V16.7552ZM16.9266 28.5556H1.02442C1.01529 31.0323 1.77399 31.428 4.19714 31.428H14.191H26.8058C29.1346 31.43 29.9998 31.1648 29.9876 28.6773V28.5556H16.9266Z" fill="url(#paint0_linear_1_14443)"/>
<path d="M11.1088 20.2649C10.6727 20.3411 10.3592 19.8315 10.6351 19.4812C10.9465 19.0874 12.4832 18.6273 13.0086 18.5501C13.5411 18.5026 13.8677 19.2091 13.3362 19.4684C12.8848 19.688 11.7123 20.0195 11.1088 20.2649Z" fill="url(#paint1_linear_1_14443)"/>
<path d="M7.33094 24.3388C5.49 24.6485 8.40104 20.6154 9.45185 20.2651C9.7744 20.2651 10.1527 20.5085 10.0422 20.8657C10.0178 20.9439 8.49738 22.4815 8.16571 23.0307C7.90808 23.4582 7.80969 24.1033 7.33094 24.3388Z" fill="url(#paint2_linear_1_14443)"/>
</g>
<defs>
<linearGradient id="paint0_linear_1_14443" x1="15.5" y1="12.6479" x2="15.5" y2="32.4199" gradientUnits="userSpaceOnUse">
<stop stop-color="#BF9E77"/>
<stop offset="1" stop-color="#BD9D6F"/>
</linearGradient>
<linearGradient id="paint1_linear_1_14443" x1="12.0691" y1="18.5479" x2="12.0691" y2="20.2725" gradientUnits="userSpaceOnUse">
<stop stop-color="#BF9E77"/>
<stop offset="1" stop-color="#BD9D6F"/>
</linearGradient>
<linearGradient id="paint2_linear_1_14443" x1="8.39808" y1="20.2651" x2="8.39808" y2="24.3557" gradientUnits="userSpaceOnUse">
<stop stop-color="#BF9E77"/>
<stop offset="1" stop-color="#BD9D6F"/>
</linearGradient>
</defs>
</svg>
