<svg width="36" height="51" viewBox="0 0 36 51" fill="none" xmlns="http://www.w3.org/2000/svg">
<g opacity="0.5">
<path d="M25.3652 11.6625C25.1614 11.489 24.9468 11.3262 24.7466 11.1422C24.5213 10.9334 24.3353 10.6573 24.0135 10.6148C23.4878 10.5405 23.1231 10.9865 22.7869 11.3333C22.2755 10.8484 21.7606 10.36 21.26 9.86447C20.9131 9.52115 20.4375 8.82389 19.9189 8.72833C19.0678 8.5726 18.113 9.63795 17.4908 10.2255C17.3978 10.1476 17.3156 10.0591 17.2262 9.98481C15.8208 8.81327 14.9125 9.30879 13.6645 10.5299C12.2841 11.8748 12.4129 12.7101 13.6609 14.1365C14.6479 15.262 15.6921 16.3451 16.7434 17.421C15.5419 18.8226 13.9935 20.0579 12.6918 21.3745C11.5761 22.5071 10.4496 23.6362 9.36251 24.7971C8.28612 23.7671 7.19901 22.7478 6.06899 21.778C4.64215 20.5498 3.79106 20.4083 2.42502 21.7815C1.46664 22.7301 0.576212 23.7954 1.54174 24.9988C1.71339 25.2112 1.89219 25.4165 2.07457 25.6182C1.4881 26.2199 0.501115 27.0977 0.594092 27.8763C0.712101 28.8709 2.40714 30.1451 3.06155 30.7999C3.08301 30.8211 3.10804 30.8459 3.1295 30.8671C2.84341 31.122 2.50011 31.4263 2.37138 31.7378C2.13894 32.3076 2.97573 32.8385 3.3226 33.1748C3.68378 33.5252 4.12006 34.2118 4.66361 33.865C4.93181 33.6915 5.18213 33.465 5.411 33.2243C6.24779 34.0526 7.13107 34.8277 8.05011 35.3692C9.20159 36.0488 10.0741 35.171 10.9503 34.3392C11.0754 34.449 11.197 34.5693 11.3257 34.6755C12.5881 35.7267 13.2997 35.171 14.3475 34.1694C15.0126 33.5323 16.2714 32.7394 15.996 31.7095C15.8315 31.1007 15.1128 30.4813 14.6944 30.0389C13.7932 29.0904 12.8527 28.1737 11.9158 27.2605C11.8407 27.1862 11.7656 27.1118 11.6941 27.0411C14.115 24.5883 16.7077 22.2629 19.0214 19.7181C19.8403 20.5498 20.6735 21.3745 21.5174 22.1886C22.0646 22.7089 22.6617 23.4769 23.3448 23.8131C24.5177 24.3865 25.3545 23.1761 26.1198 22.3974C26.9816 21.5161 27.7647 20.8542 26.9601 19.6544C26.7956 19.4066 26.599 19.1695 26.388 18.9394C27.189 18.1183 28.0759 17.2334 27.4322 16.1292C26.9208 15.2549 26.1412 14.448 25.3223 13.6799C25.612 13.4215 25.9159 13.0924 26.0268 12.7632C26.1806 12.2996 25.6942 11.9385 25.3795 11.6696L25.3652 11.6625ZM4.37038 33.2208C4.12363 33.0261 3.89834 32.7536 3.68378 32.5412C3.55147 32.4103 3.412 32.2793 3.27969 32.1484C3.24393 32.113 3.11162 31.9183 3.04725 31.9466C3.11162 31.8404 3.31187 31.6776 3.37624 31.6068C3.45849 31.5254 3.53716 31.4476 3.61941 31.3662C4.04138 31.8051 4.47766 32.2722 4.92466 32.7288C4.76016 32.9058 4.56348 33.0863 4.3668 33.2173L4.37038 33.2208ZM8.08944 34.4879C7.62098 34.2083 7.20617 33.7269 6.7985 33.3588C5.68993 32.3678 4.60639 31.352 3.55504 30.2973C2.93997 29.6814 2.12821 29.0125 1.67048 28.2692C1.1305 27.395 1.90292 26.7933 2.55733 26.1173C3.69808 27.2888 4.99976 28.3577 6.12621 29.5151C7.51013 30.9414 8.92623 32.4917 10.421 33.8579C9.62356 34.6189 9.19086 35.1391 8.09302 34.4844L8.08944 34.4879ZM14.537 30.8954C15.0412 31.4653 15.4847 31.7909 15.0448 32.4882C14.8016 32.8704 14.2509 33.281 13.9327 33.5889C13.3212 34.18 12.4772 34.4844 11.6726 34.0278C11.0897 33.6986 10.5462 32.8775 10.0634 32.4138C8.90835 31.2918 7.74615 30.184 6.62685 29.0266C5.88304 28.2621 5.11061 27.5401 4.33819 26.8039C3.73027 26.2235 3.18313 25.5828 2.58236 24.9953C1.58823 24.0326 2.0245 23.1548 2.92566 22.2629C3.36194 21.8311 4.15581 21.4984 4.79592 21.6364C5.16783 21.7214 5.65417 22.3372 5.9474 22.5991C6.56248 23.1513 7.15968 23.714 7.76045 24.2803C8.91193 25.3563 10.0598 26.4429 11.197 27.5401C12.3235 28.6338 13.5 29.7133 14.5406 30.8919L14.537 30.8954ZM11.1756 26.5491C10.7429 26.1208 10.2994 25.6961 9.85958 25.2749C10.9431 24.1175 12.0696 22.9885 13.1817 21.8594C14.4798 20.5463 16.0282 19.3111 17.2262 17.913C17.6553 18.3448 18.0844 18.7837 18.5136 19.2155C16.1999 21.7674 13.6001 24.0928 11.1756 26.5491ZM18.7424 12.4128C19.4791 13.1773 20.2157 13.9418 20.9882 14.678C22.0824 15.7186 23.1374 16.791 24.1959 17.867C25.3652 19.0527 27.2569 20.2101 25.6048 21.8948C25.3295 22.1744 24.9147 22.7903 24.532 22.9354C23.4485 23.3495 23.0051 22.6416 22.3828 22.047C21.3064 21.0241 20.2479 19.9765 19.2073 18.9182C18.1238 17.8174 17.0545 16.7025 15.9853 15.5806C14.8338 14.3701 12.4343 12.696 14.158 11.0183C15.1807 10.0202 15.9031 9.96357 17.1404 10.8555C17.7376 11.2838 18.2454 11.8925 18.746 12.4164L18.7424 12.4128ZM25.5047 15.0143C25.8408 15.3682 26.2986 15.7504 26.5525 16.1716C27.1747 17.2122 26.6061 17.6829 25.8766 18.4333C25.3366 17.9201 24.7501 17.4317 24.2638 16.9361C23.3519 16.0053 22.4293 15.085 21.4852 14.186C20.298 13.0534 19.2073 11.8111 18.0093 10.6891C18.3276 10.3954 18.653 10.0521 19.0142 9.85031C19.7223 9.4539 19.7866 9.49638 20.4732 10.0627C21.3243 10.7635 22.086 11.6235 22.8763 12.3845C23.7667 13.2446 24.6536 14.1082 25.5047 15.0072L25.5047 15.0143ZM24.7716 13.1773C24.2853 12.7384 23.8025 12.3102 23.377 11.8961C23.3483 11.8678 23.3233 11.843 23.2947 11.8147C23.4091 11.7014 23.5236 11.5881 23.6416 11.4784C23.8168 11.3192 23.7846 11.2802 23.9634 11.3581C24.1065 11.4218 24.2495 11.6412 24.3675 11.7439C24.5177 11.8784 24.6786 11.9952 24.8324 12.1261C24.9576 12.2288 25.0756 12.3385 25.19 12.4518C25.2007 12.4624 25.2615 12.5438 25.3044 12.5792C25.2937 12.6039 25.283 12.6287 25.2687 12.6429C25.097 12.8128 24.9397 12.9968 24.7716 13.1702L24.7716 13.1773Z" fill="url(#paint0_linear_1_14473)"/>
</g>
<defs>
<linearGradient id="paint0_linear_1_14473" x1="7.99445" y1="16.1414" x2="20.1983" y2="28.4717" gradientUnits="userSpaceOnUse">
<stop stop-color="#BF9E77"/>
<stop offset="1" stop-color="#BD9D6F"/>
</linearGradient>
</defs>
</svg>
