<svg width="25" height="24" viewBox="0 0 25 24" fill="none" xmlns="http://www.w3.org/2000/svg">
<g opacity="0.5">
<circle cx="9.78212" cy="6.33363" r="3.80556" stroke="url(#paint0_linear_1_14410)" stroke-width="1.5" stroke-linecap="round"/>
<path d="M15.5019 7.08711C15.9058 6.38743 16.5712 5.87687 17.3516 5.66776C18.132 5.45866 18.9635 5.56813 19.6632 5.97209C20.3629 6.37606 20.8734 7.04142 21.0825 7.82182C21.2916 8.60222 21.1822 9.43372 20.7782 10.1334C20.3743 10.8331 19.7089 11.3437 18.9285 11.5528C18.1481 11.7619 17.3166 11.6524 16.6169 11.2484C15.9172 10.8445 15.4067 10.1791 15.1976 9.3987C14.9884 8.6183 15.0979 7.7868 15.5019 7.08711L15.5019 7.08711Z" stroke="url(#paint1_linear_1_14410)" stroke-width="1.5"/>
<path d="M9.78906 13.166V12.416H9.78905L9.78906 13.166ZM18.0693 21.2842L18.8142 21.1963L18.8141 21.1961L18.0693 21.2842ZM17.1416 22.2773V23.0273H17.1419L17.1416 22.2773ZM1.50977 21.2842L0.764958 21.1961L0.764941 21.1962L1.50977 21.2842ZM9.78906 13.166V13.916C12.8469 13.916 14.6236 15.2215 15.698 16.7675C16.8015 18.3552 17.1909 20.243 17.3245 21.3723L18.0693 21.2842L18.8141 21.1961C18.6684 19.9636 18.237 17.7923 16.9298 15.9114C15.5935 13.9888 13.3698 12.416 9.78906 12.416V13.166ZM18.0693 21.2842L17.3245 21.3721C17.3295 21.4144 17.3179 21.4435 17.2934 21.4693C17.2655 21.4986 17.2144 21.5273 17.1413 21.5273L17.1416 22.2773L17.1419 23.0273C18.0907 23.0269 18.9374 22.2405 18.8142 21.1963L18.0693 21.2842ZM17.1416 22.2773V21.5273H2.4375V22.2773V23.0273H17.1416V22.2773ZM2.4375 22.2773V21.5273C2.36438 21.5273 2.31342 21.4987 2.28565 21.4695C2.26128 21.4438 2.24957 21.4147 2.25459 21.3721L1.50977 21.2842L0.764941 21.1962C0.641631 22.2404 1.48791 23.0273 2.4375 23.0273V22.2773ZM1.50977 21.2842L2.25457 21.3723C2.38816 20.2429 2.77747 18.3552 3.88072 16.7675C4.95494 15.2215 6.7314 13.9161 9.78908 13.916L9.78906 13.166L9.78905 12.416C6.20841 12.4161 3.98491 13.9889 2.64891 15.9115C1.34192 17.7924 0.910738 19.9637 0.764958 21.1961L1.50977 21.2842Z" fill="url(#paint2_linear_1_14410)"/>
<path d="M18.1367 14.6846L18.1367 13.9346H18.1367V14.6846ZM24.0303 21.1904L24.7644 21.0369L24.7644 21.0367L24.0303 21.1904ZM13.1494 22.2764V21.5264L13.1363 23.0263L13.1494 22.2764ZM17.1338 22.2764V23.0264H17.1341L17.1338 22.2764ZM18.0615 21.2842L18.8064 21.1964L18.8063 21.1961L18.0615 21.2842ZM15.5527 15.416L15.1505 14.783L14.3787 15.2735L15.0107 15.9344L15.5527 15.416ZM18.1367 14.6846L18.1367 15.4346C19.8353 15.4346 20.9925 16.3396 21.8136 17.5674C22.6478 18.8147 23.0843 20.3323 23.2962 21.3441L24.0303 21.1904L24.7644 21.0367C24.5367 19.9496 24.0509 18.2143 23.0604 16.7335C22.0569 15.2331 20.4871 13.9346 18.1367 13.9346L18.1367 14.6846ZM24.0303 21.1904L23.2962 21.344C23.3065 21.3936 23.2946 21.4294 23.2678 21.4604C23.2378 21.4951 23.1833 21.5273 23.1055 21.5273V22.2773V23.0273C24.1237 23.0273 24.9927 22.1288 24.7644 21.0369L24.0303 21.1904ZM23.1055 22.2773V21.5273H13.168V22.2773V23.0273H23.1055V22.2773ZM13.168 22.2773V21.5273C13.184 21.5273 13.1966 21.5279 13.2035 21.5283C13.2072 21.5285 13.21 21.5287 13.2117 21.5288C13.2132 21.5289 13.2143 21.529 13.2138 21.5289C13.2131 21.5289 13.214 21.5289 13.2127 21.5288C13.2122 21.5288 13.2112 21.5287 13.2102 21.5287C13.2081 21.5285 13.2047 21.5283 13.2006 21.528C13.1928 21.5275 13.1792 21.5268 13.1626 21.5265L13.1494 22.2764L13.1363 23.0263C13.1226 23.026 13.1121 23.0254 13.1074 23.0251C13.1048 23.025 13.103 23.0248 13.1025 23.0248C13.1024 23.0248 13.1017 23.0247 13.1035 23.0249C13.1053 23.025 13.1135 23.0256 13.1232 23.0261C13.1333 23.0267 13.1489 23.0273 13.168 23.0273V22.2773ZM13.1494 22.2764V23.0264H17.1338V22.2764V21.5264H13.1494V22.2764ZM17.1338 22.2764L17.1341 23.0264C18.082 23.026 18.9295 22.2413 18.8064 21.1964L18.0615 21.2842L17.3167 21.372C17.3217 21.4142 17.3101 21.443 17.2858 21.4684C17.2581 21.4975 17.207 21.5263 17.1335 21.5264L17.1338 22.2764ZM18.0615 21.2842L18.8063 21.1961C18.6349 19.7472 18.0629 16.9559 16.0948 14.8977L15.5527 15.416L15.0107 15.9344C16.6365 17.6346 17.1571 20.0231 17.3167 21.3723L18.0615 21.2842ZM15.5527 15.416L15.955 16.049C16.5487 15.6717 17.2622 15.4346 18.1367 15.4346V14.6846V13.9346C16.971 13.9346 15.9794 14.2562 15.1505 14.783L15.5527 15.416Z" fill="url(#paint3_linear_1_14410)"/>
</g>
<defs>
<linearGradient id="paint0_linear_1_14410" x1="9.78212" y1="1.77808" x2="9.78212" y2="10.8892" gradientUnits="userSpaceOnUse">
<stop stop-color="#BF9E77"/>
<stop offset="1" stop-color="#BD9D6F"/>
</linearGradient>
<linearGradient id="paint1_linear_1_14410" x1="18.14" y1="4.81396" x2="18.14" y2="12.4066" gradientUnits="userSpaceOnUse">
<stop stop-color="#BF9E77"/>
<stop offset="1" stop-color="#BD9D6F"/>
</linearGradient>
<linearGradient id="paint2_linear_1_14410" x1="9.78904" y1="13.166" x2="9.78904" y2="22.2773" gradientUnits="userSpaceOnUse">
<stop stop-color="#BF9E77"/>
<stop offset="1" stop-color="#BD9D6F"/>
</linearGradient>
<linearGradient id="paint3_linear_1_14410" x1="18.5997" y1="14.6846" x2="18.5997" y2="22.2773" gradientUnits="userSpaceOnUse">
<stop stop-color="#BF9E77"/>
<stop offset="1" stop-color="#BD9D6F"/>
</linearGradient>
</defs>
</svg>
