<svg width="31" height="30" viewBox="0 0 31 30" fill="none" xmlns="http://www.w3.org/2000/svg">
<g opacity="0.5">
<circle cx="11.9757" cy="7.9171" r="4.94444" stroke="url(#paint0_linear_1_15666)" stroke-width="1.5" stroke-linecap="round"/>
<path d="M18.9572 8.76526C19.487 7.84759 20.3596 7.17797 21.3832 6.90372C22.4067 6.62946 23.4973 6.77304 24.4149 7.30286C25.3326 7.83268 26.0022 8.70534 26.2765 9.72887C26.5507 10.7524 26.4072 11.843 25.8773 12.7606C25.3475 13.6783 24.4749 14.3479 23.4513 14.6222C22.4278 14.8964 21.3372 14.7529 20.4196 14.223C19.5019 13.6932 18.8323 12.8206 18.558 11.797C18.2838 10.7735 18.4273 9.68294 18.9572 8.76526L18.9572 8.76526Z" stroke="url(#paint1_linear_1_15666)" stroke-width="1.5"/>
<path d="M11.9785 16.457V15.707H11.9785L11.9785 16.457ZM22.3555 26.8516L23.1016 26.7755V26.7755L22.3555 26.8516ZM21.4189 27.8457V28.5957H21.4192L21.4189 27.8457ZM1.60156 26.8516L0.855433 26.7755L0.855433 26.7755L1.60156 26.8516ZM11.9785 16.457V17.207C15.9764 17.207 18.2738 18.9685 19.6379 21.0282C21.0314 23.1322 21.4729 25.5897 21.6093 26.9277L22.3555 26.8516L23.1016 26.7755C22.9551 25.3393 22.4779 22.5996 20.8885 20.1999C19.2698 17.7558 16.5202 15.707 11.9785 15.707V16.457ZM22.3555 26.8516L21.6093 26.9277C21.6141 26.9742 21.6004 27.0078 21.5734 27.036C21.5436 27.0672 21.4914 27.0957 21.4187 27.0957L21.4189 27.8457L21.4192 28.5957C22.3717 28.5954 23.207 27.8092 23.1016 26.7755L22.3555 26.8516ZM21.4189 27.8457V27.0957H2.53906V27.8457V28.5957H21.4189V27.8457ZM2.53906 27.8457V27.0957C2.46622 27.0957 2.4138 27.0672 2.38371 27.0358C2.35651 27.0074 2.34299 26.9738 2.34769 26.9277L1.60156 26.8516L0.855433 26.7755C0.749919 27.8101 1.58705 28.5957 2.53906 28.5957V27.8457ZM1.60156 26.8516L2.34769 26.9277C2.48414 25.5898 2.92563 23.1323 4.31916 21.0283C5.68333 18.9686 7.98077 17.2071 11.9785 17.207L11.9785 16.457L11.9785 15.707C7.43689 15.7071 4.6873 17.7559 3.06858 20.2C1.47919 22.5997 1.00189 25.3394 0.855433 26.7755L1.60156 26.8516Z" fill="url(#paint2_linear_1_15666)"/>
<path d="M22.4209 18.3555L22.4209 17.6055H22.4209V18.3555ZM29.8418 26.7578L30.5781 26.6153L30.5781 26.6153L29.8418 26.7578ZM15.915 27.8457V27.0957L15.9019 28.5956L15.915 27.8457ZM21.4189 27.8457V28.5957H21.4191L21.4189 27.8457ZM22.3555 26.8516L23.1016 26.7756L23.1016 26.7755L22.3555 26.8516ZM19.1934 19.2705L18.7913 18.6374L18.0192 19.1277L18.6513 19.7888L19.1934 19.2705ZM22.4209 18.3555L22.4209 19.1055C24.7023 19.1055 26.23 20.3708 27.2837 22.0249C28.3488 23.6969 28.8712 25.6897 29.1055 26.9003L29.8418 26.7578L30.5781 26.6153C30.33 25.3332 29.7629 23.1249 28.5488 21.219C27.3232 19.2951 25.3817 17.6055 22.4209 17.6055L22.4209 18.3555ZM29.8418 26.7578L29.1055 26.9003C29.1158 26.9539 29.1022 26.9944 29.0729 27.0281C29.0411 27.0647 28.9856 27.0967 28.9082 27.0967V27.8467V28.5967C29.9304 28.5967 30.7877 27.6982 30.5781 26.6153L29.8418 26.7578ZM28.9082 27.8467V27.0967H15.9336V27.8467V28.5967H28.9082V27.8467ZM15.9336 27.8467V27.0967C15.9496 27.0967 15.9622 27.0972 15.9692 27.0976C15.9728 27.0978 15.9757 27.098 15.9773 27.0981C15.9788 27.0982 15.9799 27.0983 15.9795 27.0983C15.9787 27.0982 15.9796 27.0983 15.9784 27.0982C15.9778 27.0981 15.9769 27.0981 15.9758 27.098C15.9737 27.0978 15.9703 27.0976 15.9662 27.0974C15.9584 27.0969 15.9448 27.0961 15.9282 27.0958L15.915 27.8457L15.9019 28.5956C15.8882 28.5953 15.8777 28.5947 15.873 28.5944C15.8705 28.5943 15.8686 28.5942 15.8681 28.5941C15.868 28.5941 15.8673 28.5941 15.8691 28.5942C15.871 28.5943 15.8791 28.5949 15.8888 28.5955C15.8989 28.596 15.9146 28.5967 15.9336 28.5967V27.8467ZM15.915 27.8457V28.5957H21.4189V27.8457V27.0957H15.915V27.8457ZM21.4189 27.8457L21.4191 28.5957C22.3718 28.5955 23.2069 27.809 23.1016 26.7756L22.3555 26.8516L21.6093 26.9276C21.6141 26.9741 21.6004 27.0078 21.5734 27.036C21.5435 27.0672 21.4914 27.0957 21.4188 27.0957L21.4189 27.8457ZM22.3555 26.8516L23.1016 26.7755C22.9262 25.0554 22.2695 21.4027 19.7355 18.7522L19.1934 19.2705L18.6513 19.7888C20.8296 22.0672 21.4431 25.2975 21.6093 26.9277L22.3555 26.8516ZM19.1934 19.2705L19.5955 19.9036C20.3675 19.4133 21.2928 19.1055 22.4209 19.1055V18.3555V17.6055C21.0001 17.6055 19.7969 17.9987 18.7913 18.6374L19.1934 19.2705Z" fill="url(#paint3_linear_1_15666)"/>
</g>
<defs>
<linearGradient id="paint0_linear_1_15666" x1="11.9757" y1="2.22266" x2="11.9757" y2="13.6115" gradientUnits="userSpaceOnUse">
<stop stop-color="#BF9E77"/>
<stop offset="1" stop-color="#BD9D6F"/>
</linearGradient>
<linearGradient id="paint1_linear_1_15666" x1="22.4172" y1="6.01758" x2="22.4172" y2="15.5083" gradientUnits="userSpaceOnUse">
<stop stop-color="#BF9E77"/>
<stop offset="1" stop-color="#BD9D6F"/>
</linearGradient>
<linearGradient id="paint2_linear_1_15666" x1="11.9784" y1="16.457" x2="11.9784" y2="27.8457" gradientUnits="userSpaceOnUse">
<stop stop-color="#BF9E77"/>
<stop offset="1" stop-color="#BD9D6F"/>
</linearGradient>
<linearGradient id="paint3_linear_1_15666" x1="22.887" y1="18.3555" x2="22.887" y2="27.8467" gradientUnits="userSpaceOnUse">
<stop stop-color="#BF9E77"/>
<stop offset="1" stop-color="#BD9D6F"/>
</linearGradient>
</defs>
</svg>
