<svg width="23" height="23" viewBox="0 0 23 23" fill="none" xmlns="http://www.w3.org/2000/svg">
<g clip-path="url(#clip0_1_14343)">
<path fill-rule="evenodd" clip-rule="evenodd" d="M8.8534 1.83414C8.5359 1.99508 8.37539 2.22882 8.35105 2.56575C8.32906 2.86969 8.39329 3.08242 8.56668 3.27993C8.80975 3.55676 8.97112 3.60837 9.65478 3.62807L10.2639 3.64558L10.2515 3.97079L10.2391 4.296L9.66373 4.39241C6.55512 4.91325 3.96557 6.82571 2.57229 9.62957C2.00806 10.7651 1.68882 11.9439 1.58482 13.2761C1.5569 13.6338 1.55187 13.6476 1.43117 13.6976C1.25454 13.7707 1.0309 14.0485 0.968118 14.2727C0.841359 14.7254 1.0508 15.1807 1.48866 15.4041C1.64317 15.4829 1.89997 15.485 11.1981 15.485C20.4963 15.485 20.7531 15.4829 20.9076 15.4041C21.2316 15.2387 21.4156 14.9797 21.457 14.6306C21.5 14.2675 21.262 13.8205 20.9588 13.695C20.8884 13.6658 20.8307 13.6107 20.8306 13.5725C20.8305 13.5343 20.8103 13.2825 20.7857 13.0129C20.6482 11.5076 20.0915 9.90674 19.268 8.64883C18.3217 7.20313 16.9887 6.01653 15.4817 5.2781C14.5309 4.8122 13.7602 4.56588 12.6899 4.38576L12.1571 4.29613L12.1448 3.97088L12.1324 3.64558L12.7415 3.62807C13.4081 3.60889 13.5718 3.55979 13.8039 3.30964C14.0068 3.09077 14.0643 2.92595 14.0465 2.61259C14.0272 2.26987 13.8953 2.038 13.6165 1.85681L13.4358 1.73935L11.2613 1.72758L9.08675 1.71582L8.8534 1.83414ZM9.09839 2.41065C8.98565 2.49628 8.93864 2.67034 8.99678 2.78696C9.09928 2.99253 9.12984 2.99542 11.2243 2.99606C13.1488 2.9967 13.1922 2.99487 13.3022 2.90835C13.433 2.80546 13.4534 2.60245 13.3481 2.45212L13.2818 2.35737H11.2252C9.6457 2.35737 9.15226 2.36973 9.09839 2.41065ZM10.8659 3.94505L10.8785 4.25406H11.1981H11.5178L11.5303 3.94505L11.5429 3.63604H11.1981H10.8534L10.8659 3.94505ZM10.3244 4.93959C9.72864 5.02117 9.48808 5.0652 9.0244 5.1776C6.44226 5.80346 4.25186 7.5921 3.08278 10.0294C2.55145 11.137 2.20484 12.5921 2.20484 13.715C2.20484 14.0098 2.10046 14.2063 1.94391 14.2063C1.89754 14.2063 1.80539 14.2344 1.73907 14.2687C1.5433 14.3699 1.51019 14.5507 1.65387 14.7334L1.74218 14.8457H11.1981H20.6541L20.7424 14.7334C20.8859 14.551 20.8434 14.369 20.6311 14.2559C20.5612 14.2187 18.3566 14.2063 11.7794 14.2063H3.02085L2.93253 14.094C2.78907 13.9117 2.83152 13.7297 3.04382 13.6166C3.11372 13.5794 5.26371 13.567 11.6676 13.567H20.1982L20.1707 13.2793C20.0406 11.9169 19.7732 10.9462 19.2346 9.88019C18.7396 8.90052 18.1895 8.15203 17.4259 7.41914C16.0992 6.14567 14.5646 5.37225 12.6663 5.02028C12.302 4.95276 10.6453 4.89569 10.3244 4.93959ZM4.1687 16.1727C3.60584 16.2661 3.13281 16.6669 2.93492 17.2183L2.86549 17.4118L2.47149 17.5113C1.64654 17.7197 1.00396 18.2268 0.610347 18.98C0.374561 19.4311 0.323414 19.6595 0.298352 20.3722L0.275635 21.0186L0.385856 21.1288L0.496077 21.239H11.2004H21.9047L22.0284 21.1066C22.1511 20.9752 22.152 20.9704 22.152 20.4435C22.152 20.1005 22.1369 19.922 22.1094 19.939C22.0856 19.9537 22.0668 19.9211 22.0668 19.8653C22.0668 19.8102 22.0383 19.6558 22.0035 19.5222C21.7485 18.5433 20.8304 17.6798 19.8293 17.4775L19.5324 17.4175L19.4594 17.2136C19.2631 16.6647 18.7767 16.2596 18.2011 16.1653C17.882 16.1131 4.48569 16.1201 4.1687 16.1727ZM4.14663 16.8169C3.96476 16.8649 3.56875 17.2214 3.56875 17.337C3.56875 17.3963 4.34286 17.403 11.2219 17.403H18.8749L18.798 17.2704C18.6808 17.0687 18.4177 16.8632 18.2094 16.8107C17.955 16.7467 4.38991 16.7526 4.14663 16.8169ZM2.69543 18.0924C2.11009 18.2041 1.44267 18.7277 1.169 19.2901C0.994757 19.6482 0.926178 19.9404 0.926178 20.3247V20.5997H11.1981H21.4701L21.4694 20.312C21.4686 19.9336 21.3721 19.5383 21.2033 19.2214C21.0193 18.8763 20.6007 18.4648 20.2666 18.3008C19.7142 18.0295 20.2151 18.0434 11.1555 18.0478C6.13282 18.0503 2.82495 18.0677 2.69543 18.0924ZM0.303424 20.4931C0.303467 20.7979 0.310287 20.917 0.31847 20.7577C0.326696 20.5985 0.326654 20.3492 0.318342 20.2036C0.310074 20.0581 0.303339 20.1884 0.303424 20.4931Z" fill="white"/>
</g>
<defs>
<clipPath id="clip0_1_14343">
<rect width="21.8226" height="21.8226" fill="white" transform="translate(0.283447 0.566406)"/>
</clipPath>
</defs>
</svg>
