<svg width="30" height="30" viewBox="0 0 30 30" fill="none" xmlns="http://www.w3.org/2000/svg">
<g opacity="0.5">
<path d="M3.32812 14.68C3.32812 12.417 3.32812 11.2856 3.78556 10.291C4.243 9.29645 5.10207 8.5601 6.82021 7.08741L8.48688 5.65884C11.5924 2.99696 13.1452 1.66602 14.9948 1.66602C16.8444 1.66602 18.3972 2.99696 21.5027 5.65884L23.1694 7.08741C24.8875 8.5601 25.7466 9.29645 26.204 10.291C26.6615 11.2856 26.6615 12.417 26.6615 14.68V21.7473C26.6615 24.89 26.6615 26.4613 25.6851 27.4377C24.7088 28.414 23.1375 28.414 19.9948 28.414H9.99479C6.85209 28.414 5.28075 28.414 4.30444 27.4377C3.32812 26.4613 3.32812 24.89 3.32812 21.7473V14.68Z" stroke="url(#paint0_linear_1_15681)" stroke-width="1.5"/>
<path d="M19.1615 28.4141V19.4141C19.1615 18.8618 18.7137 18.4141 18.1615 18.4141H11.8281C11.2758 18.4141 10.8281 18.8618 10.8281 19.4141V28.4141" stroke="url(#paint1_linear_1_15681)" stroke-width="1.5" stroke-linecap="round" stroke-linejoin="round"/>
</g>
<defs>
<linearGradient id="paint0_linear_1_15681" x1="14.9948" y1="1.66602" x2="14.9948" y2="28.414" gradientUnits="userSpaceOnUse">
<stop stop-color="#BF9E77"/>
<stop offset="1" stop-color="#BD9D6F"/>
</linearGradient>
<linearGradient id="paint1_linear_1_15681" x1="14.9948" y1="18.4141" x2="14.9948" y2="28.4141" gradientUnits="userSpaceOnUse">
<stop stop-color="#BF9E77"/>
<stop offset="1" stop-color="#BD9D6F"/>
</linearGradient>
</defs>
</svg>
